<svg width="264" height="48" viewBox="0 0 264 48" fill="none" xmlns="http://www.w3.org/2000/svg">
<g clip-path="url(#clip0_1355_15)">
<mask id="mask0_1355_15" style="mask-type:luminance" maskUnits="userSpaceOnUse" x="0" y="0" width="42" height="36">
<path d="M0.598022 0.309082H41.145V35.2871H0.598022V0.309082Z" fill="#00DDE0"/>
</mask>
<g mask="url(#mask0_1355_15)">
<path fill-rule="evenodd" clip-rule="evenodd" d="M0.598022 35.2721C1.28802 35.3061 9.42202 35.2721 9.42202 35.2721L34.25 9.56208V24.7911H23.299L18.204 30.0671H34.18V35.2721H41.145V0.309082H33.367L0.598022 35.2721Z" fill="white"/>
</g>
<path fill-rule="evenodd" clip-rule="evenodd" d="M72.33 10.7901C71.485 8.68008 70.29 6.85108 68.742 5.30408C67.195 3.75608 65.437 2.56008 63.327 1.64608C61.217 0.730082 58.967 0.309082 56.505 0.309082H43.845V35.2721H56.505C58.967 35.2721 61.217 34.8501 63.327 33.9351C65.437 33.0211 67.195 31.8251 68.742 30.2771C70.29 28.7301 71.415 26.9001 72.329 24.7901C73.174 22.6801 73.596 20.3581 73.596 17.8261C73.666 15.2231 73.244 12.9011 72.329 10.7911M65.929 21.9061C65.461 23.1256 64.7691 24.2469 63.889 25.2121C62.975 26.1271 61.921 26.9001 60.725 27.3921C59.458 27.9561 58.123 28.1671 56.575 28.1671H50.878V7.27308H56.575C58.052 7.27308 59.458 7.55508 60.725 8.04708C61.991 8.61008 63.045 9.31408 63.89 10.2281C64.804 11.1431 65.437 12.2681 65.93 13.5341C66.4424 14.8576 66.7045 16.2648 66.703 17.6841C66.633 19.2331 66.422 20.6401 65.929 21.9061Z" fill="white"/>
<path fill-rule="evenodd" clip-rule="evenodd" d="M95.4601 7.36816L87.8351 27.2582L80.2101 7.36816H73.4861L84.6081 35.1422H91.0621L102.184 7.36816H95.4601Z" fill="white"/>
<path fill-rule="evenodd" clip-rule="evenodd" d="M145.364 6.70407C147.126 6.70407 148.727 7.03707 150.166 7.70207C151.579 8.34842 152.839 9.28628 153.864 10.4541C154.889 11.6241 155.679 12.9821 156.238 14.5281C156.795 16.0751 157.074 17.7311 157.074 19.4931V35.1431H150.598V19.4931C150.598 17.6951 149.968 16.2011 148.71 15.0151C147.486 13.7911 146.012 13.1791 144.285 13.1791C142.521 13.1791 141.028 13.7911 139.805 15.0151C138.583 16.2381 137.971 17.7311 137.971 19.4931V35.1431H131.496V7.45807H137.971V9.51007C138.959 8.67227 140.069 7.99009 141.263 7.48707C142.485 6.96607 143.853 6.70407 145.364 6.70407ZM170.255 28.6671H168.624C168.312 28.6708 168.003 28.6105 167.715 28.4899C167.427 28.3694 167.167 28.1911 166.951 27.9661C166.483 27.4981 166.25 26.9221 166.25 26.2381V17.8751H171.645L171.641 11.3981H166.25V0.768066L159.774 7.43507V26.2381C159.774 27.4621 160.007 28.6131 160.475 29.6921C160.925 30.7448 161.566 31.7053 162.365 32.5251C163.165 33.3417 164.119 33.9928 165.171 34.4411C166.261 34.9114 167.437 35.1505 168.624 35.1431H176.508L170.255 28.6671ZM122.388 7.40507V9.56407C121.344 8.73607 120.139 8.05407 118.773 7.51407C117.405 6.97407 115.84 6.70407 114.078 6.70407C112.098 6.70407 110.274 7.07407 108.601 7.81007C106.962 8.52336 105.484 9.56083 104.256 10.8601C103.02 12.173 102.049 13.7117 101.396 15.3921C100.713 17.1191 100.371 18.9721 100.371 20.9511C100.371 22.8931 100.713 24.7281 101.397 26.4541C102.051 28.1346 103.022 29.6736 104.257 30.9871C105.485 32.286 106.962 33.3234 108.601 34.0371C110.201 34.7421 111.944 35.1071 113.825 35.1371V35.1431H119.72V28.6671H114.617C113.592 28.6706 112.575 28.4782 111.622 28.1001C110.671 27.7242 109.815 27.1438 109.113 26.4001C107.602 24.8901 106.847 23.0731 106.847 20.9501C106.847 18.7921 107.602 16.9571 109.113 15.4461C109.831 14.7278 110.684 14.1591 111.623 13.7731C112.572 13.3785 113.589 13.1769 114.617 13.1801C116.776 13.1801 118.611 13.9351 120.122 15.4461C121.632 16.9561 122.388 18.7921 122.388 20.9511V35.1431H128.864V7.40507H122.388Z" fill="white"/>
<path fill-rule="evenodd" clip-rule="evenodd" d="M195.03 7.40513V9.56413C193.985 8.73613 192.78 8.05412 191.414 7.51412C190.046 6.97412 188.481 6.70412 186.719 6.70412C184.739 6.70412 182.915 7.07412 181.242 7.81012C179.603 8.52353 178.126 9.56099 176.898 10.8601C175.662 12.1731 174.691 13.7118 174.038 15.3921C173.354 17.1191 173.012 18.9721 173.012 20.9511C173.012 22.8931 173.354 24.7281 174.038 26.4541C174.692 28.1346 175.663 29.6736 176.898 30.9871C178.126 32.286 179.603 33.3234 181.242 34.0371C182.842 34.7421 184.585 35.1071 186.466 35.1371V35.1431H192.361V28.6671H187.258C186.233 28.6707 185.216 28.4782 184.263 28.1001C183.312 27.7242 182.456 27.1439 181.754 26.4001C180.243 24.8901 179.488 23.0731 179.488 20.9501C179.488 18.7921 180.243 16.9571 181.754 15.4461C182.472 14.7278 183.325 14.1591 184.264 13.7731C185.213 13.3786 186.23 13.177 187.258 13.1801C189.417 13.1801 191.252 13.9351 192.763 15.4461C194.273 16.9561 195.029 18.7921 195.029 20.9511V35.1431H201.505V7.40513H195.03ZM255.342 26.8301C254.317 27.8231 252.428 29.4231 249.652 29.3791C243.362 29.2811 242.282 24.1891 242.282 24.1881H263.22C263.478 23.1286 263.605 22.0415 263.598 20.9511C263.598 18.9721 263.228 17.1191 262.491 15.3921C261.776 13.6988 260.741 12.1596 259.442 10.8591C258.142 9.56023 256.602 8.52491 254.909 7.81012C253.183 7.07312 251.329 6.70412 249.351 6.70412C247.372 6.70412 245.52 7.07412 243.793 7.81012C242.1 8.52539 240.56 9.56103 239.26 10.8601C237.961 12.1598 236.926 13.6988 236.212 15.3921C235.473 17.1191 235.105 18.9721 235.105 20.9511C235.105 22.8931 235.473 24.7281 236.212 26.4541C236.926 28.1477 237.961 29.687 239.26 30.9871C240.56 32.2862 242.1 33.3219 243.793 34.0371C245.52 34.7741 247.373 35.1431 249.351 35.1431C251.51 35.1431 253.507 34.7191 255.341 33.8741C256.904 33.1541 260.425 31.4011 262.364 26.8301H255.342ZM249.227 12.3841C256.911 12.3291 256.541 19.4581 256.541 19.4581H242.402C242.402 19.4581 242.375 12.4341 249.227 12.3841ZM226.007 7.40912V9.57913C224.957 8.74713 223.747 8.06013 222.373 7.51813C220.998 6.97513 219.425 6.70312 217.653 6.70312C215.664 6.70312 213.829 7.07512 212.147 7.81612C210.5 8.53294 209.014 9.5755 207.78 10.8811C206.55 12.1831 205.592 13.7011 204.905 15.4381C204.218 17.1731 203.875 19.0371 203.875 21.0251C203.875 22.9781 204.218 24.8231 204.905 26.5581C205.592 28.2941 206.55 29.8131 207.78 31.1151C209.014 32.4207 210.5 33.4633 212.147 34.1801C213.757 34.8901 215.508 35.2561 217.399 35.2921H223.325V28.7821H218.195C217.146 28.7821 216.143 28.5921 215.185 28.2131C214.226 27.8331 213.385 27.2631 212.662 26.5041C211.144 24.9841 210.384 23.1591 210.384 21.0251C210.384 18.8551 211.144 17.0101 212.662 15.4921C213.384 14.7704 214.241 14.1987 215.185 13.8101C216.139 13.4134 217.162 13.2105 218.195 13.2131C220.365 13.2131 222.21 13.9731 223.729 15.4931C225.249 17.0101 226.007 18.8561 226.007 21.0251V29.9291C226.007 31.5381 226.088 33.1401 225.878 34.7421C225.671 36.3321 224.831 37.7081 223.736 38.8491C222.253 40.4041 220.408 41.1821 218.203 41.1821C218.027 41.1821 217.798 41.1761 217.534 41.1651L212.425 46.4551C212.807 46.6291 213.194 46.7931 213.592 46.9321C215.038 47.4381 216.576 47.6921 218.202 47.6921C220.192 47.6921 222.055 47.3121 223.79 46.5521C225.49 45.8172 227.036 44.7682 228.347 43.4601C230.099 41.7081 231.566 39.5161 232.054 37.0601C232.374 35.4461 232.384 33.7891 232.394 32.1431L232.434 24.4611C232.464 18.7771 232.491 13.0931 232.517 7.40912H226.007Z" fill="white"/>
</g>
<defs>
<clipPath id="clip0_1355_15">
<rect width="264" height="48" fill="white"/>
</clipPath>
</defs>
</svg>
