<svg id="fall-classic-logo" xmlns="http://www.w3.org/2000/svg" xmlns:xlink="http://www.w3.org/1999/xlink" width="216.865" height="157.775" viewBox="0 0 216.865 157.775">
  <defs>
    <radialGradient id="radial-gradient" cx="1.283" cy="2.04" r="0.657" gradientTransform="matrix(-1.168, -0.331, -0.41, 0.944, 475.192, 72.624)" gradientUnits="objectBoundingBox">
      <stop offset="0" stop-color="#be4828"/>
      <stop offset="1" stop-color="#c74f2c"/>
    </radialGradient>
    <radialGradient id="radial-gradient-2" cx="0.573" cy="-1.082" r="0.741" gradientTransform="matrix(0.854, 0.449, 0.429, -0.894, 33.283, -149.176)" xlink:href="#radial-gradient"/>
  </defs>
  <g id="Group_2507" data-name="Group 2507" transform="translate(10.548 0)">
    <g id="Group_2505" data-name="Group 2505">
      <g id="Group_2503" data-name="Group 2503" transform="translate(45.208 16.619)">
        <path id="Path_8794" data-name="Path 8794" d="M92.3,31.609c.76-.989,1.489-1.9,2.157-2.669C94.457,28.94,93.616,29.96,92.3,31.609Z" transform="translate(-91.022 -27.662)" fill="#fff"/>
        <path id="Path_8795" data-name="Path 8795" d="M92.511,31.616c1.31-1.637,2.144-2.645,2.144-2.651A1.28,1.28,0,0,0,92.7,27.309c-.006.006-.012.019-.019.025h0l-.012.012c-.686.791-1.415,1.7-2.175,2.688l1.013.779-1-.8,1,.8L90.5,30.034a1.281,1.281,0,0,0,.222,1.786,1.251,1.251,0,0,0,.365.2A1.3,1.3,0,0,0,92.511,31.616Z" transform="translate(-90.232 -26.871)" fill="#fff"/>
      </g>
      <g id="Group_2504" data-name="Group 2504">
        <path id="Path_8796" data-name="Path 8796" d="M32.2,42.711c-1.322-.791-8.88,1.662-8.88,1.662a11.811,11.811,0,0,0,3.547-3.337c-2.472-1.588-7.724-3.009-7.724-3.009,2.793-.674,11.926-5.184,11.926-5.184.037-1.174-3.936-5.92-3.936-5.92,8.564,5.815,14.144,4.634,14.144,4.634-2.472-4.363-14.892-13.23-14.892-13.23a41.965,41.965,0,0,0,9.5.556C36.646,15,35.762,2.07,35.762,2.07,44.03,12.321,47.515,14.558,47.515,14.558c1.347.043,5.944-4.214,5.944-4.214-2.014,12.494.643,13.563.643,13.563,1.8-.729,8.163-11.666,8.163-11.666.7,3.689,1.4,4.616,1.4,4.616,1.174.037,9.219-4.591,9.219-4.591a77.476,77.476,0,0,0-4.838,12.377c1.99.9,6.636.117,6.636.117-2.4,1.273-7.186,4.152-7.186,4.152.649.692,5.666,1.52,5.666,1.52A85.212,85.212,0,0,0,59.91,35.24c1.953,2.076,7.236,5.265,7.236,5.265a30.61,30.61,0,0,0-14.225.649c-.229-.507-.482-1.075-.754-1.687.877-1.409,3.584-5.759,6.667-10.338a25.463,25.463,0,0,0,8.521-2.886,52.3,52.3,0,0,1-8.1,2.262c1.693-2.5,3.473-5.036,5.1-7.162,1.316-1.644,2.157-2.669,2.157-2.669-.667.772-1.4,1.675-2.157,2.669-1.946,2.435-4.931,6.253-7.817,10.233a46.538,46.538,0,0,1-.445-7.038,35.787,35.787,0,0,0-.043,7.718c-1.539,2.15-3.028,4.319-4.288,6.328-1.242-2.768-2.824-6.3-4.443-9.911l1.928-10.054s-1.755,6.26-2.558,8.645c-3.609-8.045-7.23-16.109-7.613-16.943,0,0,1.434,3.726,3.386,8.744a36.5,36.5,0,0,1-3.485-1.434,34.631,34.631,0,0,0,3.72,2.039c2.323,5.951,5.3,13.508,7.52,18.84a60.176,60.176,0,0,0-9.331-1.415c-1.755-1.217-5.778-3.986-7.434-5.005,0,0,4.406,3.436,6.21,4.919a57.321,57.321,0,0,0-13.588.766,142.418,142.418,0,0,1,17.734.7L36.93,43.335s5.351-2.892,8.052-4.709a42.416,42.416,0,0,1,5.759,1.137c.278.667.544,1.285.785,1.848a32.674,32.674,0,0,0-11.852,6.983,8.549,8.549,0,0,0,1.736-4.573,79.944,79.944,0,0,0-11.6,5.364A19.144,19.144,0,0,0,32.2,42.729Z" transform="translate(-17.861 -0.776)" fill="#fff"/>
        <path id="Path_8797" data-name="Path 8797" d="M29.645,49.678a1.28,1.28,0,0,1-1.712-1.8,14.229,14.229,0,0,0,1.366-2.88,19.625,19.625,0,0,0,.562-1.916,28.182,28.182,0,0,0-3.627.748c-1.786.47-3.312.964-3.312.964a1.28,1.28,0,0,1-1.007-2.342,9,9,0,0,0,2.206-1.817c-.877-.414-1.922-.822-2.886-1.162-1.736-.612-3.213-1.007-3.219-1.007a1.282,1.282,0,0,1,.037-2.484,54.08,54.08,0,0,0,6.772-2.762c1.52-.7,2.923-1.372,3.831-1.811-.08-.142-.173-.3-.278-.451-.538-.84-1.3-1.854-1.922-2.651s-1.1-1.366-1.1-1.366a1.281,1.281,0,0,1,1.7-1.885,29,29,0,0,0,6.723,3.479,17.991,17.991,0,0,0,4.146.964c-.494-.544-1.069-1.137-1.7-1.73-2.206-2.113-5.067-4.424-7.359-6.2s-4.016-3-4.023-3.009a1.284,1.284,0,0,1,.989-2.3,36.577,36.577,0,0,0,6.247.593c.748.012,1.4,0,1.891-.012a76.977,76.977,0,0,0,.062-8.583c-.124-3.7-.346-6.9-.346-6.908A1.28,1.28,0,0,1,35.96.454a112.315,112.315,0,0,0,8.867,9.973c.927.9,1.594,1.471,2.021,1.817.043.037.087.068.124.1a7.726,7.726,0,0,0,.871-.525,33.169,33.169,0,0,0,2.62-2.045c.779-.667,1.329-1.174,1.329-1.174a1.293,1.293,0,0,1,1.477-.192,1.269,1.269,0,0,1,.655,1.335c-.995,6.148-.809,9.411-.445,10.98.031.148.068.284.105.408.29-.34.63-.766.97-1.236,1.223-1.662,2.688-3.949,3.831-5.808S60.361,10.8,60.361,10.8a1.272,1.272,0,0,1,1.322-.618,1.29,1.29,0,0,1,1.044,1.026,22.137,22.137,0,0,0,.84,3.306c.278-.117.618-.266.958-.433,1.341-.636,3.083-1.576,4.48-2.342s2.447-1.372,2.447-1.378a1.281,1.281,0,0,1,1.767,1.718,60.714,60.714,0,0,0-3.423,8.1c-.383,1.094-.7,2.051-.921,2.756a13.82,13.82,0,0,0,2.533.019c.63-.043,1.211-.105,1.625-.161s.655-.093.655-.093a1.283,1.283,0,0,1,.816,2.4c-1.162.612-2.954,1.65-4.443,2.527-.111.062-.216.13-.321.185.371.087.742.161,1.088.235.982.2,1.761.327,1.761.327A1.275,1.275,0,0,1,73.659,29.6a1.288,1.288,0,0,1-.989,1.291,62.9,62.9,0,0,0-8.6,2.849c-1,.4-1.9.772-2.608,1.081.828.661,1.829,1.372,2.731,1.984,1.539,1.038,2.83,1.817,2.83,1.817a1.281,1.281,0,0,1-.9,2.354,29.3,29.3,0,0,0-13.638.624,1.314,1.314,0,0,1-.742-.012,1.3,1.3,0,0,1-.6.426,33,33,0,0,0-8.385,4.264c-.976.692-1.73,1.3-2.237,1.736-.253.216-.439.389-.562.507s-.167.167-.167.167a1.28,1.28,0,0,1-1.953-1.644,9,9,0,0,0,1-1.8c-1.953.785-3.9,1.7-5.487,2.49-2.187,1.094-3.7,1.953-3.7,1.953h0Zm2.138-4.035c1.156-.587,2.527-1.248,3.986-1.891a1.3,1.3,0,0,1-.723-.55,1.281,1.281,0,0,1,.352-1.724l4.066-2.867c-3.009-.235-5.994-.34-8.441-.377-3.374-.056-5.7.019-5.71.012A1.363,1.363,0,0,1,25,38.215a14.384,14.384,0,0,1,1.767.945,1.274,1.274,0,0,1,.562.816,1.3,1.3,0,0,1-.192.976l-.019.019c.649-.148,1.291-.278,1.891-.365a6,6,0,0,1,2.676.031,1.929,1.929,0,0,1,.383.179,1.286,1.286,0,0,1,.606,1.273,21.233,21.233,0,0,1-.89,3.547h0Zm7.545-2.422ZM24,37.1a1.242,1.242,0,0,1,.161-.766c-.624.278-1.248.55-1.848.8.723.26,1.483.55,2.218.865a1.257,1.257,0,0,1-.525-.908h0Zm17.846,6.68a35.66,35.66,0,0,1,7.162-3.726c0-.012-.006-.019-.012-.031a41.671,41.671,0,0,0-4.517-.871c-1.644,1.069-3.93,2.385-5.592,3.312.439-.167.871-.321,1.3-.47a1.251,1.251,0,0,1,1.149.167,1.285,1.285,0,0,1,.544,1.032,5.244,5.244,0,0,1-.037.587h0ZM25.869,35.558a56.754,56.754,0,0,1,9.213-.748c-1.644-1.3-3.213-2.521-3.213-2.527a1.244,1.244,0,0,1-.315-.358v.154a1.263,1.263,0,0,1-.711,1.106s-2.292,1.137-4.95,2.354c-.012,0-.019.006-.031.012h0ZM29,32.117Zm11.524,2.917a64.359,64.359,0,0,1,6.779.908C45.29,31,42.874,24.875,40.9,19.808a36.278,36.278,0,0,1-3.188-1.78l-.142-.08a1.468,1.468,0,0,1-.327-.26,1.282,1.282,0,0,1,1.619-1.959s.037.025.1.062c.1.049.26.117.451.2-1.39-3.584-2.33-6.025-2.33-6.025a1.282,1.282,0,0,1,2.36-.995c.346.742,3.133,6.945,6.229,13.854.754-2.552,1.545-5.364,1.545-5.364a1.28,1.28,0,0,1,2.49.587l-1.848,9.664c1.168,2.6,2.311,5.153,3.312,7.39.871-1.31,1.8-2.651,2.75-3.986a36.267,36.267,0,0,1,.043-6.9,1.479,1.479,0,0,1-.173.08,1.283,1.283,0,0,1-.958,0c-.463-.173-1.4-.933-1.848-3a26.625,26.625,0,0,1-.049-8.577A23.326,23.326,0,0,1,48.905,14.2a8.424,8.424,0,0,1-1.026.562,2.7,2.7,0,0,1-1.2.278,1.316,1.316,0,0,1-.655-.2c-.161-.105-3.015-1.977-9.559-9.732.043.939.093,1.984.13,3.071a59.129,59.129,0,0,1-.247,10.152,1.281,1.281,0,0,1-1.168,1.032,46.294,46.294,0,0,1-4.993,0c.847.649,1.773,1.378,2.725,2.15,1.724,1.4,3.528,2.935,5.085,4.412a20.744,20.744,0,0,1,3.6,4.2A1.273,1.273,0,0,1,40.749,32a13.16,13.16,0,0,1-5.03-.266c1.668,1.118,3.609,2.453,4.814,3.287h0ZM52.841,38.84a31.754,31.754,0,0,1,8.428-.952,22.246,22.246,0,0,1-3.09-2.571,1.261,1.261,0,0,1-.321-1.118,1.29,1.29,0,0,1,.723-.921c.031-.012,4.14-1.922,8.694-3.479l-.161-.056a3.3,3.3,0,0,1-1.341-.754,1.268,1.268,0,0,1-.334-1.05,1.24,1.24,0,0,1,.278-.636,24.871,24.871,0,0,1-6.945,2.225c-2.589,3.874-4.882,7.508-5.957,9.238a.379.379,0,0,1,.031.074h0ZM31.6,30.547l.056-.074c-.253-.105-.513-.216-.772-.327a8.226,8.226,0,0,1,.414.8c.031.074.056.142.087.216a1.249,1.249,0,0,1,.222-.612h0Zm30.958-10.8c.741-.97,1.477-1.878,2.157-2.669l.012-.012h0a.087.087,0,0,1,.025-.025,1.272,1.272,0,0,1,1.792-.136A1.285,1.285,0,0,1,66.7,18.7s-.834,1.013-2.144,2.651c-1.013,1.322-2.1,2.824-3.188,4.387a48.434,48.434,0,0,0,4.678-1.464,1.284,1.284,0,0,1-.019-.779c0-.012.519-1.773,1.353-4.159.507-1.446,1.131-3.127,1.841-4.8-.229.124-.463.247-.692.371-1.094.581-2.218,1.168-3.176,1.613-.482.222-.915.414-1.3.556a3.338,3.338,0,0,1-1.217.266,1.269,1.269,0,0,1-.976-.507,7.021,7.021,0,0,1-.89-2.045c-.538.877-1.162,1.885-1.817,2.91-.921,1.427-1.9,2.886-2.774,4.054q-.315.417-.612.779a1.271,1.271,0,0,1,.822,1.236,34.133,34.133,0,0,0,.1,3.572c2.231-2.991,4.369-5.71,5.883-7.607h0Zm-9.763,2.2Zm15.831,3.547c-.266-.031-.531-.074-.791-.13a1.247,1.247,0,0,1-.148.68h0C67.974,25.869,68.289,25.684,68.623,25.493Z" transform="translate(-17.07 0.024)" fill="#f7931e"/>
      </g>
    </g>
    <g id="Group_2506" data-name="Group 2506" transform="translate(0.649 1.195)">
      <path id="Path_8798" data-name="Path 8798" d="M91.28,31.459c.76-.989,1.489-1.9,2.157-2.669C93.437,28.79,92.6,29.81,91.28,31.459Z" transform="translate(-46.073 -12.18)" fill="url(#radial-gradient)"/>
      <path id="Path_8799" data-name="Path 8799" d="M31.17,42.557c-1.316-.8-8.88,1.662-8.88,1.662a11.8,11.8,0,0,0,3.547-3.343c-2.472-1.588-7.718-3.009-7.718-3.009,2.793-.674,11.926-5.184,11.926-5.184.037-1.174-3.942-5.92-3.942-5.92C34.668,32.577,40.248,31.4,40.248,31.4c-2.472-4.363-14.892-13.23-14.892-13.23a41.965,41.965,0,0,0,9.5.556c.76-3.881-.124-16.814-.124-16.814C43,12.161,46.483,14.4,46.483,14.4c1.347.037,5.944-4.214,5.944-4.214-2.014,12.494.649,13.57.649,13.57,1.792-.723,8.163-11.666,8.163-11.666.7,3.689,1.4,4.616,1.4,4.616,1.174.037,9.219-4.591,9.219-4.591a77.864,77.864,0,0,0-4.832,12.371c1.99.9,6.636.124,6.636.124-2.391,1.267-7.186,4.146-7.186,4.146.649.692,5.673,1.52,5.673,1.52A85.4,85.4,0,0,0,58.89,35.08c1.959,2.076,7.236,5.265,7.236,5.265a30.61,30.61,0,0,0-14.225.649c-.229-.507-.482-1.075-.754-1.687.871-1.409,3.584-5.759,6.667-10.344a25.463,25.463,0,0,0,8.521-2.886,53.054,53.054,0,0,1-8.107,2.262c1.693-2.5,3.473-5.036,5.1-7.162,1.316-1.644,2.157-2.669,2.157-2.669-.674.772-1.4,1.675-2.157,2.669C61.387,23.611,58.4,27.43,55.523,31.41a46.375,46.375,0,0,1-.451-7.044,35.991,35.991,0,0,0-.037,7.718c-1.539,2.144-3.028,4.313-4.288,6.328-1.242-2.768-2.824-6.3-4.443-9.911l1.922-10.06s-1.761,6.266-2.558,8.645c-3.609-8.045-7.23-16.109-7.613-16.943,0,0,1.434,3.732,3.386,8.744a36.5,36.5,0,0,1-3.485-1.434,34.63,34.63,0,0,0,3.72,2.039C44,25.44,46.977,33,49.189,38.33a60.176,60.176,0,0,0-9.331-1.415C38.1,35.7,34.081,32.93,32.425,31.91c0,0,4.412,3.436,6.21,4.919a57.32,57.32,0,0,0-13.588.766,141.782,141.782,0,0,1,17.734.7L35.9,43.15s5.357-2.892,8.052-4.709a42.416,42.416,0,0,1,5.759,1.137c.278.667.544,1.285.785,1.848a32.674,32.674,0,0,0-11.852,6.983,8.549,8.549,0,0,0,1.736-4.573,80.681,80.681,0,0,0-11.6,5.364,19.144,19.144,0,0,0,2.391-6.655Z" transform="translate(-18.12 -1.91)" fill="#f15a24"/>
    </g>
  </g>
  <g id="Group_2512" data-name="Group 2512" transform="translate(139.933 105.073)">
    <g id="Group_2510" data-name="Group 2510">
      <g id="Group_2508" data-name="Group 2508" transform="translate(7.843 25.562)">
        <path id="Path_8800" data-name="Path 8800" d="M244.017,213.62c-.945.945-1.841,1.811-2.657,2.54C241.36,216.16,242.392,215.189,244.017,213.62Z" transform="translate(-239.995 -212.24)" fill="#fff"/>
        <path id="Path_8801" data-name="Path 8801" d="M242.221,211.778c-1.619,1.563-2.639,2.521-2.639,2.521a1.371,1.371,0,0,0,1.848,2.027l.025-.025h0l.012-.012c.834-.748,1.736-1.613,2.676-2.558l-.97-.97.952.989-.952-.989.97.97a1.374,1.374,0,0,0-1.928-1.959Z" transform="translate(-239.151 -211.387)" fill="#fff"/>
      </g>
      <g id="Group_2509" data-name="Group 2509">
        <path id="Path_8802" data-name="Path 8802" d="M276.245,179.491c1.291,1.026,9.658-.556,9.658-.556a12.641,12.641,0,0,0-4.227,3.059c2.41,2.027,7.792,4.251,7.792,4.251-3.059.334-13.378,3.874-13.378,3.874-.2,1.242,3.374,6.828,3.374,6.828-8.3-7.347-14.4-6.859-14.4-6.859,2.027,4.974,14.014,16.091,14.014,16.091a44.911,44.911,0,0,0-10.023-1.891c-1.341,4.016-2.169,17.883-2.169,17.883-7.384-12.025-10.777-14.873-10.777-14.873-1.421-.229-6.89,3.664-6.89,3.664,3.85-12.995,1.168-14.5,1.168-14.5-2.008.525-10.264,11.277-10.264,11.277-.235-4.01-.859-5.1-.859-5.1-1.242-.2-10.424,3.615-10.424,3.615a82.666,82.666,0,0,0,6.834-12.488c-1.99-1.23-7.038-1.032-7.038-1.032,2.719-1.02,8.206-3.429,8.206-3.429-.6-.828-5.815-2.391-5.815-2.391a90.815,90.815,0,0,0,14.744-3.294c-1.792-2.472-6.97-6.581-6.97-6.581a32.741,32.741,0,0,0,15.207,1.254c.173.568.365,1.211.575,1.9-1.118,1.378-4.6,5.629-8.5,10.078-4.35-.167-9.448,1.9-9.448,1.9a56.963,56.963,0,0,1,8.917-1.3c-2.144,2.428-4.381,4.875-6.4,6.915-1.625,1.57-2.657,2.54-2.657,2.54.816-.729,1.712-1.588,2.657-2.54,2.4-2.323,6.1-5.969,9.7-9.806a49.882,49.882,0,0,1-.488,7.539,38.167,38.167,0,0,0,1.1-8.194c1.928-2.07,3.806-4.171,5.419-6.142.939,3.114,2.138,7.081,3.368,11.141l-3.423,10.424s2.719-6.414,3.9-8.836c2.737,9.04,5.481,18.105,5.771,19.044,0,0-1.013-4.152-2.4-9.757a39.2,39.2,0,0,1,3.51,2,36.72,36.72,0,0,0-3.677-2.676c-1.656-6.636-3.788-15.071-5.413-21.046a65.164,65.164,0,0,0,9.726,2.781c1.693,1.532,5.592,5.024,7.211,6.334,0,0-4.214-4.251-5.92-6.074a61.83,61.83,0,0,0,14.54,1.044,152.342,152.342,0,0,1-18.748-3.17l7.977-4.214s-6.08,2.342-9.195,3.905a45.487,45.487,0,0,1-5.963-1.99c-.2-.748-.4-1.44-.587-2.07a34.982,34.982,0,0,0,13.551-5.8,9.082,9.082,0,0,0-2.466,4.616,85.781,85.781,0,0,0,13.05-4.115,20.488,20.488,0,0,0-3.454,6.742Z" transform="translate(-227.291 -170.864)" fill="#fff"/>
        <path id="Path_8803" data-name="Path 8803" d="M278.34,170.637a1.375,1.375,0,0,1,1.137.043,1.336,1.336,0,0,1,.494.42,1.366,1.366,0,0,1-.056,1.693,15.2,15.2,0,0,0-1.841,2.873,20.591,20.591,0,0,0-.859,1.959,29.243,29.243,0,0,0,3.955-.3c1.959-.253,3.646-.575,3.652-.575a1.372,1.372,0,0,1,.754,2.626,9.505,9.505,0,0,0-2.589,1.631,32.694,32.694,0,0,0,2.9,1.625c1.767.884,3.275,1.508,3.281,1.514a1.379,1.379,0,0,1,.834,1.465,1.365,1.365,0,0,1-1.211,1.168,57.7,57.7,0,0,0-7.576,2.008c-1.712.538-3.294,1.057-4.313,1.4.068.161.142.334.235.513.457.964,1.125,2.15,1.681,3.077s.982,1.6.982,1.6a1.375,1.375,0,0,1-2.07,1.767,31.26,31.26,0,0,0-6.667-4.616,19.266,19.266,0,0,0-4.27-1.588c.451.649.982,1.353,1.57,2.07,2.058,2.546,4.783,5.394,6.976,7.594s3.856,3.738,3.862,3.745a1.374,1.374,0,0,1-1.366,2.311,38.952,38.952,0,0,0-6.556-1.483c-.791-.111-1.483-.192-2.008-.247a82.136,82.136,0,0,0-1.236,9.114c-.371,3.942-.575,7.378-.581,7.384a1.373,1.373,0,0,1-2.54.636,119.41,119.41,0,0,0-8.058-11.808c-.865-1.081-1.5-1.78-1.9-2.206-.043-.043-.08-.086-.117-.124a8.431,8.431,0,0,0-.995.439,35.018,35.018,0,0,0-3.065,1.817c-.921.6-1.569,1.063-1.576,1.063a1.373,1.373,0,0,1-2.113-1.508c1.9-6.4,2.144-9.893,1.977-11.6-.012-.161-.037-.315-.056-.445-.358.321-.779.729-1.2,1.18-1.526,1.6-3.392,3.831-4.863,5.648s-2.546,3.219-2.552,3.226a1.374,1.374,0,0,1-2.459-.754,23.709,23.709,0,0,0-.439-3.621c-.315.087-.686.2-1.075.327-1.514.494-3.491,1.248-5.079,1.878s-2.787,1.125-2.793,1.125a1.378,1.378,0,0,1-1.6-.414,1.363,1.363,0,0,1-.037-1.656,63.186,63.186,0,0,0,4.739-8.138c.556-1.106,1.02-2.082,1.353-2.8a15.839,15.839,0,0,0-2.688-.371c-.674-.043-1.3-.056-1.743-.056s-.7.012-.7.012a1.372,1.372,0,0,1-.531-2.657c1.316-.494,3.368-1.347,5.067-2.076.124-.056.247-.105.365-.154-.377-.142-.766-.278-1.125-.4-1.013-.346-1.829-.587-1.829-.593a1.374,1.374,0,0,1,.26-2.682,68.883,68.883,0,0,0,9.528-1.848c1.118-.29,2.119-.562,2.923-.791-.791-.816-1.755-1.712-2.632-2.478-1.489-1.31-2.756-2.317-2.756-2.317a1.373,1.373,0,0,1,1.279-2.379,31.317,31.317,0,0,0,14.577,1.2,1.346,1.346,0,0,1,.785.111,1.375,1.375,0,0,1,.7-.371,35.593,35.593,0,0,0,9.491-3.38,30.024,30.024,0,0,0,2.614-1.539c.3-.2.519-.358.667-.463s.2-.154.2-.154a1.374,1.374,0,0,1,1.854,2.014,9.656,9.656,0,0,0-1.31,1.773c2.181-.568,4.375-1.273,6.167-1.9,2.472-.859,4.19-1.57,4.2-1.57h0Zm-2.824,4c-1.31.463-2.855.982-4.492,1.471a1.37,1.37,0,0,1,.08,2.465l-4.709,2.49c3.164.661,6.321,1.18,8.917,1.557,3.578.519,6.062.76,6.068.766a1.407,1.407,0,0,1,.327.074,15.655,15.655,0,0,1-1.749-1.248,1.348,1.348,0,0,1-.482-.945,1.4,1.4,0,0,1,.334-1.007l.019-.019c-.7.068-1.409.117-2.064.13a6.427,6.427,0,0,1-2.836-.4,2.427,2.427,0,0,1-.383-.241,1.376,1.376,0,0,1-.463-1.44,23.925,23.925,0,0,1,1.427-3.652h0Zm-8.342,1.545Zm15.442,8.6a1.282,1.282,0,0,1-.278.791c.7-.21,1.4-.414,2.076-.606-.735-.377-1.5-.785-2.237-1.223a1.385,1.385,0,0,1,.439,1.038h0Zm-18.049-9.535a38.412,38.412,0,0,1-8.12,2.985.088.088,0,0,0,.012.037,46.141,46.141,0,0,0,4.678,1.545c1.9-.914,4.5-2,6.4-2.756-.488.117-.97.222-1.452.321a1.368,1.368,0,0,1-1.631-1.5,5.292,5.292,0,0,1,.124-.618h0Zm15.856,10.912a61.436,61.436,0,0,1-9.893-.463c1.57,1.6,3.065,3.12,3.071,3.12a1.366,1.366,0,0,1,.284.42c0-.056.012-.105.018-.167a1.371,1.371,0,0,1,.908-1.081s2.6-.89,5.574-1.823c.012,0,.025,0,.031-.012h0Zm-3.8,3.226Zm-11.846-4.671a70.188,70.188,0,0,1-7.081-1.891c1.471,5.518,3.195,12.365,4.61,18.012,1.23.791,2.626,1.909,3.145,2.323a1.628,1.628,0,0,1,.136.105,1.7,1.7,0,0,1,.309.321,1.371,1.371,0,0,1-1.984,1.86.984.984,0,0,1-.1-.08c-.1-.068-.26-.161-.451-.272.989,4,1.65,6.717,1.65,6.723a1.37,1.37,0,0,1-2.639.735c-.266-.834-2.373-7.81-4.727-15.572-1.149,2.608-2.373,5.481-2.373,5.493a1.371,1.371,0,0,1-2.564-.964L256,191.492c-.884-2.929-1.755-5.79-2.509-8.3-1.1,1.273-2.274,2.571-3.466,3.862a38.953,38.953,0,0,1-.989,7.322c.062-.019.13-.043.2-.062a1.363,1.363,0,0,1,1.02.13c.47.247,1.366,1.18,1.551,3.442A28.653,28.653,0,0,1,250.682,207a26.434,26.434,0,0,1,2.36-1.3,8.862,8.862,0,0,1,1.162-.457,3,3,0,0,1,1.31-.13,1.431,1.431,0,0,1,.667.3c.154.136,2.935,2.509,8.824,11.648.08-1,.173-2.119.284-3.281.389-4.023.9-8.441,1.65-10.752a1.368,1.368,0,0,1,1.384-.939,46.6,46.6,0,0,1,5.308.686c-.809-.809-1.7-1.705-2.608-2.657-1.644-1.718-3.349-3.6-4.8-5.388a22.385,22.385,0,0,1-3.25-4.956,1.365,1.365,0,0,1,.1-1.236,1.385,1.385,0,0,1,1.063-.649,14.13,14.13,0,0,1,5.308.97c-1.619-1.415-3.5-3.1-4.665-4.152h0Zm-12.568-5.728a34.125,34.125,0,0,1-9.083-.142,24.193,24.193,0,0,1,2.935,3.151,1.372,1.372,0,0,1-.7,2.113c-.031,0-4.665,1.471-9.714,2.5.056.025.105.049.161.08a3.588,3.588,0,0,1,1.322.982,1.369,1.369,0,0,1,.216,1.162,1.423,1.423,0,0,1-.383.643,26.8,26.8,0,0,1,7.681-1.415c3.281-3.757,6.21-7.31,7.588-9-.006-.025-.019-.056-.025-.08h0ZM273.65,190.7l-.068.068c.253.142.513.3.779.457a8.506,8.506,0,0,1-.327-.908c-.019-.08-.043-.161-.062-.241a1.325,1.325,0,0,1-.321.618h0Zm-34.369,7.248c-.921.927-1.823,1.8-2.657,2.54l-.012.012h0l-.025.025a1.371,1.371,0,0,1-1.848-2.027s1.026-.958,2.645-2.521c1.254-1.267,2.62-2.719,3.992-4.227a51.722,51.722,0,0,0-5.166.915,1.375,1.375,0,0,1-.087.828c0,.018-.791,1.81-2.008,4.233-.735,1.471-1.631,3.17-2.614,4.845.26-.1.525-.2.791-.3,1.242-.47,2.521-.933,3.6-1.279.544-.173,1.026-.315,1.458-.414a3.624,3.624,0,0,1,1.335-.117,1.377,1.377,0,0,1,.97.674,7.576,7.576,0,0,1,.667,2.292c.686-.859,1.489-1.841,2.33-2.842,1.174-1.4,2.41-2.805,3.5-3.93.26-.266.513-.513.754-.748a1.379,1.379,0,0,1-.7-1.427,35.25,35.25,0,0,0,.383-3.813c-2.781,2.873-5.425,5.469-7.291,7.279h0Zm10.678-1Zm-16.338-5.932c.278.068.556.148.828.241a1.443,1.443,0,0,1,.247-.7h0c-.327.142-.692.3-1.075.457Z" transform="translate(-226.457 -170.019)" fill="#f7931e"/>
      </g>
    </g>
    <g id="Group_2511" data-name="Group 2511" transform="translate(2.01 1.558)">
      <path id="Path_8804" data-name="Path 8804" d="M245.087,213.91c-.939.952-1.841,1.811-2.657,2.54C242.43,216.45,243.462,215.479,245.087,213.91Z" transform="translate(-234.57 -188.347)" fill="url(#radial-gradient-2)"/>
      <path id="Path_8805" data-name="Path 8805" d="M277.315,179.8c1.291,1.026,9.658-.556,9.658-.556a12.617,12.617,0,0,0-4.227,3.065c2.41,2.027,7.792,4.251,7.792,4.251-3.059.334-13.378,3.874-13.378,3.874-.2,1.242,3.374,6.828,3.374,6.828-8.3-7.347-14.4-6.859-14.4-6.859,2.027,4.974,14.014,16.091,14.014,16.091a44.852,44.852,0,0,0-10.023-1.891c-1.335,4.017-2.169,17.883-2.169,17.883-7.378-12.019-10.777-14.873-10.777-14.873-1.421-.229-6.89,3.664-6.89,3.664,3.843-13,1.168-14.5,1.168-14.5-2.008.525-10.264,11.277-10.264,11.277-.241-4.01-.859-5.1-.859-5.1-1.242-.2-10.418,3.615-10.418,3.615a83.306,83.306,0,0,0,6.828-12.488c-2-1.23-7.038-1.038-7.038-1.038,2.719-1.02,8.206-3.423,8.206-3.423-.6-.828-5.815-2.391-5.815-2.391a91.5,91.5,0,0,0,14.75-3.294c-1.792-2.472-6.97-6.587-6.97-6.587a32.735,32.735,0,0,0,15.207,1.254c.173.568.365,1.211.575,1.9-1.118,1.378-4.6,5.629-8.5,10.078-4.35-.167-9.448,1.9-9.448,1.9a55.96,55.96,0,0,1,8.923-1.291c-2.138,2.428-4.381,4.875-6.4,6.915-1.625,1.57-2.657,2.54-2.657,2.54.816-.729,1.718-1.588,2.657-2.54,2.4-2.323,6.093-5.969,9.7-9.806a49.749,49.749,0,0,1-.482,7.545,38.6,38.6,0,0,0,1.1-8.194c1.928-2.076,3.806-4.171,5.419-6.142.939,3.114,2.138,7.075,3.368,11.141l-3.417,10.424s2.725-6.414,3.9-8.836c2.737,9.04,5.481,18.105,5.778,19.044,0,0-1.013-4.159-2.4-9.751a38.026,38.026,0,0,1,3.5,2,38.238,38.238,0,0,0-3.67-2.676c-1.656-6.636-3.788-15.077-5.407-21.046a65.26,65.26,0,0,0,9.72,2.781c1.7,1.532,5.6,5.024,7.211,6.334,0,0-4.214-4.251-5.926-6.074a61.827,61.827,0,0,0,14.54,1.044,152.341,152.341,0,0,1-18.748-3.17l7.977-4.22s-6.086,2.342-9.195,3.905a44.57,44.57,0,0,1-5.963-2c-.2-.748-.4-1.44-.581-2.07a35.09,35.09,0,0,0,13.551-5.8,9.127,9.127,0,0,0-2.472,4.616,85.979,85.979,0,0,0,13.057-4.115,20.408,20.408,0,0,0-3.448,6.748Z" transform="translate(-229.71 -172.54)" fill="#f15a24"/>
    </g>
  </g>
  <path id="Path_8806" data-name="Path 8806" d="M212.17,67.44h0a10.751,10.751,0,0,0-7.743-8.076c-32.3-8.639-62.775-12.834-93.152-12.834a330.059,330.059,0,0,0-90.81,12.877A10.845,10.845,0,0,0,12.6,69.8v59.314a10.812,10.812,0,0,0,10.8,10.8c28.542,0,49.724,4.9,62.472,9.009,13.446,4.332,20.521,8.706,20.781,8.867a10.629,10.629,0,0,0,5.846,1.749,10.737,10.737,0,0,0,5.784-1.681c.284-.179,29.339-17.944,83.358-17.944a10.812,10.812,0,0,0,10.8-10.8V69.8a10.665,10.665,0,0,0-.266-2.354Zm-12.327,32.707a1.474,1.474,0,0,0-.025.284V127.3c-51.813.358-81.559,15.979-87.287,19.291-5.648-3.343-34.826-18.939-87.312-19.291V101.092a1.344,1.344,0,0,0-.006-.154,8.921,8.921,0,0,0-1.526-4.48,8.483,8.483,0,0,0,1.526-4.288c0-.056.006-.111.006-.161V71.173A316.742,316.742,0,0,1,111.27,59.142c9.911,0,20.039.482,30.093,1.44a365.8,365.8,0,0,1,58.455,10.61V92.645a1.948,1.948,0,0,0,.019.272,8.625,8.625,0,0,0,1.434,3.677,8.209,8.209,0,0,0-1.427,3.553Z" transform="translate(-4.814 -17.764)"/>
  <path id="Path_8807" data-name="Path 8807" d="M117.924,156.18a2.086,2.086,0,0,1-1.118-.327c-.136-.087-7.693-4.894-22.2-9.64-13.446-4.4-35.771-9.64-65.8-9.64a2.05,2.05,0,0,1-2.051-2.052V75.207a2.058,2.058,0,0,1,1.5-1.977,321.168,321.168,0,0,1,88.431-12.55c29.617,0,59.339,4.1,90.89,12.538a2.056,2.056,0,0,1,1.52,1.984v59.314a2.05,2.05,0,0,1-2.051,2.051c-56.781,0-87.72,19.094-88.023,19.291a2.059,2.059,0,0,1-1.094.315Z" transform="translate(-10.221 -23.17)" fill="#f7931e"/>
  <g id="Group_2513" data-name="Group 2513" transform="translate(157.959 43.77)">
    <path id="Path_8808" data-name="Path 8808" d="M300.516,158.38s-4.678,10.486-17.6,8.6-15.825-11.079-27.281-8.756c0,0,11.753-19.928,28.641-17.679s18.377,14.212,18.377,14.212-27.343-7.2-41.222,1.007c0,0,24.2-2.892,39.09,2.626Z" transform="translate(-255.63 -97.385)" fill="#f15a24"/>
    <path id="Path_8809" data-name="Path 8809" d="M277.953,113.3l2.033-.748s-11.438-13-6.9-35.753A38.471,38.471,0,0,0,288.347,87.08c4.622,1.736,9.627,3.955,13.316,7.78,4.22,4.381,2.917,19.916-.062,17.555a79.269,79.269,0,0,1-9.942-9.38c-7.242-8.187-16.468-22.449-16.468-22.449s1.316,11.011,16.5,27.664c0,0,3.794,3.411,9.788,8.317,2.027,1.656,1.471-25.088.327-25.984-5.994-4.678-10.449-3.949-18.544-9.121C273.628,75.3,272.8,70.81,272.8,70.81S262.573,96.5,277.953,113.3Z" transform="translate(-260.917 -70.81)" fill="#f15a24"/>
  </g>
  <g id="Group_2514" data-name="Group 2514" transform="translate(10.2 43.77)">
    <path id="Path_8810" data-name="Path 8810" d="M19.872,158.38s4.678,10.486,17.6,8.6S53.3,155.9,64.758,158.219c0,0-11.753-19.928-28.641-17.679S17.74,154.753,17.74,154.753s27.343-7.2,41.221,1.007c0,0-24.2-2.892-39.09,2.626Z" transform="translate(-16.978 -97.385)" fill="#f15a24"/>
    <path id="Path_8811" data-name="Path 8811" d="M47.257,113.3l-2.033-.748s11.438-13,6.9-35.753A38.472,38.472,0,0,1,36.863,87.08C31.209,89.205,24.987,92.042,21.3,97.671c-2.781,4.245-1.242,17.469,1.013,15.751a79.365,79.365,0,0,0,11.24-10.393c7.242-8.187,16.468-22.449,16.468-22.449s-1.316,11.011-16.5,27.664c0,0-4.968,4.468-12.525,10.529-1.273,1.026-8.62-17.018-1.236-24.834,8.064-8.533,12.544-6.315,22.19-12.476S52.41,70.81,52.41,70.81,62.637,96.5,47.263,113.3Z" transform="translate(-16.507 -70.81)" fill="#f15a24"/>
  </g>
  <path id="Path_8812" data-name="Path 8812" d="M211.524,75.216c-18.049-7.081-42.161-10.461-68.861-9.059a366.307,366.307,0,0,1,60.105,11.024v22.857a6.817,6.817,0,0,0,2,3.961,6.634,6.634,0,0,0-2,3.825V136.5c-58.029,0-89.117,19.607-89.117,19.607S83.392,136.5,24.535,136.5v-27.09A61.657,61.657,0,0,0,15.55,120.7v15.794a8.985,8.985,0,0,0,8.985,8.985c28.777,0,50.157,4.943,63.028,9.1,13.625,4.393,20.849,8.842,21.219,9.077a8.815,8.815,0,0,0,4.844,1.452,8.956,8.956,0,0,0,4.814-1.4c.29-.185,29.524-18.222,84.328-18.222a8.985,8.985,0,0,0,8.985-8.985V77.181a8.938,8.938,0,0,0-.222-1.959Z" transform="translate(-5.941 -25.143)" fill="#f7931e"/>
  <path id="Path_8813" data-name="Path 8813" d="M205.081,62.242c-32.144-8.6-62.459-12.772-92.682-12.772A328.061,328.061,0,0,0,22.084,62.279a8.986,8.986,0,0,0-6.544,8.645v43.52a61.191,61.191,0,0,1,8.985-11.289v-.927a6.942,6.942,0,0,0-2.082-4.641,6.691,6.691,0,0,0,2.082-4.443V70.93c39.454-11.147,78.167-14.818,118.134-11.024,26.7-1.4,50.812,1.977,68.861,9.059a8.972,8.972,0,0,0-6.439-6.717Z" transform="translate(-5.938 -18.887)" fill="#fcee21"/>
  <path id="Path_8814" data-name="Path 8814" d="M28.792,135.792c.982,0,1.959,0,2.929.019V110.692a6.942,6.942,0,0,0-2.082-4.641,6.707,6.707,0,0,0,2.082-4.443V79.394c39.454-11.147,78.167-14.818,118.134-11.024a364.4,364.4,0,0,1,57.176,10.251V76.478a366.843,366.843,0,0,0-60.105-11.024c-39.967-3.8-78.68-.124-118.134,11.024V98.692a6.736,6.736,0,0,1-2.082,4.443,6.942,6.942,0,0,1,2.082,4.641v28.017Z" transform="translate(-10.205 -24.441)" fill="#f15a24"/>
  <path id="Path_8815" data-name="Path 8815" d="M117.105,155.9a.777.777,0,0,1-.42-.124l-.192-.124c-.074-.049-7.675-4.9-22.258-9.689-13.532-4.443-36.006-9.738-66.247-9.738H27.63a.775.775,0,0,1-.779-.779V107.074a5.89,5.89,0,0,0-1.749-3.837l-.253-.253a.779.779,0,0,1,0-1.1l.253-.253a5.518,5.518,0,0,0,1.755-3.745V75.5a.775.775,0,0,1,.562-.748l.26-.074A320.036,320.036,0,0,1,115.857,62.17c10,0,20.225.488,30.371,1.452a370.11,370.11,0,0,1,60.291,11.055l.266.068a.786.786,0,0,1,.581.754V98.535a5.658,5.658,0,0,0,1.675,3.244l.253.253a.78.78,0,0,1,0,1.1l-.253.253a5.473,5.473,0,0,0-1.675,3.12v28.937a.775.775,0,0,1-.779.779h-.358c-29.815,0-52.313,5.3-65.938,9.738-14.639,4.77-22.5,9.646-22.579,9.7l-.192.124a.78.78,0,0,1-.414.117Zm-87.98-21.942c29.994.13,52.344,5.419,65.852,9.856,12.544,4.122,20.008,8.286,22.14,9.553a120.367,120.367,0,0,1,22.437-9.553c13.594-4.437,35.957-9.726,65.537-9.856V106.382a.4.4,0,0,1,.012-.124,7.673,7.673,0,0,1,1.613-3.677,7.9,7.9,0,0,1-1.607-3.788c0-.019-.012-.093-.012-.111V76.642a367.313,367.313,0,0,0-59.079-10.764c-10.066-.958-20.212-1.44-30.155-1.44A317.822,317.822,0,0,0,29.126,76.629V97.985a7.835,7.835,0,0,1-1.7,4.449,8.128,8.128,0,0,1,1.7,4.542v26.972Z" transform="translate(-9.408 -23.739)"/>
  <g id="Group_2515" data-name="Group 2515" transform="translate(85.199 87.104)">
    <path id="Path_8816" data-name="Path 8816" d="M186.506,151.846a9.772,9.772,0,0,1,6.519,9.775c-.087,7.835-5.32,10.295-3.022,16.919,0,0-12.785-5.388-12.8-15.609s6.976-12.062,6.976-12.062-2.095,16.832,3.9,24.42C188.075,175.29,184.417,161.134,186.506,151.846Z" transform="translate(-152.903 -144.734)" fill="#fcee21"/>
    <path id="Path_8817" data-name="Path 8817" d="M162.708,166.089l-.606-1.149s-6.81,7.835-20.694,6.958a23.072,23.072,0,0,0,4.894-9.887c1.421-6.2,4.01-13.6,15.763-13.18a46.567,46.567,0,0,1-6.544,9.936A143.337,143.337,0,0,1,143.5,170.353s6.439-1.662,15.121-12.025c0,0,3.083-4.523,6.828-10.943,2.2-3.775,7.607-4.894,7.607-4.894l-2.428-1.551s-5.506,3.127-7.242,5.938c0,0-10.313-.606-14.367,4.412-4.43,5.475-2.75,7.959-5.642,14.187s-5.493,7.075-5.493,7.075,16.091,4.023,24.84-6.463Z" transform="translate(-137.88 -140.94)" fill="#fcee21"/>
  </g>
  <path id="Path_8818" data-name="Path 8818" d="M2.991,152.044A2.988,2.988,0,0,1,0,149.053V91.889a2.981,2.981,0,0,1,2.292-2.9c5.1-1.223,10.3-2.379,15.448-3.423a3.234,3.234,0,0,1,.6-.062,2.987,2.987,0,0,1,1.891.674,2.852,2.852,0,0,1,.389.383,2.988,2.988,0,0,1,2.28-2.014c3.664-.7,7.384-1.366,11.055-1.977a3.257,3.257,0,0,1,.488-.043,2.989,2.989,0,0,1,2.978,2.725l2.058,23.444V84.252a2.992,2.992,0,0,1,2.552-2.96c2.07-.3,4.171-.6,6.247-.877a2.831,2.831,0,0,1,.4-.025,2.991,2.991,0,0,1,2.991,2.991v46.412c1.329-.167,2.663-.327,3.986-.482a3.242,3.242,0,0,1,.346-.019h.148V82.108a2.991,2.991,0,0,1,2.663-2.972c2.064-.229,4.171-.445,6.266-.643.093-.006.192-.012.284-.012a2.977,2.977,0,0,1,2.985,2.985V128c1.372-.124,2.75-.241,4.115-.346.08-.006.161-.012.235-.012a2.99,2.99,0,0,1,2.991,2.985v7.347a2.99,2.99,0,0,1-2.756,2.978c-4.474.352-9.009.785-13.477,1.273a2.905,2.905,0,0,1-.327.019,2.984,2.984,0,0,1-1.285-.29,2.993,2.993,0,0,1-1.508.624c-4.468.525-8.985,1.118-13.434,1.78a2.619,2.619,0,0,1-.439.031,3.082,3.082,0,0,1-1.156-.229,2.981,2.981,0,0,1-1.458.661c-2,.309-4.023.636-6.012.97a3.414,3.414,0,0,1-.494.043,2.988,2.988,0,0,1-2.978-2.731l-.68-7.78c-.463.08-.921.167-1.384.247l-.766,9.1a2.98,2.98,0,0,1-2.422,2.682c-2.033.383-4.1.791-6.124,1.2a2.821,2.821,0,0,1-.6.062,2.993,2.993,0,0,1-2.978-3.25q1.02-11.762,2.045-23.53a2.872,2.872,0,0,1-1.248.581c-1.366.29-2.737.581-4.109.884V147.6a2.994,2.994,0,0,1-2.33,2.917c-2.045.463-4.091.939-6.087,1.415a2.954,2.954,0,0,1-.7.08ZM15.6,109.179a2.99,2.99,0,0,1,2.8,1.934q.547-6.256,1.088-12.513a3.235,3.235,0,0,1-.556.173c-2.268.463-4.554.945-6.828,1.446v9.646c.964-.21,1.928-.414,2.88-.618a2.936,2.936,0,0,1,.612-.062Zm194.991,42a6.453,6.453,0,0,1-1.446-.167c-3.053-.7-6.154-1.384-9.219-2.021a7.944,7.944,0,0,1-4.591-3.083,2.938,2.938,0,0,1-.735.9,3.01,3.01,0,0,1-1.9.686,2.829,2.829,0,0,1-.556-.056c-2.033-.383-4.1-.76-6.136-1.118a2.994,2.994,0,0,1-2.472-2.941v-.111a6.249,6.249,0,0,1-4.412,1.823,7.068,7.068,0,0,1-1.013-.08c-3.1-.488-6.229-.945-9.312-1.359a7.934,7.934,0,0,1-5.827-4.5,6.547,6.547,0,0,1-5.518,3.065,6.725,6.725,0,0,1-.7-.037c-3.114-.34-6.26-.643-9.349-.915a7.125,7.125,0,0,1-4.276-2,3.167,3.167,0,0,1-.433.562,2.982,2.982,0,0,1-2.132.89c-.068,0-.142,0-.21-.006-2-.142-4.041-.272-6.068-.389a2.992,2.992,0,0,1-2.805-2.725l-.748-8.651c-.488-.025-.97-.049-1.458-.068l-.723,8.3a2.989,2.989,0,0,1-2.972,2.731h-.117c-2.076-.08-4.165-.142-6.21-.192a3.055,3.055,0,0,1-1.18-.272,2.959,2.959,0,0,1-1.137.222h-.056c-2.793-.049-5.629-.074-8.428-.074-1.7,0-3.4.006-5.092.031h-.037a2.985,2.985,0,0,1-2.1-.865,3.077,3.077,0,0,1-.7-1.075,6.9,6.9,0,0,1-4.7,2.089c-3.108.087-6.26.21-9.38.358-.105,0-.21.006-.315.006a6.755,6.755,0,0,1-5.048-2.36,7.9,7.9,0,0,1-1.934-5.228V85.1c0-4.208,3.207-7.922,7.007-8.107,3.158-.154,6.352-.278,9.5-.365h.185a6.667,6.667,0,0,1,4.641,1.928,2.984,2.984,0,0,1,2.812-2.07c1.718-.019,3.442-.031,5.16-.031h1.131a2.983,2.983,0,0,1,2.978,2.991v46.838q2.225.019,4.43.062a1.855,1.855,0,0,1,.266.019l4.227-46.906a2.988,2.988,0,0,1,2.972-2.719h.105c3.708.13,7.471.309,11.178.538a2.991,2.991,0,0,1,2.8,2.725q.982,11.317,1.965,22.628V85.71a8.078,8.078,0,0,1,1.712-5.2,6.405,6.405,0,0,1,5.055-2.36,5.555,5.555,0,0,1,.636.031c3.145.272,6.334.587,9.473.927a7.551,7.551,0,0,1,5.913,4.3,6.072,6.072,0,0,1,.4-.556,6.215,6.215,0,0,1,4.919-2.323,7.48,7.48,0,0,1,.976.068c3.133.426,6.3.89,9.436,1.384a7.581,7.581,0,0,1,4.807,2.941,2.9,2.9,0,0,1,.754-.958,2.943,2.943,0,0,1,2.441-.649c2.076.365,4.171.748,6.216,1.137a2.987,2.987,0,0,1,2.428,2.935v.185a6.1,6.1,0,0,1,5.456-1.551c3.108.649,6.253,1.335,9.343,2.051,3.59.828,6.4,4.678,6.4,8.768v12.247a2.988,2.988,0,0,1-2.991,2.991,2.953,2.953,0,0,1-.7-.08c-2.021-.482-4.072-.964-6.093-1.415a2.977,2.977,0,0,1-1.539-.89v18.729a2.583,2.583,0,0,1,.327-.309,3,3,0,0,1,1.866-.655,2.959,2.959,0,0,1,.655.074c2.045.463,4.122.945,6.173,1.434a2.986,2.986,0,0,1,2.292,2.9v12.414c0,3.955-2.706,6.933-6.3,6.933Zm-45.535-31.261a2.633,2.633,0,0,1,.377.025c2.082.266,4.19.544,6.253.834a3.01,3.01,0,0,1,1.835.989V118.5c-1.576-.229-3.158-.457-4.721-.667a7.484,7.484,0,0,1-4.6-2.571v4.777a3.06,3.06,0,0,1,.853-.124Zm-21.559-2.2a1.5,1.5,0,0,1,.235.012c2.082.161,4.189.34,6.278.531a3,3,0,0,1,2,1.038v-3.417c-1.532-.148-3.077-.29-4.61-.426a7.68,7.68,0,0,1-6.185-4.758q.324,3.754.655,7.514a2.988,2.988,0,0,1,1.631-.488Zm-52.134-.056a3,3,0,0,1,2.187-1.063c2.089-.068,4.2-.124,6.29-.161H99.9a3.221,3.221,0,0,1,.426.031V99.6c-.124.019-.247.025-.371.031-2.064.037-4.152.093-6.21.161h-.1a3,3,0,0,1-2.076-.84c-.074-.074-.142-.148-.21-.229v18.939Zm82.894-12.445c1.594.235,3.195.476,4.777.729a7.464,7.464,0,0,1,4.5,2.632v-3.324a3.161,3.161,0,0,1-.834.117,2.72,2.72,0,0,1-.494-.043c-2.039-.34-4.1-.667-6.148-.983a2.982,2.982,0,0,1-1.8-.989Zm-21.535-2.626c1.557.148,3.12.315,4.665.482a7.249,7.249,0,0,1,4.678,2.533V102.19a3.028,3.028,0,0,1-.853.124,2.244,2.244,0,0,1-.352-.019c-2.051-.241-4.134-.47-6.179-.686a2.959,2.959,0,0,1-1.965-1.032v2.014Z" transform="translate(0 -29.199)" fill="#f7931e"/>
  <path id="Path_8819" data-name="Path 8819" d="M3.915,151.45a1.494,1.494,0,0,1-1.5-1.5V92.791a1.5,1.5,0,0,1,1.143-1.452c5.085-1.223,10.27-2.373,15.4-3.417a1.612,1.612,0,0,1,.3-.031,1.5,1.5,0,0,1,1.5,1.5v7.347a1.5,1.5,0,0,1-1.2,1.464c-2.663.544-5.357,1.118-8.027,1.712v12.7c1.563-.346,3.133-.686,4.684-1.007a1.689,1.689,0,0,1,.309-.031,1.489,1.489,0,0,1,1.489,1.5v7.347a1.5,1.5,0,0,1-1.186,1.464c-1.755.371-3.535.754-5.3,1.143v25.508a1.493,1.493,0,0,1-1.168,1.458c-2.051.463-4.109.939-6.111,1.421a1.36,1.36,0,0,1-.346.043ZM14.352,116.26v-.383c-.111.025-.222.049-.327.068C14.043,115.963,14.266,116.167,14.352,116.26Zm2.737-23.691v-.383c-.111.025-.216.043-.327.068.019.012.235.222.327.309Zm194.435,58.017a4.922,4.922,0,0,1-1.112-.13c-3.065-.7-6.179-1.39-9.25-2.027-2.917-.612-5.3-3.8-5.3-7.118V93.866c0-3.158,2.175-5.623,4.95-5.623a4.525,4.525,0,0,1,.952.1c3.1.649,6.229,1.335,9.312,2.039,2.941.68,5.24,3.893,5.24,7.316v12.247a1.494,1.494,0,0,1-1.5,1.5,1.3,1.3,0,0,1-.346-.043c-2.027-.488-4.084-.964-6.111-1.421a1.5,1.5,0,0,1-1.168-1.458v-8.6c-.729-.161-1.464-.327-2.194-.488v39.4c.735.161,1.464.315,2.194.476v-8.014a1.5,1.5,0,0,1,.562-1.168,1.481,1.481,0,0,1,.933-.327,1.439,1.439,0,0,1,.328.037c2.039.457,4.109.939,6.154,1.434a1.5,1.5,0,0,1,1.143,1.452v12.414c0,3.1-2.064,5.444-4.8,5.444Zm-192.2-2.546a1.491,1.491,0,0,1-1.489-1.619q2.53-29.095,5.067-58.165a1.5,1.5,0,0,1,1.2-1.341c3.652-.7,7.359-1.359,11.018-1.971a1.665,1.665,0,0,1,.247-.019,1.5,1.5,0,0,1,1.489,1.366l4.956,56.367a1.492,1.492,0,0,1-1.261,1.607c-2,.309-4.035.636-6.037.976a1.666,1.666,0,0,1-.247.019,1.467,1.467,0,0,1-.915-.315,1.5,1.5,0,0,1-.575-1.05l-.822-9.4c-1.366.235-2.744.488-4.122.742l-.865,10.233a1.49,1.49,0,0,1-1.211,1.341c-2.039.389-4.109.791-6.142,1.2A1.611,1.611,0,0,1,19.32,148.039Zm9.467-23.37c.735-.136,1.477-.266,2.225-.4L29.9,111.8ZM193.623,146.9a1.408,1.408,0,0,1-.278-.025c-2.039-.389-4.109-.766-6.154-1.125a1.492,1.492,0,0,1-1.236-1.471V87.113a1.5,1.5,0,0,1,1.5-1.5,1.23,1.23,0,0,1,.26.025c2.07.365,4.152.742,6.2,1.131a1.5,1.5,0,0,1,1.217,1.471v57.164a1.492,1.492,0,0,1-1.5,1.489Zm-13.576-2.4a4.725,4.725,0,0,1-.779-.062c-3.108-.488-6.253-.952-9.337-1.366-3-.408-5.438-3.479-5.438-6.84V123.811a1.49,1.49,0,0,1,1.5-1.5.936.936,0,0,1,.185.012c2.076.266,4.177.544,6.235.834a1.5,1.5,0,0,1,1.285,1.483v8.583c.754.105,1.5.216,2.249.327V118.126c-2-.3-4.023-.587-6.012-.859-3-.408-5.438-3.479-5.438-6.84V88.787a6.491,6.491,0,0,1,1.3-4.128,4.742,4.742,0,0,1,3.757-1.767,5.477,5.477,0,0,1,.772.056c3.127.426,6.284.89,9.4,1.378,3.071.482,5.388,3.473,5.388,6.964V103.3a1.489,1.489,0,0,1-.531,1.143,1.507,1.507,0,0,1-.964.352,1.111,1.111,0,0,1-.247-.019c-2.045-.34-4.122-.674-6.167-.982a1.5,1.5,0,0,1-1.273-1.477V94.126l-2.249-.334V107.43c2.014.29,4.041.593,6.043.908,3.022.476,5.388,3.565,5.388,7.044V138.82c0,3.188-2.231,5.685-5.073,5.685Zm-136.653-.674a1.5,1.5,0,0,1-1.5-1.5V85.16a1.491,1.491,0,0,1,1.273-1.477c2.064-.3,4.159-.6,6.229-.877.068-.006.13-.012.2-.012a1.5,1.5,0,0,1,1.5,1.5v48.105c1.878-.241,3.769-.476,5.654-.7.056,0,.117-.006.173-.006a1.492,1.492,0,0,1,1.5,1.5v7.347a1.491,1.491,0,0,1-1.322,1.483c-4.48.525-9.015,1.125-13.483,1.78a1.336,1.336,0,0,1-.216.019Zm11.339-7.78v-.266c-.074.006-.154.019-.229.025C54.517,135.811,54.671,135.971,54.733,136.039ZM47.417,87.193v-.278c-.08.012-.154.019-.235.031.08.08.154.161.235.247ZM60.06,141.675a1.493,1.493,0,0,1-1.489-1.5V83.016A1.5,1.5,0,0,1,59.9,81.527c2.058-.222,4.159-.439,6.247-.643.049,0,.093-.006.142-.006a1.492,1.492,0,0,1,1.007.389,1.507,1.507,0,0,1,.488,1.106v48.173c1.909-.173,3.831-.34,5.728-.494h.117a1.495,1.495,0,0,1,1.5,1.5v7.347a1.5,1.5,0,0,1-1.378,1.489c-4.486.358-9.04.785-13.526,1.279a1.451,1.451,0,0,1-.161.006Zm11.382-7.39v-.241c-.068,0-.136.012-.2.019C71.25,134.074,71.386,134.223,71.442,134.285ZM64.1,85.166v-.253c-.074.006-.142.012-.216.025C63.959,85.012,64.027,85.092,64.1,85.166Zm94.282,56.459c-.179,0-.358-.012-.544-.031-3.12-.34-6.278-.649-9.38-.915-3-.26-5.524-3.306-5.524-6.649V121.617a1.495,1.495,0,0,1,1.5-1.5h.117c2.07.161,4.177.34,6.253.531a1.5,1.5,0,0,1,1.359,1.489v8.521c.76.068,1.514.148,2.274.222V115.432c-1.984-.2-3.986-.389-5.975-.562-3.046-.266-5.524-3.25-5.524-6.649V86.581a6.607,6.607,0,0,1,1.372-4.251,4.957,4.957,0,0,1,3.9-1.817c.167,0,.34.012.507.025,3.133.272,6.309.581,9.442.921s5.481,3.25,5.481,6.772v12.006a1.492,1.492,0,0,1-1.5,1.5.816.816,0,0,1-.173-.012c-2.058-.241-4.146-.476-6.2-.686a1.5,1.5,0,0,1-1.341-1.489V91.419l-2.274-.222v13.656c2,.192,4.01.4,6,.612,3.022.327,5.481,3.4,5.481,6.853v23.438c0,3.287-2.311,5.864-5.258,5.864Zm-17-1.508c-2.008-.142-4.054-.272-6.087-.389a1.494,1.494,0,0,1-1.4-1.366l-.859-9.949q-2.1-.111-4.2-.2l-.847,9.726A1.5,1.5,0,0,1,126.5,139.3h-.056c-2.082-.08-4.177-.142-6.229-.192a1.512,1.512,0,0,1-1.081-.5.963.963,0,0,1-.1-.124.931.931,0,0,1-.13.142,1.5,1.5,0,0,1-1.044.426h-.031c-2.8-.049-5.648-.08-8.459-.08-1.705,0-3.4.012-5.11.031h-.019a1.5,1.5,0,0,1-1.5-1.5V80.346a1.5,1.5,0,0,1,1.477-1.5c1.718-.019,3.429-.031,5.147-.031H110.5a1.5,1.5,0,0,1,1.489,1.5v48.328c1.965.012,3.942.037,5.895.074a1.494,1.494,0,0,1,1.464,1.5v.686L123.9,80.47a1.492,1.492,0,0,1,1.489-1.359h.056c3.7.13,7.446.309,11.141.531a1.5,1.5,0,0,1,1.4,1.359q2.493,28.733,4.993,57.491a1.5,1.5,0,0,1-1.489,1.625h-.105Zm-25.706-7.483v-.142h-.124C115.6,132.542,115.635,132.591,115.679,132.635ZM129.8,117.916c.76.037,1.52.068,2.286.111L130.941,105.1,129.8,117.916ZM108.313,82.8v-.161h-.142C108.22,82.694,108.264,82.75,108.313,82.8ZM87.057,139.531a5.27,5.27,0,0,1-3.93-1.854,6.421,6.421,0,0,1-1.563-4.239V85.994c0-3.436,2.558-6.47,5.586-6.618,3.145-.154,6.334-.278,9.473-.365h.142c3.065,0,5.561,2.824,5.561,6.3V97.555a1.494,1.494,0,0,1-1.464,1.5c-2.07.037-4.165.093-6.229.161h-.049a1.478,1.478,0,0,1-1.038-.42,1.512,1.512,0,0,1-.457-1.075V89.461c-.76.025-1.526.056-2.286.093v39.473c.76-.031,1.52-.056,2.286-.086V120.5a1.5,1.5,0,0,1,1.446-1.5c2.082-.068,4.19-.124,6.272-.161h.031a1.487,1.487,0,0,1,1.489,1.489v12.414c0,3.448-2.521,6.321-5.623,6.408s-6.284.21-9.411.365c-.08,0-.161.006-.241.006Zm11.586-16.647V122.7h-.161C98.531,122.76,98.587,122.822,98.643,122.884Z" transform="translate(-0.925 -30.101)" fill="#fff"/>
  <path id="Path_8820" data-name="Path 8820" d="M67.207,83.3q-3.114.3-6.229.643V141.1q6.776-.742,13.57-1.285v-7.347q-3.67.287-7.341.643V83.3ZM4.84,150.88q3.059-.732,6.13-1.427v-26.7q3.235-.723,6.488-1.415V113.99q-3.244.686-6.488,1.409V99.635q4.607-1.038,9.219-1.977V90.311Q12.5,91.877,4.84,93.716V150.88ZM97.584,81.413q-4.718.13-9.442.365c-2.225.111-4.165,2.509-4.165,5.123v47.444c0,2.614,1.94,4.7,4.165,4.591q4.718-.232,9.442-.365c2.292-.068,4.171-2.3,4.171-4.919V121.238c-2.082.043-4.165.093-6.253.161v9.881c-1.761.056-3.516.124-5.277.2V89.02c1.761-.08,3.516-.148,5.277-.2v9.8q3.124-.1,6.253-.161V86.208c0-2.614-1.8-4.869-4.171-4.8ZM25.306,89.3q-2.54,29.067-5.067,58.165,3.077-.63,6.167-1.211.482-5.682.958-11.37,3.429-.64,6.865-1.223.482,5.515.964,11.024,3.022-.51,6.056-.976-2.484-28.2-4.956-56.367-5.5.908-10.98,1.965Zm2.744,38.107q1.372-15.9,2.744-31.78,1.372,15.4,2.75,30.791-2.753.473-5.493.982Zm22.474-42.2q-3.105.417-6.2.871v57.164q6.748-1,13.526-1.786v-7.347q-3.661.426-7.322.915V85.213Zm129.9,1.508q-4.681-.732-9.368-1.372c-2.484-.34-4.146,1.5-4.146,4.356v21.64c0,2.447,1.73,5.036,4.146,5.364q3.661.491,7.3,1.05V136.2q-2.614-.4-5.24-.766v-9.881q-3.105-.436-6.21-.828v12.414c0,2.614,1.934,5.061,4.146,5.364q4.69.64,9.368,1.372c2.274.352,4.128-1.539,4.128-4.152V116.288c0-2.614-1.786-5.2-4.128-5.567-2.435-.383-4.863-.742-7.3-1.088V92.974c1.749.241,3.491.5,5.24.766v9.473q3.1.473,6.192.989V92.2a5.349,5.349,0,0,0-4.128-5.487Zm7.953,58.486c2.058.365,4.122.735,6.173,1.131V89.168q-3.086-.584-6.173-1.125v57.164Zm27.38-34.332V98.622c0-2.614-1.767-5.326-4.084-5.858q-4.634-1.066-9.281-2.033c-2.187-.457-4.1,1.452-4.1,4.066v47.444c0,2.614,1.916,5.2,4.1,5.654q4.653.964,9.281,2.033c2.249.519,4.084-1.242,4.084-3.856V133.658q-3.059-.732-6.13-1.427v9.881q-2.586-.584-5.184-1.137V98.511q2.6.556,5.184,1.137v9.8q3.068.7,6.13,1.427ZM126.317,81.524q-2.567,28.492-5.141,57.009c2.082.049,4.165.117,6.247.192q.482-5.58.97-11.147c2.311.093,4.628.2,6.939.334q.491,5.617.97,11.246c2.033.117,4.072.247,6.105.389q-2.493-28.761-4.993-57.491-5.552-.334-11.1-.531Zm2.774,38.731q1.39-15.581,2.774-31.149,1.39,15.7,2.774,31.415C132.793,120.422,130.939,120.336,129.091,120.255ZM111.425,81.24c-2.082,0-4.165,0-6.253.031v57.164q6.8-.074,13.613.049v-7.347q-3.68-.074-7.366-.08V81.246Zm47.5,2.62q-4.7-.51-9.411-.921c-2.5-.216-4.159,1.7-4.159,4.554v21.64c0,2.453,1.73,4.95,4.159,5.16q3.67.315,7.335.7v18.457q-2.632-.269-5.265-.513v-9.881c-2.076-.192-4.159-.371-6.235-.531v12.414c0,2.614,1.94,4.968,4.159,5.16q4.709.408,9.411.921c2.28.247,4.146-1.736,4.146-4.35V113.23c0-2.614-1.792-5.11-4.146-5.37q-3.67-.4-7.335-.735V90.466q2.632.241,5.265.513v9.473c2.076.216,4.146.445,6.222.686V89.131c0-2.774-1.792-5.03-4.146-5.283Z" transform="translate(-1.849 -31.025)"/>
  <g id="Group_2516" data-name="Group 2516" transform="translate(31.063 19.967)">
    <path id="Path_8821" data-name="Path 8821" d="M199.461,53.4a1.473,1.473,0,0,1-.284-.025q-1.631-.26-3.256-.5a1.841,1.841,0,0,1-1.341-.945l-.266-.5a1.889,1.889,0,0,1-.408.507,1.823,1.823,0,0,1-1.2.445,1.223,1.223,0,0,1-.26-.019c-.976-.142-1.977-.278-2.923-.408a1.818,1.818,0,0,1-1-.482,1.863,1.863,0,0,1-.859.216c-.043,0-.192-.012-.235-.012-2.682-.352-4.647-.6-7.3-.908a1.77,1.77,0,0,1-1.013-.463,1.851,1.851,0,0,1-.89.229c-.037,0-.161-.006-.2-.012-2.688-.3-4.653-.507-7.3-.76a1.8,1.8,0,0,1-1.168-.581,1.821,1.821,0,0,1-1.088.358,1.345,1.345,0,0,1-.161-.006c-1-.093-2-.179-3-.266a1.816,1.816,0,0,1-1.656-1.557,1.787,1.787,0,0,1-.5.791,1.835,1.835,0,0,1-1.242.488,1.451,1.451,0,0,1-.167-.006c-.976-.074-1.99-.148-2.972-.216a1.838,1.838,0,0,1-1.7-1.823v-.365a7.286,7.286,0,0,1-5,1.872c-.161,0-.327,0-.488-.012a7.858,7.858,0,0,1-7.644-7.977,7.124,7.124,0,0,1,7.39-7.446c.154,0,.309,0,.463.012a7.9,7.9,0,0,1,5.277,2.36,1.81,1.81,0,0,1,.581-1.285,1.838,1.838,0,0,1,1.248-.494,1.618,1.618,0,0,1,.173.006c.945.068,1.971.142,2.978.216a1.84,1.84,0,0,1,1.668,1.557,1.854,1.854,0,0,1,.507-.8,1.811,1.811,0,0,1,1.242-.482h.117c1.044.087,2.051.179,3.059.266a1.846,1.846,0,0,1,1.186.581,1.808,1.808,0,0,1,1.088-.358,1.342,1.342,0,0,1,.161.006c2.682.26,4.517.451,7.217.754a1.847,1.847,0,0,1,1.094.525,1.845,1.845,0,0,1,.97-.278,1.5,1.5,0,0,1,.235.019c2.645.309,4.474.538,7.174.89a1.792,1.792,0,0,1,1.081.55,1.852,1.852,0,0,1,.939-.26c.049,0,.216.012.266.019,1.65.229,3.355.47,5.03.717a6.563,6.563,0,0,1,5.592,5.438,5.682,5.682,0,0,1-1.106,4.585l1.508,2.694a1.831,1.831,0,0,1,.235.9v.426a1.832,1.832,0,0,1-1.829,1.829ZM151.473,39.353c-.538,0-.828.414-.828,1.236,0,.494.241,1.452,1.156,1.514h.111c.476,0,.519-.167.562-.34a1.839,1.839,0,0,1,.6-.945,1.8,1.8,0,0,1-.606-.847c-.136-.4-.3-.581-.89-.612h-.111ZM57.005,52.7a6.538,6.538,0,0,1-6.735-6.877,8.652,8.652,0,0,1,7.44-8.6,8.5,8.5,0,0,1,1.18-.087A6.012,6.012,0,0,1,64.952,41.4c.655-1.514,1.316-3.028,1.971-4.536a1.843,1.843,0,0,1,1.452-1.088l1.273-.154c.037,0,.179-.012.216-.012a1.839,1.839,0,0,1,1.644,1.026q1.4,2.855,2.793,5.728V36.832a1.829,1.829,0,0,1,1.638-1.823l1.069-.111c.037,0,.154-.012.192-.012a1.833,1.833,0,0,1,1.2.451q1.39,1.214,2.787,2.441V36.2a1.82,1.82,0,0,1,1.668-1.823c1.007-.093,2.008-.179,3.022-.266h.154a1.831,1.831,0,0,1,1.829,1.835v4.77q1.372-3.077,2.744-6.148a1.833,1.833,0,0,1,1.545-1.081s1.378-.093,1.4-.093a1.842,1.842,0,0,1,1.65,1.038q1.409,2.938,2.812,5.876V34.972a1.835,1.835,0,0,1,1.73-1.829c1.458-.08,2.91-.154,4.369-.222h.334a7.1,7.1,0,0,1,4.566,1.489,1.817,1.817,0,0,1,1.767-1.743q2.827-.083,5.642-.148h0a1.836,1.836,0,0,1,1.866,1.829v2.564a1.842,1.842,0,0,1-1.353,1.767v2.75q1.854-4.041,3.72-8.076a1.827,1.827,0,0,1,1.65-1.063h1.285a1.825,1.825,0,0,1,1.662,1.05q1.409,3.022,2.812,6.049V34.224a1.8,1.8,0,0,1,.544-1.3,1.834,1.834,0,0,1,1.291-.531l1.094.012a1.807,1.807,0,0,1,1.267.525q1.363,1.344,2.725,2.694V34.385a1.858,1.858,0,0,1,.55-1.31,1.819,1.819,0,0,1,1.279-.519c.006,0,2.052.049,3.071.08a1.827,1.827,0,0,1,1.78,1.829V46a1.835,1.835,0,0,1-1.835,1.829l-1.106-.031a1.815,1.815,0,0,1-1.242-.538c-.9-.9-1.8-1.8-2.694-2.694v1.261a1.818,1.818,0,0,1-.55,1.3,1.8,1.8,0,0,1-1.279.525l-3.071-.037a1.749,1.749,0,0,1-.538-.087,1.908,1.908,0,0,1-.531.08c-.13,0-1.959-.006-2.886-.006a1.826,1.826,0,0,1-1.656-1.057l-.179-.389c-.735,0-1.477.006-2.212.012l-.192.408a1.827,1.827,0,0,1-1.637,1.057l-2.836.043a1.563,1.563,0,0,1-.3-.019,1.37,1.37,0,0,1-.278.025q-2.92.056-5.839.148h0a1.858,1.858,0,0,1-1.329-.513,1.877,1.877,0,0,1-.525-.97,7.7,7.7,0,0,1-4.647,1.736c-1.446.068-2.892.136-4.332.216h-.012a2.3,2.3,0,0,1-.519-.056,1.82,1.82,0,0,1-.55.117l-2.985.179a1.842,1.842,0,0,1-1.65-1.038l-.136-.284c-.735.049-1.477.1-2.212.154l-.229.507a1.83,1.83,0,0,1-1.532,1.069l-3.015.235a1.72,1.72,0,0,1-.358-.037,1.85,1.85,0,0,1-.544.136l-1.05.093s-.13.006-.161.006a1.833,1.833,0,0,1-1.217-.463c-.921-.816-1.835-1.631-2.756-2.447v1.607a1.831,1.831,0,0,1-1.65,1.823c-1.02.1-2.033.2-3.028.309-.037,0-.161.012-.192.012a1.72,1.72,0,0,1-.358-.037,1.735,1.735,0,0,1-.531.142c-.958.105-1.909.21-2.861.321-.037,0-.173.012-.21.012a1.852,1.852,0,0,1-1.644-1.02l-.1-.21c-.735.087-1.464.173-2.2.266l-.253.581a1.839,1.839,0,0,1-1.446,1.081l-2.855.371c-.043,0-.2.019-.241.019a1.845,1.845,0,0,1-1.2-.451,1.752,1.752,0,0,1-.185-.185,8.736,8.736,0,0,1-3.813,1.5,8.258,8.258,0,0,1-1.236.093Zm1.5-9.195a1.833,1.833,0,0,0-.26.019c-.8.117-1.285.8-1.285,1.817a1.3,1.3,0,0,0,.229.8.438.438,0,0,0,.389.161.6.6,0,0,0,.148-.012,1.075,1.075,0,0,0,1.026-.847,1.793,1.793,0,0,1,.6-.97,1.827,1.827,0,0,1-.587-.8.989.989,0,0,0-.08-.167h0a1.278,1.278,0,0,0-.173-.012ZM104.622,41.6a1.562,1.562,0,0,0,.494-1.248c-.006-.34-.087-.865-.494-1.032Z" transform="translate(-50.27 -32.29)"/>
    <path id="Path_8822" data-name="Path 8822" d="M199.946,53.031q-1.631-.26-3.263-.507a.825.825,0,0,1-.612-.433L194.3,48.78l-.154-.019v2.422a.829.829,0,0,1-.828.834.749.749,0,0,1-.117-.006c-.982-.142-1.977-.278-2.929-.408a.827.827,0,0,1-.717-.822V39.27a.829.829,0,0,1,.834-.834.672.672,0,0,1,.111.006c1.656.229,3.361.47,5.036.717a5.573,5.573,0,0,1,4.752,4.616,4.554,4.554,0,0,1-1.359,4.264l1.872,3.337a.853.853,0,0,1,.105.408v.426a.823.823,0,0,1-.29.63.838.838,0,0,1-.538.2.462.462,0,0,1-.13-.012Zm-4.406-8.36c.229,0,.26-.358.26-.377.019-.216-.043-.785-.519-.859-.377-.062-.754-.117-1.131-.173v1.2l1.39.2ZM57.614,52.339a5.517,5.517,0,0,1-5.734-5.883,7.663,7.663,0,0,1,6.581-7.607,7.332,7.332,0,0,1,1.038-.074,4.99,4.99,0,0,1,5.289,4.4.835.835,0,0,1-.161.624.81.81,0,0,1-.556.321c-.995.136-1.878.253-2.88.4-.037,0-.074.006-.111.006a.828.828,0,0,1-.779-.544,1.112,1.112,0,0,0-1.193-.834,3.179,3.179,0,0,0-.408.031,2.6,2.6,0,0,0-2.138,2.805,2.252,2.252,0,0,0,.463,1.446,1.44,1.44,0,0,0,1.149.513,2.269,2.269,0,0,0,.284-.019,2.116,2.116,0,0,0,1.86-1.594.823.823,0,0,1,.692-.624c.982-.136,1.885-.26,2.886-.4.037,0,.074-.006.111-.006a.838.838,0,0,1,.587.241.8.8,0,0,1,.241.643q1.8-4.152,3.6-8.286A.834.834,0,0,1,69.1,37.4l1.267-.154h.1a.838.838,0,0,1,.748.463q2.345,4.8,4.69,9.621V37.472a.831.831,0,0,1,.748-.828l1.069-.111h.087a.852.852,0,0,1,.55.2q2.215,1.937,4.443,3.905V36.848a.828.828,0,0,1,.754-.828c1.007-.093,2.008-.179,3.015-.266h.068a.851.851,0,0,1,.562.216.833.833,0,0,1,.266.612v9.46q2.326-5.228,4.653-10.437a.828.828,0,0,1,.7-.488s1.3-.087,1.322-.087a.831.831,0,0,1,.748.476q2.354,4.922,4.709,9.862V35.625a.828.828,0,0,1,.785-.828q2.178-.121,4.356-.222h.3a6.03,6.03,0,0,1,6.2,6.192,7.407,7.407,0,0,1-.426,2.639.845.845,0,0,1,.457-.154l.661-.019v-4.7l-.519.019a.856.856,0,0,1-.581-.235.831.831,0,0,1-.253-.6V35.149a.837.837,0,0,1,.8-.834q2.818-.083,5.629-.142h.019a.833.833,0,0,1,.828.834v2.564a.839.839,0,0,1-.816.834l-.538.012v4.7l.636-.012a.824.824,0,0,1,.581.241.794.794,0,0,1,.185.266q2.113-4.6,4.22-9.176a.83.83,0,0,1,.748-.482l1.279-.006a.829.829,0,0,1,.754.482q2.354,5.07,4.715,10.159V34.9a.833.833,0,0,1,.834-.834l1.081.012a.809.809,0,0,1,.575.241q2.215,2.178,4.424,4.381v-3.64a.828.828,0,0,1,.253-.593.818.818,0,0,1,.581-.235c.006,0,2.033.049,3.04.08a.834.834,0,0,1,.809.834v11.53a.833.833,0,0,1-.834.834l-1.081-.031a.8.8,0,0,1-.562-.241q-2.2-2.206-4.4-4.387v3.664a.833.833,0,0,1-.828.834l-3.059-.037a.82.82,0,0,0-1.075-.006s-1.928-.006-2.886-.006a.829.829,0,0,1-.754-.482l-.451-.97c-1.162,0-2.323.012-3.491.019l-.457.976a.841.841,0,0,1-.748.482c-.964.012-2.892.043-2.9.043a.763.763,0,0,1-.26-.043.786.786,0,0,1-.272.049c-1.946.037-3.9.087-5.846.148H111.3a.856.856,0,0,1-.581-.235.831.831,0,0,1-.253-.6V44.238a6.408,6.408,0,0,1-5.66,3.535c-1.446.068-2.9.136-4.344.216h-.043a.824.824,0,0,1-.507-.173.813.813,0,0,1-.531.235l-2.929.173a.825.825,0,0,1-.748-.47l-.433-.9c-1.162.074-2.323.161-3.485.241l-.476,1.05a.829.829,0,0,1-.692.488c-.958.074-2.923.229-2.941.229a.855.855,0,0,1-.47-.142.84.84,0,0,1-.525.247l-1.05.093h-.074a.814.814,0,0,1-.55-.21q-2.215-1.965-4.418-3.918v3.819a.831.831,0,0,1-.748.828c-1.02.1-2.033.2-3.034.309H76.72a.833.833,0,0,1-.476-.148.838.838,0,0,1-.519.26c-.958.105-1.916.21-2.867.321h-.093a.838.838,0,0,1-.748-.463l-.414-.84q-1.733.2-3.467.42l-.482,1.1a.83.83,0,0,1-.655.488c-.952.124-1.909.247-2.861.377-.037,0-.074.006-.111.006a.852.852,0,0,1-.55-.2.835.835,0,0,1-.284-.624v-.426a.826.826,0,0,1,.037-.247,7.534,7.534,0,0,1-4.554,2.373,7.217,7.217,0,0,1-1.088.08Zm46.616-8.917.531-.025a2.171,2.171,0,0,0,1.965-2.428,1.861,1.861,0,0,0-1.786-2.058l-.711.031v4.486Zm83.938,7.9c-2.682-.352-4.647-.6-7.3-.908a.83.83,0,0,1-.735-.828V38.078a.83.83,0,0,1,.828-.834h.1c2.663.309,4.486.538,7.18.89a.832.832,0,0,1,.723.822v2.632a.825.825,0,0,1-.284.624.816.816,0,0,1-.531.2.823.823,0,0,1,.47.748v2.614a.829.829,0,0,1-.834.828.671.671,0,0,1-.111-.006c-.989-.13-1.971-.253-2.96-.377v.346c1.279.161,2.212.278,3.67.47a.834.834,0,0,1,.723.828v2.614a.829.829,0,0,1-.834.828.671.671,0,0,1-.111-.006Zm-9.417-1.149c-2.688-.3-4.659-.507-7.316-.76a.837.837,0,0,1-.754-.828V37.077a.842.842,0,0,1,.272-.618.821.821,0,0,1,.562-.216h.08c2.669.26,4.492.451,7.193.748a.835.835,0,0,1,.742.828v2.632a.816.816,0,0,1-.278.618.842.842,0,0,1-.556.21h0a.827.827,0,0,1,.488.76v2.62a.816.816,0,0,1-.278.618.842.842,0,0,1-.556.21h-.093c-.995-.111-1.99-.216-2.985-.321v.346c1.273.136,2.206.235,3.664.4a.835.835,0,0,1,.742.828v2.614a.816.816,0,0,1-.278.618.842.842,0,0,1-.556.21h-.093Zm-9.745-.989c-1-.093-2-.179-3-.266a.828.828,0,0,1-.76-.828V44.238c-.63-.056-1.261-.105-1.891-.154V47.8a.857.857,0,0,1-.266.612.839.839,0,0,1-.562.222h-.062c-1-.08-2.021-.154-3.009-.222a.835.835,0,0,1-.772-.828V36.076a.833.833,0,0,1,.266-.606.843.843,0,0,1,.569-.222h.056c.989.068,2.014.142,3.022.222a.829.829,0,0,1,.766.828v3.411c.63.049,1.261.1,1.891.154V36.589a.821.821,0,0,1,.828-.828h.068c1.007.087,2.008.173,3.015.266a.833.833,0,0,1,.76.828V48.366a.842.842,0,0,1-.272.618.821.821,0,0,1-.562.216h-.074Zm-16.325-1.094c-.142,0-.29,0-.433-.012a6.888,6.888,0,0,1-6.7-6.989,6.163,6.163,0,0,1,6.389-6.445c.136,0,.272,0,.408.012a6.375,6.375,0,0,1,6.2,5.419.81.81,0,0,1-.216.68.823.823,0,0,1-.612.266c-.019,0-1.946-.124-2.947-.185a.834.834,0,0,1-.735-.556A1.766,1.766,0,0,0,152.249,39h-.142c-1.366,0-1.848,1.149-1.854,2.225a2.354,2.354,0,0,0,2.089,2.509h.148a1.421,1.421,0,0,0,1.563-1.088.831.831,0,0,1,.8-.624c.019,0,1.946.117,2.954.185a.831.831,0,0,1,.587.3.819.819,0,0,1,.179.636c-.482,3.646-3.368,4.943-5.907,4.943Z" transform="translate(-50.885 -32.924)" fill="#fff"/>
    <path id="Path_8823" data-name="Path 8823" d="M59.1,49.246a2.514,2.514,0,0,1-2.849-2.768A3.424,3.424,0,0,1,59.1,42.85a2.047,2.047,0,0,1,2.5,1.335c1-.142,1.885-.26,2.886-.4-.445-3.015-3.015-3.967-5.388-3.621a6.8,6.8,0,0,0-5.87,6.779c.019,3.911,2.96,5.419,5.87,4.98a6.1,6.1,0,0,0,5.438-5.3c-1,.136-1.9.26-2.886.4A2.927,2.927,0,0,1,59.1,49.252ZM69.735,38.729q-2.586,5.932-5.166,11.895v.426c.958-.13,1.909-.253,2.867-.377.222-.513.451-1.02.674-1.532,1.508-.192,3.015-.371,4.529-.55.222.457.451.915.674,1.372.958-.111,1.916-.216,2.873-.321v-.426Q73.59,43.876,71,38.574C70.575,38.624,70.155,38.673,69.735,38.729Zm-.674,7.78q.649-1.594,1.3-3.182c.445.958.884,1.909,1.329,2.867Zm15.09-3.528Q81.24,40.4,78.33,37.858l-1.069.111V49.53c1-.105,2.021-.21,3.04-.315v-5.66q2.9,2.549,5.8,5.135l1.05-.093V37.067c-1.007.087-2.008.173-3.009.266v5.642Zm9.256-6.544q-2.6,5.8-5.184,11.629v.426c.958-.08,1.922-.154,2.88-.229.222-.5.451-1,.674-1.5q2.271-.167,4.542-.315c.222.47.451.933.674,1.4.958-.062,1.922-.117,2.886-.173V47.25q-2.6-5.469-5.2-10.906c-.42.031-.847.056-1.267.087Zm-.674,7.743c.433-1.038.865-2.082,1.3-3.12q.667,1.464,1.335,2.935C94.489,44.055,93.611,44.111,92.734,44.179Zm12.587-8.292c-1.452.068-2.9.142-4.35.222V47.621c1.452-.08,2.9-.154,4.35-.222C112.841,47.058,112.841,35.615,105.321,35.886Zm0,8.83c-.47.019-.933.043-1.4.068V38.636c.47-.025.933-.043,1.4-.068C109,38.408,109,44.562,105.321,44.717Zm10.912-6.636c.451-.012.9-.019,1.353-.031V35.485c-1.872.037-3.751.087-5.623.142v2.564c.451-.012.9-.031,1.353-.043v6.365c-.488.012-.976.031-1.471.043v2.583q2.929-.093,5.858-.148V44.408c-.488.012-.976.019-1.471.031V38.074Zm7.211-2.824q-2.6,5.635-5.2,11.3v.426c.964-.019,1.922-.031,2.886-.043.222-.488.451-.97.674-1.458,1.52-.019,3.034-.025,4.554-.025.222.482.451.964.68,1.446.964,0,1.922,0,2.886.012V46.49q-2.6-5.635-5.215-11.24c-.42,0-.847,0-1.267.006Zm-.674,7.7c.433-1.013.871-2.027,1.3-3.034l1.335,3.022c-.877,0-1.761.006-2.639.019Zm15.158-1.8q-2.92-2.91-5.839-5.79c-.358,0-.717-.006-1.069-.012V46.916c1.007.006,2.033.019,3.053.037v-5.66q2.91,2.883,5.821,5.8c.352.012.7.019,1.057.031V35.59c-1.007-.031-2.014-.056-3.015-.08v5.642Zm14.886,3.887a3.179,3.179,0,0,1-2.867-3.337c0-1.9,1.137-3.151,2.867-3.059a2.594,2.594,0,0,1,2.521,1.841c1.007.062,1.891.117,2.9.185a5.519,5.519,0,0,0-5.419-4.7,5.378,5.378,0,0,0-5.92,5.6,6.035,6.035,0,0,0,5.92,6.161c2.453.136,5.042-.982,5.469-4.208-1-.068-1.909-.124-2.9-.185a2.3,2.3,0,0,1-2.571,1.712Zm13.78-3.806c-1.186-.1-2.367-.2-3.553-.284V36.776c-1-.08-2.027-.154-3.015-.222V48.066c.989.068,2.008.142,3.015.222V43.666q1.78.139,3.553.284v4.622c1,.086,2.008.173,3.009.266V37.326c-1-.093-2-.179-3.009-.266Zm8.373,3.479c1.3.136,2.608.272,3.911.42V42.523q-1.956-.213-3.911-.42V40.471c1.693.173,2.546.266,4.251.457V38.3c-2.694-.3-4.517-.488-7.18-.748V49.061c2.663.26,4.634.463,7.329.76V47.207c-1.724-.192-2.713-.3-4.4-.47V44.717Zm9.442,1.063q1.956.241,3.9.494V43.66c-1.3-.173-2.6-.334-3.9-.494V41.534c1.693.21,2.546.315,4.245.544V39.446c-2.688-.352-4.511-.581-7.168-.89V50.068c2.657.315,4.628.556,7.316.908V48.362c-1.718-.229-2.706-.352-4.393-.562V45.779Zm13.946,2.484c2.892-1.52,2.076-7.106-2.422-7.8-1.668-.247-3.368-.488-5.024-.717V51.26c.952.13,1.946.272,2.929.414V48.288l1.52.222q.982,1.835,1.965,3.683c1.088.167,2.181.334,3.269.507v-.426q-1.122-2-2.237-4Zm-2.422-2.286c-.7-.105-1.4-.2-2.095-.3v-2.88c.686.1,1.409.185,2.095.3C197.6,43.363,197.521,46.212,195.933,45.977Z" transform="translate(-51.401 -33.421)"/>
  </g>
</svg>
