<svg xmlns="http://www.w3.org/2000/svg" width="28.836" height="28.835" viewBox="0 0 28.836 28.835">
  <path id="_63c118f79e248bfb4869c3ae_Top-bar-social-04" data-name="63c118f79e248bfb4869c3ae_Top-bar-social-04" d="M26.85,0H2.785A2.352,2.352,0,0,0,.321,2.246V26.365a2.537,2.537,0,0,0,2.464,2.471H26.843a2.408,2.408,0,0,0,2.313-2.471V2.246A2.211,2.211,0,0,0,26.85,0ZM9.259,24.036H5.128V11.192H9.259ZM7.337,9.239h-.03A2.12,2.12,0,0,1,5.129,7.023a2.133,2.133,0,0,1,2.23-2.215A2.128,2.128,0,0,1,9.568,7.023,2.134,2.134,0,0,1,7.337,9.239Zm17.02,14.8H20.226V17.013c0-1.682-.6-2.832-2.1-2.832a2.259,2.259,0,0,0-2.118,1.525,2.782,2.782,0,0,0-.143,1.014v7.316H11.738V11.192h4.131v1.787a4.183,4.183,0,0,1,3.725-2.088c2.712,0,4.763,1.787,4.763,5.641Z" transform="translate(-0.321)" fill="#fff"/>
</svg>
