<svg id="_63c118f76f20f4368225684c_Top-bar-social-01" data-name="63c118f76f20f4368225684c_Top-bar-social-01" xmlns="http://www.w3.org/2000/svg" width="29.509" height="28.396" viewBox="0 0 29.509 28.396">
  <path id="Path_8708" data-name="Path 8708" d="M20.9,2.366A6.291,6.291,0,0,1,25.244,4.1,5.823,5.823,0,0,1,27.05,8.282V20.114a5.823,5.823,0,0,1-1.806,4.178A6.29,6.29,0,0,1,20.9,26.03H8.607a6.29,6.29,0,0,1-4.342-1.738,5.823,5.823,0,0,1-1.806-4.178V8.282A5.823,5.823,0,0,1,4.265,4.1,6.291,6.291,0,0,1,8.607,2.366ZM20.9,0H8.607A8.474,8.474,0,0,0,0,8.282V20.114A8.474,8.474,0,0,0,8.607,28.4H20.9a8.474,8.474,0,0,0,8.607-8.282V8.282A8.474,8.474,0,0,0,20.9,0Z" transform="translate(0 0)" fill="#fff"/>
  <path id="Path_8709" data-name="Path 8709" d="M19.4,6.135a1.9,1.9,0,0,1-1.025-.3,1.793,1.793,0,0,1-.679-.8,1.713,1.713,0,0,1-.1-1.025,1.755,1.755,0,0,1,.5-.909,1.868,1.868,0,0,1,.944-.486,1.911,1.911,0,0,1,1.066.1,1.831,1.831,0,0,1,.828.654A1.723,1.723,0,0,1,21.1,5.04a1.767,1.767,0,0,1-.4.576,1.848,1.848,0,0,1-.6.385A1.9,1.9,0,0,1,19.4,6.135ZM11.407,7.318a5.057,5.057,0,0,1,2.733.8,4.777,4.777,0,0,1,1.812,2.124,4.569,4.569,0,0,1,.28,2.735A4.681,4.681,0,0,1,14.885,15.4a4.98,4.98,0,0,1-2.518,1.3,5.1,5.1,0,0,1-2.842-.269A4.882,4.882,0,0,1,7.317,14.68a4.594,4.594,0,0,1,.613-5.975A5.023,5.023,0,0,1,11.407,7.318Zm0-2.366a7.585,7.585,0,0,0-4.1,1.2A7.165,7.165,0,0,0,4.591,9.334a6.851,6.851,0,0,0-.42,4.1A7.02,7.02,0,0,0,6.19,17.07a7.471,7.471,0,0,0,3.777,1.943,7.646,7.646,0,0,0,4.262-.4,7.324,7.324,0,0,0,3.311-2.615,6.9,6.9,0,0,0-.918-8.964A7.526,7.526,0,0,0,11.407,4.952Z" transform="translate(3.348 2.148)" fill="#fff"/>
</svg>
