<svg xmlns="http://www.w3.org/2000/svg" width="14.234" height="14.233" viewBox="0 0 14.234 14.233">
  <path id="_63c118f70d96687acad8efe9_Top-Bar-01" data-name="63c118f70d96687acad8efe9_Top-Bar-01" d="M1.638,2.125s-.033.036-.077.079a1.562,1.562,0,0,0-.519,1.213c-.006.994.648,2.838,3.794,5.984,3.131,3.13,4.973,3.791,5.969,3.791h.015a1.566,1.566,0,0,0,1.213-.519c.05-.051.09-.089.119-.112.692-.7,1.046-1.214,1.042-1.546s-.426-.739-1.009-1.293c-.185-.176-.387-.368-.6-.58-.551-.549-.824-.455-1.423-.244-.83.291-1.968.687-3.737-1.083S5.048,4.905,5.339,4.076c.21-.6.305-.873-.246-1.425-.216-.215-.41-.419-.588-.607-.551-.579-.948-1-1.284-1H3.215c-.333,0-.849.355-1.58,1.087ZM10.8,14.233c-1.73,0-3.986-1.378-6.706-4.1S-.01,5.146,0,3.412A2.586,2.586,0,0,1,.833,1.46c.012-.015.052-.054.066-.068,1-1,1.667-1.4,2.335-1.391.776.011,1.328.591,2.026,1.326.173.182.36.38.569.588a2.054,2.054,0,0,1,.493,2.5c-.253.724-.471,1.349.838,2.658S9.1,8.168,9.817,7.913a2.053,2.053,0,0,1,2.5.492c.205.206.4.391.58.562.739.7,1.322,1.257,1.332,2.034.008.663-.394,1.339-1.389,2.333l-.44-.3.372.364a2.584,2.584,0,0,1-1.952.833Z" fill="#f13742" fill-rule="evenodd"/>
</svg>
