<svg xmlns="http://www.w3.org/2000/svg" width="14.299" height="16.899" viewBox="0 0 14.299 16.899">
  <path id="_63c118f78ac2947e11f5ad1c_Top-Bar-03" data-name="63c118f78ac2947e11f5ad1c_Top-Bar-03" d="M7.566,1a7.185,7.185,0,0,1,7.15,7.2c0,4.883-5.595,9.7-7.15,9.7S.417,13.086.417,8.2A7.185,7.185,0,0,1,7.566,1Zm0,1.3a5.884,5.884,0,0,0-5.85,5.9c0,4.142,4.874,8.177,5.85,8.392.976-.216,5.85-4.251,5.85-8.392A5.884,5.884,0,0,0,7.566,2.3Zm0,3.033A2.817,2.817,0,1,1,4.751,8.149,2.82,2.82,0,0,1,7.567,5.331Zm0,1.3A1.517,1.517,0,1,0,9.084,8.149,1.518,1.518,0,0,0,7.567,6.631Z" transform="translate(-0.417 -0.998)" fill="#f13742" fill-rule="evenodd"/>
</svg>
