<svg xmlns="http://www.w3.org/2000/svg" width="16.427" height="14.899" viewBox="0 0 16.427 14.899">
  <path id="_63c118f7535022847303ebef_Top-Bar-02" data-name="63c118f7535022847303ebef_Top-Bar-02" d="M12.067,0A4.554,4.554,0,0,1,16.53,4.829v5.248a5,5,0,0,1-1.4,3.585A4.224,4.224,0,0,1,12.079,14.9H4.551a4.221,4.221,0,0,1-3.045-1.238A5,5,0,0,1,.1,10.076V4.829A4.554,4.554,0,0,1,4.565,0Zm0,1.146h-7.5A3.4,3.4,0,0,0,1.249,4.829v5.248a3.86,3.86,0,0,0,1.067,2.773,3.1,3.1,0,0,0,2.238.9h7.514s.008,0,.012,0a3.094,3.094,0,0,0,2.238-.9,3.857,3.857,0,0,0,1.067-2.773V4.829A3.4,3.4,0,0,0,12.067,1.146Zm1.2,3.537a.574.574,0,0,1-.083.806l-3.4,2.76a2.324,2.324,0,0,1-2.9,0L3.463,5.49A.573.573,0,1,1,4.182,4.6l3.424,2.76a1.18,1.18,0,0,0,1.469,0L12.464,4.6A.572.572,0,0,1,13.271,4.683Z" transform="translate(-0.103)" fill="#f13742" fill-rule="evenodd"/>
</svg>
