<svg xmlns="http://www.w3.org/2000/svg" width="586.405" height="191.186" viewBox="0 0 586.405 191.186">
  <g id="Group_2380" data-name="Group 2380" transform="translate(-1795 -89.435)">
    <g id="Group_474" data-name="Group 474" transform="translate(1795 89.435)">
      <g id="Group_409" data-name="Group 409" transform="translate(0.263)">
        <path id="Path_441" data-name="Path 441" d="M361.239,201.252a35.262,35.262,0,0,1,7.178,3.76q3.007,1.916,4.65,1.915a2.111,2.111,0,0,0,1.913-1.436,16.384,16.384,0,0,0,1.094-4.58h3.144q-.686,7.932-.684,27.892h-3.144q-.821-11.075-6.358-18.664t-16.065-7.588a16.7,16.7,0,0,0-12.033,4.444,15.1,15.1,0,0,0-4.648,11.417,16.67,16.67,0,0,0,2.392,9.025A23.773,23.773,0,0,0,344.764,234q3.691,2.737,10.527,6.974l3.965,2.461a137.655,137.655,0,0,1,13.6,9.366,33.329,33.329,0,0,1,8,9.23,23.87,23.87,0,0,1,3.008,12.169q0,12.442-8.2,19.211t-20.783,6.768a35.175,35.175,0,0,1-10.733-1.367,38.323,38.323,0,0,1-8-3.691q-3.007-1.914-4.648-1.915a2.109,2.109,0,0,0-1.913,1.436,16.27,16.27,0,0,0-1.094,4.58h-3.146q.546-7.517.547-32.815h3.146q.954,13.812,6.836,22.424t18.048,8.614a18.357,18.357,0,0,0,12.579-4.58q5.2-4.579,5.2-13.6a18.042,18.042,0,0,0-5.127-12.989q-5.128-5.333-16.2-12.033a151.554,151.554,0,0,1-13.058-8.751,31.42,31.42,0,0,1-8.135-9.23,24.66,24.66,0,0,1-3.144-12.647q0-11.486,7.383-17.569t18.321-6.084A28.041,28.041,0,0,1,361.239,201.252Z" transform="translate(-325.347 -199.954)" fill="#fff"/>
        <path id="Path_442" data-name="Path 442" d="M416.164,258.755v24.611q0,5.2,1.095,7.521a5.829,5.829,0,0,0,3.828,3.144,40.377,40.377,0,0,0,8.888,1.093v2.735q-7.112-.409-20.1-.411-11.763,0-17.5.411v-2.735a27.192,27.192,0,0,0,7.178-1.093,4.912,4.912,0,0,0,3.076-3.144,24.67,24.67,0,0,0,.822-7.521V215.548a24.684,24.684,0,0,0-.822-7.52,4.915,4.915,0,0,0-3.076-3.144,27.288,27.288,0,0,0-7.178-1.095v-2.734q5.744.409,16.681.409l14.768-.137q2.6-.135,5.879-.136,16,0,24.475,7.315t8.476,19.62a32.652,32.652,0,0,1-3.349,14.425q-3.353,6.9-11.349,11.554t-21.261,4.648Zm3.761-54.007a5.409,5.409,0,0,0-2.941,3.417,24.884,24.884,0,0,0-.82,7.383V256.02h9.161q13.4,0,18.526-7.177t5.128-19.211q0-13.261-5.265-19.552t-17.433-6.29A16.165,16.165,0,0,0,419.925,204.748Z" transform="translate(-300.902 -199.552)" fill="#fff"/>
        <path id="Path_443" data-name="Path 443" d="M500.877,203.789a27.28,27.28,0,0,0-7.177,1.095,4.917,4.917,0,0,0-3.077,3.144,24.7,24.7,0,0,0-.82,7.52v67.818a24.684,24.684,0,0,0,.82,7.521,4.712,4.712,0,0,0,3.077,3.076,24.679,24.679,0,0,0,7.177.752h9.981q8.477,0,12.921-2.394a14.122,14.122,0,0,0,6.495-7.724q2.051-5.333,3.008-15.45h3.144q-.409,4.24-.41,11.211,0,7.793.957,17.5-9.3-.409-31.311-.411-26.252,0-39.652.411v-2.735a27.2,27.2,0,0,0,7.178-1.093,4.913,4.913,0,0,0,3.076-3.144,24.682,24.682,0,0,0,.82-7.521V215.548a24.7,24.7,0,0,0-.82-7.52,4.915,4.915,0,0,0-3.076-3.144,27.292,27.292,0,0,0-7.178-1.095v-2.734q5.744.409,17.5.409,10.937,0,17.365-.409Z" transform="translate(-274.045 -199.552)" fill="#fff"/>
        <path id="Path_444" data-name="Path 444" d="M622.957,295.307v2.735q-5.47-.41-14.629-.411-11.761,0-17.5.411v-2.735a22.3,22.3,0,0,0,7.451-1.3,3.762,3.762,0,0,0,2.256-3.76,18.813,18.813,0,0,0-1.64-6.426L590.552,261.4H557.465l-5.606,14.493q-2.736,7.382-2.735,11.211,0,4.24,2.94,6.152t8.957,2.051v2.735q-7.8-.41-15.725-.411-6.153,0-10.254.411v-2.735q6.835-1.64,10.8-11.895l32.131-82.857h2.188l33.362,86Q616.8,295.037,622.957,295.307Zm-33.5-36.643-15.313-40.883-15.588,40.883Z" transform="translate(-248.869 -199.735)" fill="#fff"/>
        <path id="Path_445" data-name="Path 445" d="M656.093,201.252a35.331,35.331,0,0,1,7.177,3.76q3,1.916,4.647,1.915a2.112,2.112,0,0,0,1.916-1.436,16.379,16.379,0,0,0,1.094-4.58h3.143q-.686,7.932-.682,27.892h-3.144q-.821-11.075-6.36-18.664t-16.064-7.588a16.7,16.7,0,0,0-12.032,4.444,15.1,15.1,0,0,0-4.65,11.417,16.656,16.656,0,0,0,2.394,9.025A23.742,23.742,0,0,0,639.616,234q3.691,2.737,10.529,6.974l3.964,2.461a137.41,137.41,0,0,1,13.6,9.366,33.313,33.313,0,0,1,8,9.23A23.886,23.886,0,0,1,678.72,274.2q0,12.442-8.2,19.211t-20.782,6.768A35.147,35.147,0,0,1,639,298.808a38.275,38.275,0,0,1-8-3.691q-3.009-1.914-4.648-1.915a2.11,2.11,0,0,0-1.915,1.436,16.319,16.319,0,0,0-1.095,4.58H620.2q.544-7.517.547-32.815h3.144q.956,13.812,6.836,22.424t18.05,8.614a18.362,18.362,0,0,0,12.58-4.58q5.194-4.579,5.194-13.6a18.042,18.042,0,0,0-5.127-12.989q-5.126-5.333-16.2-12.033a151.564,151.564,0,0,1-13.057-8.751,31.424,31.424,0,0,1-8.135-9.23,24.647,24.647,0,0,1-3.146-12.647q0-11.486,7.383-17.569t18.322-6.084A28.06,28.06,0,0,1,656.093,201.252Z" transform="translate(-217.81 -199.954)" fill="#fff"/>
        <path id="Path_446" data-name="Path 446" d="M772.066,204.884a4.919,4.919,0,0,0-3.077,3.144,24.73,24.73,0,0,0-.819,7.52v67.818a24.715,24.715,0,0,0,.819,7.521,4.916,4.916,0,0,0,3.077,3.144,27.191,27.191,0,0,0,7.178,1.093v2.735q-5.743-.409-17.5-.411-11.075,0-17.366.411v-2.735a27.206,27.206,0,0,0,7.18-1.093,4.907,4.907,0,0,0,3.075-3.144,24.673,24.673,0,0,0,.821-7.521V250.551H711.016v32.815a24.667,24.667,0,0,0,.822,7.521,4.915,4.915,0,0,0,3.076,3.144,27.193,27.193,0,0,0,7.179,1.093v2.735q-6.291-.409-17.365-.411-11.761,0-17.5.411v-2.735a27.218,27.218,0,0,0,7.178-1.093,4.916,4.916,0,0,0,3.076-3.144,24.687,24.687,0,0,0,.82-7.521V215.548a24.7,24.7,0,0,0-.82-7.52,4.918,4.918,0,0,0-3.076-3.144,27.314,27.314,0,0,0-7.178-1.095v-2.734q5.742.409,17.5.409,10.936,0,17.365-.409v2.734a27.289,27.289,0,0,0-7.179,1.095,4.918,4.918,0,0,0-3.076,3.144,24.681,24.681,0,0,0-.822,7.52v32.269h44.438V215.548a24.687,24.687,0,0,0-.821-7.52,4.91,4.91,0,0,0-3.075-3.144,27.3,27.3,0,0,0-7.18-1.095v-2.734q6.288.409,17.366.409,11.756,0,17.5-.409v2.734A27.287,27.287,0,0,0,772.066,204.884Z" transform="translate(-193.365 -199.552)" fill="#fff"/>
      </g>
      <path id="Path_8720" data-name="Path 8720" d="M0,0H586.4V62.9H0Z" transform="translate(0 128.283)" fill="#f13742"/>
    </g>
    <g id="Group_475" data-name="Group 475" transform="translate(1819.813 237.832)">
      <path id="Path_447" data-name="Path 447" d="M351.826,309.072a8.3,8.3,0,0,1,1.7.889,2.324,2.324,0,0,0,1.1.453.5.5,0,0,0,.452-.34,3.889,3.889,0,0,0,.259-1.082h.744q-.162,1.875-.161,6.6h-.745a8.375,8.375,0,0,0-1.5-4.414,4.412,4.412,0,0,0-3.8-1.794,3.946,3.946,0,0,0-2.845,1.051,3.567,3.567,0,0,0-1.1,2.7,3.945,3.945,0,0,0,.565,2.135,5.649,5.649,0,0,0,1.44,1.551q.872.649,2.49,1.65l.939.581a32.619,32.619,0,0,1,3.217,2.216,7.853,7.853,0,0,1,1.891,2.182,5.635,5.635,0,0,1,.711,2.878,5.558,5.558,0,0,1-1.939,4.542,7.469,7.469,0,0,1-4.916,1.6,8.317,8.317,0,0,1-2.538-.323,9.134,9.134,0,0,1-1.891-.872,2.339,2.339,0,0,0-1.1-.453.5.5,0,0,0-.453.339,3.922,3.922,0,0,0-.259,1.085h-.744q.129-1.779.13-7.761h.744a10.552,10.552,0,0,0,1.617,5.3,4.81,4.81,0,0,0,4.267,2.038,4.337,4.337,0,0,0,2.975-1.085,4.061,4.061,0,0,0,1.23-3.217,4.27,4.27,0,0,0-1.213-3.072,19.383,19.383,0,0,0-3.832-2.845,35.92,35.92,0,0,1-3.088-2.069,7.469,7.469,0,0,1-1.923-2.182,5.836,5.836,0,0,1-.744-2.993,5.075,5.075,0,0,1,1.745-4.154,7.563,7.563,0,0,1,6.581-1.131Z" transform="translate(-343.337 -308.668)" fill="#111"/>
      <path id="Path_448" data-name="Path 448" d="M378.321,322.67v5.82a4.449,4.449,0,0,0,.259,1.778,1.373,1.373,0,0,0,.9.744,9.511,9.511,0,0,0,2.1.258v.648q-1.683-.1-4.753-.1-2.782,0-4.139.1v-.648a6.408,6.408,0,0,0,1.7-.258,1.155,1.155,0,0,0,.727-.744,5.817,5.817,0,0,0,.2-1.778V312.452a5.84,5.84,0,0,0-.2-1.78,1.159,1.159,0,0,0-.727-.742,6.45,6.45,0,0,0-1.7-.259v-.647q1.359.1,3.946.1l3.492-.031c.408-.022.874-.033,1.389-.033a8.616,8.616,0,0,1,5.789,1.73,5.819,5.819,0,0,1,2,4.64,7.729,7.729,0,0,1-.792,3.412,6.464,6.464,0,0,1-2.684,2.731,9.952,9.952,0,0,1-5.029,1.1Zm.89-12.772a1.278,1.278,0,0,0-.7.808,5.881,5.881,0,0,0-.194,1.747v9.572h2.166q3.169,0,4.382-1.7a7.659,7.659,0,0,0,1.212-4.544,7.119,7.119,0,0,0-1.245-4.624,5.1,5.1,0,0,0-4.123-1.488A3.826,3.826,0,0,0,379.211,309.9Z" transform="translate(-332.63 -308.572)" fill="#111"/>
      <path id="Path_449" data-name="Path 449" d="M419.542,310.082a9.294,9.294,0,0,1,3.589,4.026,14.3,14.3,0,0,1,1.277,6.29,14.482,14.482,0,0,1-1.31,6.305,10.146,10.146,0,0,1-3.653,4.267,9.552,9.552,0,0,1-5.32,1.52,10.242,10.242,0,0,1-5.384-1.391,9.273,9.273,0,0,1-3.589-4.024,14.294,14.294,0,0,1-1.277-6.289,14.489,14.489,0,0,1,1.31-6.306,10.14,10.14,0,0,1,3.653-4.269,9.567,9.567,0,0,1,5.32-1.519A10.261,10.261,0,0,1,419.542,310.082Zm-9.152.63a9.291,9.291,0,0,0-2.425,4.027,18.812,18.812,0,0,0-.856,5.917,16.855,16.855,0,0,0,.953,5.916,9.417,9.417,0,0,0,2.571,3.946,5.417,5.417,0,0,0,3.622,1.391,5.21,5.21,0,0,0,3.637-1.44,9.28,9.28,0,0,0,2.425-4.025,18.781,18.781,0,0,0,.857-5.917,16.859,16.859,0,0,0-.954-5.917,9.427,9.427,0,0,0-2.57-3.945,5.418,5.418,0,0,0-3.622-1.391A5.223,5.223,0,0,0,410.39,310.713Z" transform="translate(-321.258 -308.693)" fill="#111"/>
      <path id="Path_450" data-name="Path 450" d="M458.024,330.3a5.613,5.613,0,0,1-1.488,1.584,3.559,3.559,0,0,1-1.972.485,3.13,3.13,0,0,1-2.182-.775,5.063,5.063,0,0,1-1.277-2.717l-.712-3.233a21.8,21.8,0,0,0-.726-2.586,3.328,3.328,0,0,0-1.02-1.455,2.95,2.95,0,0,0-1.908-.55h-3.072v7.436a5.817,5.817,0,0,0,.2,1.778,1.156,1.156,0,0,0,.726.744,6.421,6.421,0,0,0,1.7.258v.648q-1.488-.1-4.106-.1-2.782,0-4.139.1v-.648a6.4,6.4,0,0,0,1.7-.258,1.16,1.16,0,0,0,.729-.744,5.827,5.827,0,0,0,.194-1.778V312.452a5.85,5.85,0,0,0-.194-1.78,1.164,1.164,0,0,0-.729-.742,6.44,6.44,0,0,0-1.7-.259v-.647q1.357.1,3.944.1l3.492-.031q.614-.033,1.391-.033a9.243,9.243,0,0,1,5.771,1.568,4.9,4.9,0,0,1,2.021,4.057,5.951,5.951,0,0,1-.6,2.54,6.045,6.045,0,0,1-2,2.3,8.407,8.407,0,0,1-3.671,1.374l.389.066a5.779,5.779,0,0,1,3.1,1.292,5.844,5.844,0,0,1,1.422,2.975l.808,3.3a7.311,7.311,0,0,0,.68,2.07,1.091,1.091,0,0,0,.97.583,1.452,1.452,0,0,0,.921-.291,5.16,5.16,0,0,0,.857-.937Zm-13.467-20.4a1.277,1.277,0,0,0-.695.808,5.872,5.872,0,0,0-.2,1.747v7.955h2.167q3.2,0,4.4-1.422a5.957,5.957,0,0,0,1.2-3.945,5.7,5.7,0,0,0-1.261-4.011,5.387,5.387,0,0,0-4.107-1.358A3.838,3.838,0,0,0,444.557,309.9Z" transform="translate(-308.797 -308.572)" fill="#111"/>
      <path id="Path_451" data-name="Path 451" d="M487.959,313.163q0,1.617.1,2.652h-.744a19.747,19.747,0,0,0-.647-3.7,3.027,3.027,0,0,0-1.358-1.778,6.084,6.084,0,0,0-2.975-.566h-1.745v18.4a5.448,5.448,0,0,0,.259,1.972,1.453,1.453,0,0,0,.9.841,8.011,8.011,0,0,0,2.1.291v.648q-1.683-.1-4.753-.1-3.234,0-4.786.1v-.648a8.025,8.025,0,0,0,2.1-.291,1.456,1.456,0,0,0,.9-.841,5.482,5.482,0,0,0,.259-1.972v-18.4h-1.747a6.083,6.083,0,0,0-2.975.566,3.028,3.028,0,0,0-1.358,1.778,19.994,19.994,0,0,0-.647,3.7h-.744q.1-1.034.1-2.652,0-1.842-.225-4.139,2.684.1,9.118.1,6.4,0,9.086-.1Q487.959,311.321,487.959,313.163Z" transform="translate(-297.148 -308.572)" fill="#111"/>
      <path id="Path_452" data-name="Path 452" d="M511.049,309.072a8.307,8.307,0,0,1,1.7.889,2.325,2.325,0,0,0,1.1.453.5.5,0,0,0,.453-.34,3.881,3.881,0,0,0,.259-1.082h.744q-.162,1.875-.162,6.6h-.744a8.377,8.377,0,0,0-1.5-4.414,4.412,4.412,0,0,0-3.8-1.794,3.95,3.95,0,0,0-2.845,1.051,3.571,3.571,0,0,0-1.1,2.7,3.947,3.947,0,0,0,.565,2.135,5.646,5.646,0,0,0,1.44,1.551q.872.649,2.489,1.65l.939.581a32.6,32.6,0,0,1,3.217,2.216,7.9,7.9,0,0,1,1.891,2.182,5.649,5.649,0,0,1,.711,2.878,5.558,5.558,0,0,1-1.939,4.542,7.47,7.47,0,0,1-4.916,1.6,8.317,8.317,0,0,1-2.538-.323,9.112,9.112,0,0,1-1.892-.872,2.34,2.34,0,0,0-1.1-.453.5.5,0,0,0-.453.339,3.872,3.872,0,0,0-.259,1.085h-.744q.129-1.779.13-7.761h.744a10.552,10.552,0,0,0,1.617,5.3,4.81,4.81,0,0,0,4.267,2.038,4.338,4.338,0,0,0,2.975-1.085,4.062,4.062,0,0,0,1.228-3.217,4.269,4.269,0,0,0-1.212-3.072,19.419,19.419,0,0,0-3.832-2.845,35.978,35.978,0,0,1-3.088-2.069,7.467,7.467,0,0,1-1.923-2.182,5.836,5.836,0,0,1-.744-2.993,5.075,5.075,0,0,1,1.746-4.154,7.563,7.563,0,0,1,6.581-1.131Z" transform="translate(-285.266 -308.668)" fill="#111"/>
      <path id="Path_453" data-name="Path 453" d="M573.7,331.313v.648q-1.294-.1-3.459-.1-2.782,0-4.139.1v-.648a5.3,5.3,0,0,0,1.762-.306.893.893,0,0,0,.533-.89,4.422,4.422,0,0,0-.389-1.519l-1.972-5.3h-7.825l-1.325,3.427a8.473,8.473,0,0,0-.647,2.652,1.6,1.6,0,0,0,.7,1.455,4.1,4.1,0,0,0,2.119.485v.648q-1.844-.1-3.719-.1-1.456,0-2.425.1v-.648q1.615-.387,2.555-2.813l7.6-19.595h.516l7.891,20.338Q572.246,331.25,573.7,331.313Zm-7.922-8.665-3.622-9.669-3.686,9.669Z" transform="translate(-266.903 -308.615)" fill="#111"/>
      <path id="Path_454" data-name="Path 454" d="M599.653,309.227a15.118,15.118,0,0,1,2.684,1.567,1.259,1.259,0,0,0,.647.325q.615,0,.808-1.973h.744q-.129,2.1-.13,7.438h-.744a26.172,26.172,0,0,0-.614-2.83,5.52,5.52,0,0,0-1-1.956,6.543,6.543,0,0,0-2.441-1.844,7.6,7.6,0,0,0-3.153-.678,5.581,5.581,0,0,0-3.751,1.391,8.816,8.816,0,0,0-2.489,3.96,18.653,18.653,0,0,0-.873,6q0,5.819,1.859,8.52a6.59,6.59,0,0,0,5.837,2.7,5.685,5.685,0,0,0,3.363-1,2.1,2.1,0,0,0,.76-.76,2.4,2.4,0,0,0,.179-1.02v-3.1a5.48,5.48,0,0,0-.259-1.972,1.462,1.462,0,0,0-.9-.841,8.144,8.144,0,0,0-2.1-.291v-.647q1.682.1,4.559.1,2.2,0,3.363-.1v.647a2.791,2.791,0,0,0-1.084.259,1.036,1.036,0,0,0-.451.742,9.714,9.714,0,0,0-.114,1.779v6.4H603.7a4.083,4.083,0,0,0-.259-1.246q-.225-.6-.614-.6a.867.867,0,0,0-.388.1,5.913,5.913,0,0,0-.678.453,8.667,8.667,0,0,1-2.345,1.31,7.95,7.95,0,0,1-2.7.435A11.22,11.22,0,0,1,591,331.117a9,9,0,0,1-3.637-3.96,13.947,13.947,0,0,1-1.262-6.177,14.81,14.81,0,0,1,1.343-6.482,10.166,10.166,0,0,1,3.7-4.3,9.78,9.78,0,0,1,5.368-1.5A7.915,7.915,0,0,1,599.653,309.227Z" transform="translate(-254.797 -308.693)" fill="#111"/>
      <path id="Path_455" data-name="Path 455" d="M636.319,331.919q-2.2-.1-7.406-.1-6.209,0-9.377.1v-.648a6.41,6.41,0,0,0,1.7-.258,1.156,1.156,0,0,0,.727-.744,5.826,5.826,0,0,0,.195-1.778V312.452a5.849,5.849,0,0,0-.195-1.78,1.16,1.16,0,0,0-.727-.742,6.451,6.451,0,0,0-1.7-.259v-.647q3.169.1,9.377.1,4.753,0,6.758-.1a36.752,36.752,0,0,0-.225,3.816,16.374,16.374,0,0,0,.1,2H634.8a15.1,15.1,0,0,0-.583-3.12,2.612,2.612,0,0,0-1.2-1.488,5.417,5.417,0,0,0-2.555-.469h-2.684a5.841,5.841,0,0,0-1.7.179,1.114,1.114,0,0,0-.727.726,5.844,5.844,0,0,0-.194,1.78v7.631H627.3a2.446,2.446,0,0,0,2.57-1.795,11.48,11.48,0,0,0,.34-1.827l.1-.647h.744q-.1,1.357-.1,3.041v1.552q0,1.648.193,4.591H630.4q-.031-.225-.194-1.568a3.182,3.182,0,0,0-.89-2.021,2.849,2.849,0,0,0-2.02-.68h-2.135v7.761a5.821,5.821,0,0,0,.194,1.778,1.11,1.11,0,0,0,.727.727,5.834,5.834,0,0,0,1.7.179h2.361a6.932,6.932,0,0,0,3.056-.535,3.216,3.216,0,0,0,1.537-1.713,13.043,13.043,0,0,0,.711-3.476h.744a21.663,21.663,0,0,0-.1,2.328Q636.091,329.622,636.319,331.919Z" transform="translate(-242.604 -308.572)" fill="#111"/>
      <path id="Path_456" data-name="Path 456" d="M671.332,309.671a4.53,4.53,0,0,0-1.681.34,1.431,1.431,0,0,0-.744.9,6.722,6.722,0,0,0-.194,1.86v19.3h-.745l-13.58-20.985v17.073a6.183,6.183,0,0,0,.21,1.875,1.456,1.456,0,0,0,.826.89,5.639,5.639,0,0,0,1.906.339v.648q-1.163-.1-3.3-.1-1.941,0-3.006.1v-.648a4.511,4.511,0,0,0,1.68-.339,1.431,1.431,0,0,0,.744-.9,6.719,6.719,0,0,0,.195-1.86V312.452a5.854,5.854,0,0,0-.195-1.78,1.164,1.164,0,0,0-.726-.742,6.465,6.465,0,0,0-1.7-.259v-.647q1.067.1,3.006.1,1.456,0,2.522-.1l11.413,17.591v-13.84a6.2,6.2,0,0,0-.209-1.875,1.459,1.459,0,0,0-.824-.89,5.667,5.667,0,0,0-1.908-.34v-.647q1.165.1,3.3.1,1.939,0,3.007-.1Z" transform="translate(-231.119 -308.572)" fill="#111"/>
      <path id="Path_457" data-name="Path 457" d="M698.489,309.241a11.268,11.268,0,0,1,2.651,1.552,1.038,1.038,0,0,0,.614.292q.647,0,.841-1.941h.744q-.129,2.1-.13,7.438h-.743a25.833,25.833,0,0,0-.647-3.024,5.45,5.45,0,0,0-.97-1.762,5.979,5.979,0,0,0-2.474-1.891,8.321,8.321,0,0,0-3.251-.631,5.36,5.36,0,0,0-3.67,1.391,9.046,9.046,0,0,0-2.44,3.96,18.762,18.762,0,0,0-.874,6.032,17.385,17.385,0,0,0,.938,6.046,8.488,8.488,0,0,0,2.6,3.832,5.935,5.935,0,0,0,3.768,1.31,8.274,8.274,0,0,0,3.136-.615,5.281,5.281,0,0,0,2.394-1.842,6.264,6.264,0,0,0,.937-1.941,23.219,23.219,0,0,0,.55-3.169h.743q0,5.562.13,7.761H702.6a5.747,5.747,0,0,0-.274-1.471c-.119-.291-.287-.438-.5-.438a1.424,1.424,0,0,0-.68.259,13.644,13.644,0,0,1-2.781,1.568,8.587,8.587,0,0,1-3.2.534,10.245,10.245,0,0,1-5.385-1.391,9.281,9.281,0,0,1-3.589-4.024,14.292,14.292,0,0,1-1.277-6.289,14.486,14.486,0,0,1,1.31-6.306,10.165,10.165,0,0,1,3.655-4.269,9.565,9.565,0,0,1,5.318-1.519A8.823,8.823,0,0,1,698.489,309.241Z" transform="translate(-218.762 -308.693)" fill="#111"/>
      <path id="Path_458" data-name="Path 458" d="M736.053,309.024v.647a2.65,2.65,0,0,0-1.262.824,9.407,9.407,0,0,0-1.325,2.054l-5.077,10.057v5.885a5.868,5.868,0,0,0,.194,1.778,1.159,1.159,0,0,0,.728.744,6.406,6.406,0,0,0,1.7.258v.648q-1.488-.1-4.107-.1-2.782,0-4.139.1v-.648a6.4,6.4,0,0,0,1.7-.258,1.159,1.159,0,0,0,.727-.744,5.828,5.828,0,0,0,.194-1.778v-4.85l-6.563-12.125a5.372,5.372,0,0,0-1.02-1.44,1.339,1.339,0,0,0-.857-.371v-.68q1.261.1,2.845.1,3.136,0,4.528-.1v.68q-2.266,0-2.264,1.228a2.609,2.609,0,0,0,.324,1.133l5.366,10.314,4.139-8.213a6.562,6.562,0,0,0,.875-2.781,1.36,1.36,0,0,0-.711-1.294,4.825,4.825,0,0,0-2.136-.42v-.647q1.844.1,3.719.1Q735.082,309.121,736.053,309.024Z" transform="translate(-207.078 -308.572)" fill="#111"/>
    </g>
  </g>
</svg>
