<svg xmlns="http://www.w3.org/2000/svg" width="1043.516" height="320.654" viewBox="0 0 1043.516 320.654">
  <g id="Group_327" data-name="Group 327" transform="translate(-6933.075 -171.173)">
    <path id="Path_401" data-name="Path 401" d="M-732.261,1610.336c3.975,19.011,2.118,36.941-9.281,53.839l-7.8-1.282c4.3-14.882,4.361-28.593-8.089-40.519-5.2,8.364-3.107,16.734-3.249,26.235-7.694-6.994-12.085-14.488-12.9-23.391-.794-8.629-.173-17.389-.173-25.842a43.075,43.075,0,0,0-10.9,24.9c-.746,9.377.327,18.9.61,28.622-7.476-2.38-12.52-8.334-17.677-14.138l-1.5.556c1.464,4.6,2.623,9.331,4.478,13.77,1.9,4.543,4.48,8.8,6.945,13.537l-3.332,2.579c-22.849-13.848-27.042-46.252-15.428-74.258l5.227,18.3c2.479-9.812,4.072-19.237,7.307-28.06,3.32-9.051,9.335-16.716,17.435-24.435-.87,5.907-1.544,10.479-2.218,15.052l1.121.511c6.031-18.423,16.859-33.145,33.34-44.9,0,2.107.239,3.224-.035,4.2-3.972,14.072.31,26.186,8.613,37.449,8.083,10.964,16.78,21.577,23.772,33.207,4.25,7.068,6.727,15.586,8.326,23.78,2.894,14.823-6.746,33.663-20.036,40.624l-5.705-4.061C-721.325,1647.855-718.752,1629.147-732.261,1610.336Z" transform="translate(8192.08 -1360.239)" fill="#e9d06b"/>
    <path id="Path_402" data-name="Path 402" d="M-1173.377,1755.5l23.791,31.408c-6.479,3.6-17.518,2.3-21.435-2.767-7.725-9.995-14.91-20.406-22.292-30.665a7.93,7.93,0,0,1-.521-2.085c10.488-7.58,17.97-17.239,16.881-31.413a31.81,31.81,0,0,0-8.468-19.789c-10.494-11.342-28.343-13.819-41.7-5.813a33.466,33.466,0,0,0-14.132,39.164c4.493,12.838,18.371,27.041,42.193,20.373l8.108,12.806c-13.651,10.31-42.119,4.183-55.96-11.332-16.615-18.622-16.036-49.011,1.277-66.992,17.292-17.959,47.841-19.577,67.417-3.569C-1156.6,1702.495-1155.022,1729.073-1173.377,1755.5Z" transform="translate(8192.08 -1360.239)" fill="#e9d06b"/>
    <path id="Path_403" data-name="Path 403" d="M-500.126,1771.6c-28.921-1.118-49.359-22.564-48.343-50.727.992-27.493,23.664-48.132,51.666-47.035,27.96,1.1,47.706,23.255,46.6,52.3C-451.176,1751.887-473.931,1772.608-500.126,1771.6Zm.77-15.873c18.569.005,33.237-14.3,33.437-32.607.2-18.331-15.3-33.7-33.81-33.518a33.2,33.2,0,0,0-32.491,32.648C-532.313,1741.3-518.159,1755.717-499.356,1755.723Z" transform="translate(8192.08 -1360.239)" fill="#e9d06b"/>
    <path id="Path_404" data-name="Path 404" d="M-431.94,1674.66c15.572,1.05,30.474-2.191,44.9,2.444a27.321,27.321,0,0,1,19.282,25.366c.494,11.749-5.417,21.034-16.8,26.416-.719.339-1.4.767-2.013,1.11,9.614,13.068,19.083,25.941,28.665,38.967-8.142,3.783-17.575,1.812-22.431-4.427-6.639-8.531-13.036-17.251-19.513-25.908-4.311-5.761-7.8-6.767-15.835-3.965v35.464H-431.94Zm16.239,42.358c7.708,0,14.7.64,21.517-.2,5.729-.7,9.6-6.061,10.165-11.579a11.864,11.864,0,0,0-7.287-12.492c-7.806-3.222-15.867-1.67-24.395-1.121Z" transform="translate(8192.08 -1360.239)" fill="#e9d06b"/>
    <path id="Path_405" data-name="Path 405" d="M-789.778,1740.825c13.391-12.45,43.735-12.3,56.31-.6-6.652,36.869-13.337,73.918-20.1,111.405l-6.81.438c-.687-28.125-1.358-55.616-2.029-83.107l-.641-.066q-2.083,12.143-4.165,24.286l-1.647.305-5.175-14.982-.664.139q1.175,23.387,2.347,46.773l-1.836.253C-779.437,1797.1-784.686,1768.535-789.778,1740.825Z" transform="translate(8192.08 -1360.239)" fill="#e9d06b"/>
    <path id="Path_406" data-name="Path 406" d="M-1084.176,1675.55h14.946c.24,2.8.573,4.92.578,7.036q.062,24.958.017,49.919c0,14.693-5.005,27.124-18.372,34.2-14.012,7.418-28.654,7.136-42.461-.972a32.011,32.011,0,0,1-16.26-27.206c-.76-19.771-.314-39.589-.33-59.387a19.354,19.354,0,0,1,.826-3.593h14.551c.279,2.821.742,5.4.756,7.978.09,16.306-.119,32.617.159,48.919.3,17.247,13.388,26.647,29.9,21.827,9.159-2.674,14.592-9.576,14.822-20.148.334-15.3.1-30.615.209-45.922C-1084.809,1684.1-1084.42,1680-1084.176,1675.55Z" transform="translate(8192.08 -1360.239)" fill="#e9d06b"/>
    <path id="Path_407" data-name="Path 407" d="M-1046.66,1675.394h59.131v15.291h-43.359v23.023H-995.7v15.732h-35.36v25.242h43.6v15.462h-59.2Z" transform="translate(8192.08 -1360.239)" fill="#e9d06b"/>
    <path id="Path_408" data-name="Path 408" d="M-607.217,1735.956v34.135h-15.791v-93.877c1.71-.518,2.94-1.223,4.163-1.21,12.973.142,26.009-.333,38.9.812,15.129,1.345,25.482,13.442,25.792,28.223.334,15.882-9.106,27.949-24.58,30.333-6.853,1.056-13.936.6-20.913.893C-601.746,1735.352-603.838,1735.64-607.217,1735.956Zm.667-16.88c9.035,0,17.217.827,25.144-.241,7.392-1,11.69-7.992,11.053-15-.63-6.941-6.089-12.2-13.78-12.669-5.963-.363-11.963-.208-17.944-.125-1.4.019-2.784.679-4.473,1.122Z" transform="translate(8192.08 -1360.239)" fill="#e9d06b"/>
    <path id="Path_409" data-name="Path 409" d="M-646.287,1684.354c-2.96,8.986-7.117,11.032-15.462,7.662-5.627-2.273-11.266-3.015-16.921-.346-6.366,3-7.442,10.368-1.727,14.475,3.99,2.867,8.762,4.662,13.236,6.829,3.885,1.882,8.03,3.292,11.731,5.47,11.541,6.79,16.183,16.491,14.127,29.371-1.965,12.312-9.929,19.322-21.417,22.366-13.416,3.554-25.684.486-36.632-7.941a26.5,26.5,0,0,1-3.217-3.125,13.983,13.983,0,0,1-1.3-1.934c1.7-8.449,7.123-10.808,14.656-7.4a66.013,66.013,0,0,0,17.705,5.62c3.271.456,7.482-1.618,10.4-3.743,5.612-4.089,6.033-11.537.691-15.932-4.4-3.622-9.836-6.011-14.878-8.829-5.062-2.831-10.628-4.947-15.231-8.373-13.677-10.179-12.981-29.781,1.049-39.472C-677.246,1670.6-655.608,1673.152-646.287,1684.354Z" transform="translate(8192.08 -1360.239)" fill="#e9d06b"/>
    <path id="Path_410" data-name="Path 410" d="M-220.955,1684.465c-2.819,8.881-6.978,10.935-15.32,7.564-5.585-2.256-11.2-3.222-16.921-.552-6.966,3.249-7.9,10.72-1.6,15.051,3.522,2.418,7.632,3.994,11.522,5.856,4.491,2.149,9.215,3.877,13.515,6.349,10.162,5.842,15.19,14.761,14.124,26.552-1.082,11.967-7.754,19.822-18.888,24.052-15.079,5.727-34.606.37-44.21-12.155,1.966-8.766,7.663-11.445,15.375-6.989,5.853,3.381,11.713,6.23,18.793,5.376,6.134-.74,10.974-4.243,12.309-9.356,1.386-5.309-.459-9.911-6.118-13.481-3.773-2.38-7.969-4.091-11.982-6.089s-8.183-3.724-12.016-6.018c-9.085-5.435-13.8-13.338-12.317-24.174,1.521-11.092,8.015-17.976,18.652-21,12.037-3.422,23.021-1.062,32.99,6.367a8.033,8.033,0,0,1,1.417,1.4A7.04,7.04,0,0,1-220.955,1684.465Z" transform="translate(8192.08 -1360.239)" fill="#e9d06b"/>
    <path id="Path_411" data-name="Path 411" d="M-918.259,1684.125c-2.883,9.46-6.9,11.422-15.388,7.927-5.774-2.377-11.584-3.21-17.36-.212-5.915,3.071-6.936,10.591-1.467,14.326,4.6,3.142,10.109,4.929,15.1,7.527,5.134,2.669,10.769,4.853,15.076,8.543,13.541,11.6,12.751,31.481-1.162,42.581-14.373,11.467-41.766,7.48-52.537-7.647,1.575-8.1,7.492-11.172,14.58-7.414,6.046,3.205,12.04,7.2,19.18,5.689a22.75,22.75,0,0,0,10.662-5.5,9.249,9.249,0,0,0-.967-14.481c-4.87-3.631-10.554-6.177-15.905-9.155-4.78-2.661-10.019-4.706-14.316-7.991-13.873-10.607-12.436-30.9,2.522-39.98,10.9-6.613,29.453-5.281,39.16,2.851A37.367,37.367,0,0,1-918.259,1684.125Z" transform="translate(8192.08 -1360.239)" fill="#e9d06b"/>
    <path id="Path_412" data-name="Path 412" d="M-790.328,1692.079c25.527-11.873,51.2-15.994,78.261-3.233-.354,3.983-.51,7.909-1.084,11.773-1.416,9.542-3.317,19.021-4.454,28.593-.77,6.489-4.622,9.519-10.566,11.678-9.307-7.978-20.192-12.346-32.738-11.8-11.885.516-23.592,1.643-34.027,11.758l-10.536-5.491c12.837-11.008,27.178-13.9,42.026-14.361a81.12,81.12,0,0,1,42.509,10.287c-21.278-15.115-44.437-19.429-69.78-11.09l-.546-1.331a34.114,34.114,0,0,1,3.408-4.876c7.3-7.385,16.809-10.254,26.618-11.186,9.348-.888,18.847-.191,28.353-.615-8.883-4.733-18.535-6.78-28.343-7.881C-770.888,1693.218-780.624,1692.794-790.328,1692.079Z" transform="translate(8192.08 -1360.239)" fill="#e9d06b"/>
    <path id="Path_413" data-name="Path 413" d="M-313.789,1770.22h-15.995V1691.2h-28V1675.43h72.368v15.13h-26.756c-.529,3.458-1.227,5.939-1.238,8.423-.089,21.462-.047,42.925-.069,64.389C-313.478,1765.34-313.65,1767.308-313.789,1770.22Z" transform="translate(8192.08 -1360.239)" fill="#e9d06b"/>
    <path id="Path_414" data-name="Path 414" d="M-832.813,1675.466V1690.9h-27.929v79.122h-16.263v-78.9h-28.052v-15.654Z" transform="translate(8192.08 -1360.239)" fill="#e9d06b"/>
    <path id="Path_415" data-name="Path 415" d="M-714.283,1685.089c-3.825-1.307-6.739-2.268-9.629-3.3-17.246-6.139-34.889-9.246-52.9-4.515-7.62,2-14.744,5.921-22.055,9.058-3.338,1.432-4.375,4.206-4.293,7.714.18,7.655.191,15.313.264,22.97.016,1.762,0,3.525,0,5.287l-1.436.154-8.677-39.076C-792.538,1662.048-730.678,1662.912-714.283,1685.089Z" transform="translate(8192.08 -1360.239)" fill="#e9d06b"/>
  </g>
</svg>
