<svg xmlns="http://www.w3.org/2000/svg" width="392.697" height="128.031" viewBox="0 0 392.697 128.031">
  <g id="Group_2427" data-name="Group 2427" transform="translate(-1795 -89.435)">
    <g id="Group_474" data-name="Group 474" transform="translate(1795 89.435)">
      <g id="Group_409" data-name="Group 409" transform="translate(0.176)">
        <path id="Path_441" data-name="Path 441" d="M349.383,200.823a23.614,23.614,0,0,1,4.807,2.518,6.61,6.61,0,0,0,3.114,1.282,1.414,1.414,0,0,0,1.281-.961,10.97,10.97,0,0,0,.733-3.067h2.106q-.459,5.312-.458,18.678H358.86a23.713,23.713,0,0,0-4.258-12.5q-3.708-5.08-10.758-5.081a11.182,11.182,0,0,0-8.058,2.976,10.111,10.111,0,0,0-3.113,7.646,11.165,11.165,0,0,0,1.6,6.044,15.919,15.919,0,0,0,4.075,4.394q2.472,1.833,7.05,4.67l2.655,1.648a92.214,92.214,0,0,1,9.111,6.272,22.321,22.321,0,0,1,5.356,6.181,15.985,15.985,0,0,1,2.014,8.149q0,8.332-5.493,12.865t-13.918,4.532a23.556,23.556,0,0,1-7.188-.916,25.663,25.663,0,0,1-5.356-2.472,6.619,6.619,0,0,0-3.113-1.282,1.412,1.412,0,0,0-1.281.961,10.9,10.9,0,0,0-.733,3.067h-2.107q.366-5.034.366-21.975h2.107q.639,9.249,4.578,15.016t12.086,5.769a12.292,12.292,0,0,0,8.423-3.067q3.479-3.067,3.48-9.111a12.083,12.083,0,0,0-3.434-8.7A54.9,54.9,0,0,0,342.1,236.3a101.453,101.453,0,0,1-8.744-5.86,21.042,21.042,0,0,1-5.448-6.181,16.515,16.515,0,0,1-2.106-8.469q0-7.692,4.944-11.766a21.452,21.452,0,0,1,18.633-3.205Z" transform="translate(-325.347 -199.954)" fill="#272525"/>
        <path id="Path_442" data-name="Path 442" d="M408.305,239.7v16.481a12.628,12.628,0,0,0,.733,5.037,3.9,3.9,0,0,0,2.564,2.106,27.039,27.039,0,0,0,5.952.732v1.832q-4.762-.274-13.46-.275-7.877,0-11.721.275v-1.832a18.212,18.212,0,0,0,4.807-.732,3.29,3.29,0,0,0,2.06-2.106,16.52,16.52,0,0,0,.55-5.037V210.761a16.529,16.529,0,0,0-.55-5.036,3.291,3.291,0,0,0-2.06-2.106,18.275,18.275,0,0,0-4.807-.733v-1.831q3.847.274,11.171.274l9.889-.091q1.738-.09,3.937-.091,10.713,0,16.39,4.9t5.676,13.139a21.866,21.866,0,0,1-2.243,9.66,18.3,18.3,0,0,1-7.6,7.737q-5.356,3.113-14.238,3.113Zm2.519-36.167a3.621,3.621,0,0,0-1.97,2.288,16.662,16.662,0,0,0-.549,4.944v27.1h6.135q8.972,0,12.406-4.806t3.434-12.865q0-8.88-3.526-13.094t-11.674-4.212A10.824,10.824,0,0,0,410.824,203.528Z" transform="translate(-331.118 -200.049)" fill="#272525"/>
        <path id="Path_443" data-name="Path 443" d="M489.359,202.887a18.268,18.268,0,0,0-4.806.733,3.293,3.293,0,0,0-2.061,2.106,16.538,16.538,0,0,0-.549,5.036v45.416a16.529,16.529,0,0,0,.549,5.037,3.155,3.155,0,0,0,2.061,2.06,16.527,16.527,0,0,0,4.806.5h6.684q5.677,0,8.653-1.6A9.457,9.457,0,0,0,509.046,257a41.051,41.051,0,0,0,2.014-10.346h2.106q-.274,2.839-.274,7.508,0,5.219.641,11.72-6.228-.274-20.968-.275-17.58,0-26.553.275v-1.832a18.213,18.213,0,0,0,4.807-.732,3.29,3.29,0,0,0,2.06-2.106,16.529,16.529,0,0,0,.549-5.037V210.761a16.537,16.537,0,0,0-.549-5.036,3.291,3.291,0,0,0-2.06-2.106,18.276,18.276,0,0,0-4.807-.733v-1.831q3.846.274,11.72.274,7.325,0,11.629-.274Z" transform="translate(-337.457 -200.049)" fill="#272525"/>
        <path id="Path_444" data-name="Path 444" d="M593.916,264.008v1.831q-3.663-.274-9.8-.275-7.876,0-11.72.275v-1.831a14.935,14.935,0,0,0,4.99-.87,2.52,2.52,0,0,0,1.511-2.518,12.6,12.6,0,0,0-1.1-4.3L572.215,241.3H550.057l-3.754,9.706a23.932,23.932,0,0,0-1.831,7.508,4.548,4.548,0,0,0,1.969,4.12,11.632,11.632,0,0,0,6,1.374v1.831q-5.22-.274-10.53-.275-4.121,0-6.867.275v-1.831q4.577-1.1,7.234-7.966l21.517-55.487h1.465L587.6,258.148Q589.8,263.827,593.916,264.008Zm-22.433-24.538-10.255-27.378-10.439,27.378Z" transform="translate(-343.4 -200.006)" fill="#272525"/>
        <path id="Path_445" data-name="Path 445" d="M644.236,200.823a23.664,23.664,0,0,1,4.807,2.518,6.608,6.608,0,0,0,3.112,1.282,1.414,1.414,0,0,0,1.283-.961,10.967,10.967,0,0,0,.733-3.067h2.1q-.46,5.312-.457,18.678h-2.106a23.7,23.7,0,0,0-4.259-12.5q-3.708-5.08-10.758-5.081a11.182,11.182,0,0,0-8.058,2.976,10.109,10.109,0,0,0-3.114,7.646,11.156,11.156,0,0,0,1.6,6.044,15.9,15.9,0,0,0,4.074,4.394q2.472,1.833,7.051,4.67l2.655,1.648a92,92,0,0,1,9.11,6.272,22.306,22.306,0,0,1,5.358,6.181,15.994,15.994,0,0,1,2.014,8.149q0,8.332-5.495,12.865t-13.917,4.532a23.537,23.537,0,0,1-7.187-.916,25.634,25.634,0,0,1-5.357-2.472,6.624,6.624,0,0,0-3.113-1.282,1.413,1.413,0,0,0-1.282.961,10.928,10.928,0,0,0-.733,3.067H620.2q.364-5.034.366-21.975h2.106q.64,9.249,4.578,15.016t12.087,5.769a12.3,12.3,0,0,0,8.424-3.067q3.478-3.067,3.478-9.111a12.082,12.082,0,0,0-3.434-8.7,54.861,54.861,0,0,0-10.85-8.058,101.5,101.5,0,0,1-8.744-5.86,21.043,21.043,0,0,1-5.448-6.181,16.506,16.506,0,0,1-2.107-8.469q0-7.692,4.944-11.766a21.456,21.456,0,0,1,18.635-3.205Z" transform="translate(-350.732 -199.954)" fill="#272525"/>
        <path id="Path_446" data-name="Path 446" d="M744.041,203.619a3.293,3.293,0,0,0-2.061,2.106,16.55,16.55,0,0,0-.549,5.036v45.416a16.541,16.541,0,0,0,.549,5.037,3.292,3.292,0,0,0,2.061,2.106,18.21,18.21,0,0,0,4.807.732v1.832q-3.845-.274-11.72-.275-7.416,0-11.629.275v-1.832a18.217,18.217,0,0,0,4.808-.732,3.286,3.286,0,0,0,2.059-2.106,16.529,16.529,0,0,0,.55-5.037V234.2H703.157v21.975a16.521,16.521,0,0,0,.55,5.037,3.292,3.292,0,0,0,2.06,2.106,18.212,18.212,0,0,0,4.807.732v1.832q-4.212-.274-11.628-.275-7.876,0-11.72.275v-1.832a18.227,18.227,0,0,0,4.807-.732,3.293,3.293,0,0,0,2.06-2.106,16.535,16.535,0,0,0,.549-5.037V210.761a16.543,16.543,0,0,0-.549-5.036,3.294,3.294,0,0,0-2.06-2.106,18.291,18.291,0,0,0-4.807-.733v-1.831q3.845.274,11.72.274,7.323,0,11.628-.274v1.831a18.275,18.275,0,0,0-4.807.733,3.293,3.293,0,0,0-2.06,2.106,16.529,16.529,0,0,0-.55,5.036V232.37h29.758V210.761a16.537,16.537,0,0,0-.55-5.036,3.288,3.288,0,0,0-2.059-2.106,18.28,18.28,0,0,0-4.808-.733v-1.831q4.211.274,11.629.274,7.873,0,11.72-.274v1.831A18.273,18.273,0,0,0,744.041,203.619Z" transform="translate(-356.503 -200.049)" fill="#272525"/>
      </g>
      <rect id="Rectangle_581" data-name="Rectangle 581" width="392.697" height="42.124" transform="translate(0 85.907)" fill="#f13742"/>
    </g>
    <g id="Group_475" data-name="Group 475" transform="translate(1811.617 188.812)">
      <path id="Path_447" data-name="Path 447" d="M349.021,308.97a5.554,5.554,0,0,1,1.137.6,1.556,1.556,0,0,0,.737.3.334.334,0,0,0,.3-.228,2.6,2.6,0,0,0,.174-.725h.5q-.108,1.256-.108,4.417h-.5a5.609,5.609,0,0,0-1.006-2.956,2.955,2.955,0,0,0-2.544-1.2,2.642,2.642,0,0,0-1.905.7,2.389,2.389,0,0,0-.737,1.808,2.64,2.64,0,0,0,.378,1.429,3.781,3.781,0,0,0,.964,1.039q.584.435,1.667,1.1l.629.389a21.823,21.823,0,0,1,2.154,1.484,5.257,5.257,0,0,1,1.267,1.461,3.774,3.774,0,0,1,.476,1.927,3.722,3.722,0,0,1-1.3,3.041,5,5,0,0,1-3.292,1.072,5.57,5.57,0,0,1-1.7-.216,6.137,6.137,0,0,1-1.267-.584,1.567,1.567,0,0,0-.736-.3.335.335,0,0,0-.3.227,2.625,2.625,0,0,0-.174.727h-.5q.086-1.191.087-5.2h.5A7.065,7.065,0,0,0,345,322.839a3.221,3.221,0,0,0,2.858,1.365,2.9,2.9,0,0,0,1.992-.726,2.72,2.72,0,0,0,.824-2.154,2.86,2.86,0,0,0-.813-2.057,12.988,12.988,0,0,0-2.566-1.906,24.055,24.055,0,0,1-2.068-1.385,5,5,0,0,1-1.288-1.461,3.908,3.908,0,0,1-.5-2,3.4,3.4,0,0,1,1.169-2.782,5.065,5.065,0,0,1,4.407-.758Z" transform="translate(-343.337 -308.699)" fill="#fff"/>
      <path id="Path_448" data-name="Path 448" d="M376.462,318.162v3.9a2.979,2.979,0,0,0,.174,1.191.92.92,0,0,0,.606.5,6.367,6.367,0,0,0,1.407.173v.434q-1.127-.064-3.183-.066-1.863,0-2.772.066v-.434a4.29,4.29,0,0,0,1.137-.173.773.773,0,0,0,.487-.5,3.892,3.892,0,0,0,.131-1.191V311.32a3.906,3.906,0,0,0-.131-1.192.776.776,0,0,0-.487-.5,4.319,4.319,0,0,0-1.137-.174v-.433q.91.066,2.642.065l2.339-.021c.273-.014.585-.022.93-.022a5.771,5.771,0,0,1,3.877,1.159,3.9,3.9,0,0,1,1.343,3.107,5.175,5.175,0,0,1-.53,2.285,4.331,4.331,0,0,1-1.8,1.829,6.667,6.667,0,0,1-3.368.736Zm.6-8.553a.857.857,0,0,0-.466.541,3.943,3.943,0,0,0-.13,1.17v6.41h1.45a3.374,3.374,0,0,0,2.935-1.137,5.129,5.129,0,0,0,.811-3.043,4.768,4.768,0,0,0-.833-3.1,3.416,3.416,0,0,0-2.761-1A2.565,2.565,0,0,0,377.058,309.609Z" transform="translate(-345.864 -308.721)" fill="#fff"/>
      <path id="Path_449" data-name="Path 449" d="M414.367,309.623a6.224,6.224,0,0,1,2.4,2.7,9.576,9.576,0,0,1,.855,4.212,9.7,9.7,0,0,1-.877,4.222,6.8,6.8,0,0,1-2.447,2.858,6.4,6.4,0,0,1-3.563,1.018,6.858,6.858,0,0,1-3.605-.931,6.21,6.21,0,0,1-2.4-2.7,9.572,9.572,0,0,1-.855-4.211,9.7,9.7,0,0,1,.877-4.223,6.79,6.79,0,0,1,2.447-2.859,6.406,6.406,0,0,1,3.562-1.017A6.871,6.871,0,0,1,414.367,309.623Zm-6.129.422a6.222,6.222,0,0,0-1.624,2.7,12.6,12.6,0,0,0-.573,3.963,11.287,11.287,0,0,0,.638,3.962,6.3,6.3,0,0,0,1.722,2.642,3.626,3.626,0,0,0,2.426.931,3.489,3.489,0,0,0,2.436-.964,6.215,6.215,0,0,0,1.624-2.7,12.583,12.583,0,0,0,.574-3.963,11.287,11.287,0,0,0-.639-3.963,6.312,6.312,0,0,0-1.721-2.642,3.628,3.628,0,0,0-2.425-.931A3.5,3.5,0,0,0,408.238,310.046Z" transform="translate(-348.549 -308.693)" fill="#fff"/>
      <path id="Path_450" data-name="Path 450" d="M451.423,323.273a3.764,3.764,0,0,1-1,1.061,2.385,2.385,0,0,1-1.321.324,2.1,2.1,0,0,1-1.461-.519,3.392,3.392,0,0,1-.855-1.82l-.477-2.165a14.611,14.611,0,0,0-.486-1.732,2.225,2.225,0,0,0-.683-.974,1.975,1.975,0,0,0-1.278-.368h-2.057v4.98a3.9,3.9,0,0,0,.131,1.191.774.774,0,0,0,.486.5,4.3,4.3,0,0,0,1.138.173v.434q-1-.064-2.75-.066-1.863,0-2.772.066v-.434a4.284,4.284,0,0,0,1.136-.173.777.777,0,0,0,.488-.5,3.9,3.9,0,0,0,.13-1.191V311.32a3.916,3.916,0,0,0-.13-1.192.78.78,0,0,0-.488-.5,4.313,4.313,0,0,0-1.136-.174v-.433q.909.066,2.641.065l2.339-.021q.411-.022.931-.022a6.19,6.19,0,0,1,3.865,1.05,3.285,3.285,0,0,1,1.354,2.717,3.983,3.983,0,0,1-.4,1.7,4.047,4.047,0,0,1-1.342,1.537,5.629,5.629,0,0,1-2.458.92l.26.044a3.87,3.87,0,0,1,2.079.865,3.914,3.914,0,0,1,.952,1.992l.541,2.208a4.9,4.9,0,0,0,.455,1.386.731.731,0,0,0,.65.39.973.973,0,0,0,.617-.195,3.459,3.459,0,0,0,.574-.628Zm-9.018-13.664a.855.855,0,0,0-.465.541,3.938,3.938,0,0,0-.131,1.17v5.327h1.451a3.714,3.714,0,0,0,2.945-.952,3.989,3.989,0,0,0,.8-2.642,3.818,3.818,0,0,0-.844-2.686,3.607,3.607,0,0,0-2.75-.909A2.572,2.572,0,0,0,442.405,309.609Z" transform="translate(-351.491 -308.721)" fill="#fff"/>
      <path id="Path_451" data-name="Path 451" d="M482.021,311.8q0,1.083.065,1.776h-.5a13.227,13.227,0,0,0-.433-2.479,2.027,2.027,0,0,0-.909-1.191,4.072,4.072,0,0,0-1.992-.379h-1.169v12.321a3.652,3.652,0,0,0,.174,1.321.973.973,0,0,0,.606.563,5.365,5.365,0,0,0,1.408.195v.434q-1.127-.064-3.183-.066-2.166,0-3.205.066v-.434a5.374,5.374,0,0,0,1.408-.195.975.975,0,0,0,.606-.563,3.672,3.672,0,0,0,.174-1.321V309.522H473.9a4.072,4.072,0,0,0-1.992.379,2.026,2.026,0,0,0-.909,1.191,13.384,13.384,0,0,0-.433,2.479h-.5q.064-.692.065-1.776,0-1.234-.151-2.772,1.8.066,6.106.065,4.288,0,6.085-.065Q482.02,310.562,482.021,311.8Z" transform="translate(-354.24 -308.721)" fill="#fff"/>
      <path id="Path_452" data-name="Path 452" d="M508.244,308.97a5.556,5.556,0,0,1,1.137.6,1.558,1.558,0,0,0,.736.3.334.334,0,0,0,.3-.228,2.6,2.6,0,0,0,.174-.725h.5q-.108,1.256-.109,4.417h-.5a5.61,5.61,0,0,0-1.007-2.956,2.955,2.955,0,0,0-2.544-1.2,2.645,2.645,0,0,0-1.905.7,2.391,2.391,0,0,0-.736,1.808,2.642,2.642,0,0,0,.378,1.429,3.778,3.778,0,0,0,.964,1.039q.584.435,1.667,1.1l.629.389a21.824,21.824,0,0,1,2.154,1.484,5.286,5.286,0,0,1,1.267,1.461,3.784,3.784,0,0,1,.476,1.927,3.722,3.722,0,0,1-1.3,3.041,5,5,0,0,1-3.292,1.072,5.569,5.569,0,0,1-1.7-.216,6.118,6.118,0,0,1-1.267-.584,1.568,1.568,0,0,0-.736-.3.334.334,0,0,0-.3.227,2.59,2.59,0,0,0-.174.727h-.5q.086-1.191.087-5.2h.5a7.065,7.065,0,0,0,1.083,3.551,3.221,3.221,0,0,0,2.858,1.365,2.905,2.905,0,0,0,1.992-.726,2.72,2.72,0,0,0,.823-2.154,2.859,2.859,0,0,0-.812-2.057,13.013,13.013,0,0,0-2.566-1.906,24.089,24.089,0,0,1-2.068-1.385,5,5,0,0,1-1.288-1.461,3.908,3.908,0,0,1-.5-2,3.4,3.4,0,0,1,1.169-2.782,5.065,5.065,0,0,1,4.407-.758Z" transform="translate(-357.045 -308.699)" fill="#fff"/>
      <path id="Path_453" data-name="Path 453" d="M566.833,323.911v.434q-.867-.064-2.317-.066-1.863,0-2.772.066v-.434a3.544,3.544,0,0,0,1.18-.2.6.6,0,0,0,.357-.6,2.963,2.963,0,0,0-.26-1.017l-1.32-3.552h-5.24l-.887,2.295a5.675,5.675,0,0,0-.433,1.776,1.074,1.074,0,0,0,.465.974,2.744,2.744,0,0,0,1.419.325v.434q-1.236-.064-2.49-.066-.975,0-1.624.066v-.434q1.082-.259,1.711-1.884l5.088-13.122h.346l5.284,13.62Q565.858,323.87,566.833,323.911Zm-5.305-5.8-2.426-6.475-2.468,6.475Z" transform="translate(-361.38 -308.711)" fill="#fff"/>
      <path id="Path_454" data-name="Path 454" d="M595.177,309.05a10.12,10.12,0,0,1,1.8,1.049.844.844,0,0,0,.433.218q.411,0,.541-1.322h.5q-.087,1.408-.087,4.981h-.5a17.593,17.593,0,0,0-.411-1.9,3.7,3.7,0,0,0-.671-1.31,4.381,4.381,0,0,0-1.635-1.235,5.088,5.088,0,0,0-2.111-.454,3.736,3.736,0,0,0-2.512.931,5.9,5.9,0,0,0-1.667,2.652,12.5,12.5,0,0,0-.585,4.018q0,3.9,1.245,5.705a4.413,4.413,0,0,0,3.909,1.809,3.806,3.806,0,0,0,2.252-.672,1.4,1.4,0,0,0,.509-.509,1.606,1.606,0,0,0,.12-.683v-2.078a3.668,3.668,0,0,0-.174-1.321.979.979,0,0,0-.606-.563,5.455,5.455,0,0,0-1.408-.195v-.433q1.126.066,3.053.065,1.472,0,2.252-.065v.433a1.865,1.865,0,0,0-.726.174.693.693,0,0,0-.3.5,6.5,6.5,0,0,0-.076,1.192v4.287h-.433a2.734,2.734,0,0,0-.174-.835q-.151-.4-.411-.4a.581.581,0,0,0-.26.065,4,4,0,0,0-.454.3,5.8,5.8,0,0,1-1.57.877,5.324,5.324,0,0,1-1.809.291,7.515,7.515,0,0,1-3.822-.92,6.028,6.028,0,0,1-2.436-2.652,9.339,9.339,0,0,1-.845-4.136,9.915,9.915,0,0,1,.9-4.341,6.806,6.806,0,0,1,2.479-2.881,6.55,6.55,0,0,1,3.595-1.006A5.3,5.3,0,0,1,595.177,309.05Z" transform="translate(-364.238 -308.693)" fill="#fff"/>
      <path id="Path_455" data-name="Path 455" d="M630.775,324.356q-1.474-.064-4.96-.066-4.158,0-6.28.066v-.434a4.293,4.293,0,0,0,1.137-.173.774.774,0,0,0,.487-.5,3.9,3.9,0,0,0,.13-1.191V311.32a3.917,3.917,0,0,0-.13-1.192.777.777,0,0,0-.487-.5,4.322,4.322,0,0,0-1.137-.174v-.433q2.122.066,6.28.065,3.183,0,4.526-.065a24.613,24.613,0,0,0-.151,2.555,10.972,10.972,0,0,0,.064,1.342h-.5a10.091,10.091,0,0,0-.39-2.089,1.749,1.749,0,0,0-.8-1,3.628,3.628,0,0,0-1.711-.314h-1.8a3.911,3.911,0,0,0-1.137.12.746.746,0,0,0-.487.486,3.917,3.917,0,0,0-.13,1.192v5.111h1.43a1.638,1.638,0,0,0,1.721-1.2,7.69,7.69,0,0,0,.227-1.224l.065-.433h.5q-.064.909-.065,2.036v1.039q0,1.1.13,3.074h-.5q-.021-.151-.13-1.05a2.13,2.13,0,0,0-.6-1.353,1.907,1.907,0,0,0-1.352-.455H623.3v5.2a3.9,3.9,0,0,0,.13,1.191.743.743,0,0,0,.487.487,3.9,3.9,0,0,0,1.137.12h1.581a4.645,4.645,0,0,0,2.047-.358,2.156,2.156,0,0,0,1.029-1.147,8.739,8.739,0,0,0,.476-2.328h.5a14.515,14.515,0,0,0-.066,1.559Q630.623,322.817,630.775,324.356Z" transform="translate(-367.116 -308.721)" fill="#fff"/>
      <path id="Path_456" data-name="Path 456" d="M664.624,309.457a3.034,3.034,0,0,0-1.126.228.958.958,0,0,0-.5.606,4.5,4.5,0,0,0-.13,1.246v12.927h-.5l-9.094-14.053v11.433a4.136,4.136,0,0,0,.141,1.256.975.975,0,0,0,.553.6,3.777,3.777,0,0,0,1.277.227v.434q-.778-.064-2.208-.066-1.3,0-2.013.066v-.434a3.021,3.021,0,0,0,1.125-.227.958.958,0,0,0,.5-.606,4.5,4.5,0,0,0,.131-1.246V311.32a3.916,3.916,0,0,0-.131-1.192.779.779,0,0,0-.486-.5,4.328,4.328,0,0,0-1.137-.174v-.433q.714.066,2.013.065.975,0,1.689-.065l7.643,11.78v-9.268a4.143,4.143,0,0,0-.14-1.256.976.976,0,0,0-.552-.6,3.8,3.8,0,0,0-1.278-.228v-.433q.78.066,2.209.065,1.3,0,2.013-.065Z" transform="translate(-369.827 -308.721)" fill="#fff"/>
      <path id="Path_457" data-name="Path 457" d="M694,309.06a7.549,7.549,0,0,1,1.776,1.039.694.694,0,0,0,.411.2q.433,0,.563-1.3h.5q-.086,1.408-.087,4.981h-.5a17.336,17.336,0,0,0-.433-2.025,3.654,3.654,0,0,0-.65-1.18,4.007,4.007,0,0,0-1.657-1.267,5.574,5.574,0,0,0-2.177-.422,3.59,3.59,0,0,0-2.458.931,6.059,6.059,0,0,0-1.634,2.652,12.569,12.569,0,0,0-.585,4.039,11.645,11.645,0,0,0,.628,4.049,5.687,5.687,0,0,0,1.743,2.566,3.975,3.975,0,0,0,2.524.877,5.542,5.542,0,0,0,2.1-.412,3.537,3.537,0,0,0,1.6-1.234,4.187,4.187,0,0,0,.628-1.3,15.576,15.576,0,0,0,.368-2.122h.5q0,3.725.087,5.2h-.5a3.861,3.861,0,0,0-.184-.985c-.08-.195-.192-.293-.335-.293a.952.952,0,0,0-.455.174,9.142,9.142,0,0,1-1.862,1.05,5.752,5.752,0,0,1-2.143.357,6.861,6.861,0,0,1-3.606-.931,6.216,6.216,0,0,1-2.4-2.7,9.569,9.569,0,0,1-.855-4.211,9.7,9.7,0,0,1,.877-4.223,6.8,6.8,0,0,1,2.448-2.859,6.405,6.405,0,0,1,3.562-1.017A5.9,5.9,0,0,1,694,309.06Z" transform="translate(-372.744 -308.693)" fill="#fff"/>
      <path id="Path_458" data-name="Path 458" d="M729.74,309.024v.433a1.774,1.774,0,0,0-.845.552,6.3,6.3,0,0,0-.888,1.375l-3.4,6.735v3.941a3.931,3.931,0,0,0,.13,1.191.776.776,0,0,0,.487.5,4.292,4.292,0,0,0,1.137.173v.434q-1-.064-2.75-.066-1.863,0-2.772.066v-.434a4.283,4.283,0,0,0,1.137-.173.775.775,0,0,0,.487-.5,3.9,3.9,0,0,0,.13-1.191v-3.248l-4.395-8.12a3.589,3.589,0,0,0-.683-.964.9.9,0,0,0-.574-.249v-.455q.844.066,1.905.065,2.1,0,3.032-.065v.455q-1.518,0-1.516.822a1.749,1.749,0,0,0,.216.759l3.593,6.907,2.772-5.5a4.395,4.395,0,0,0,.586-1.863.911.911,0,0,0-.476-.866,3.23,3.23,0,0,0-1.431-.282v-.433q1.236.066,2.491.065Q729.09,309.089,729.74,309.024Z" transform="translate(-375.502 -308.721)" fill="#fff"/>
    </g>
  </g>
</svg>
