<svg id="Group_2346" data-name="Group 2346" xmlns="http://www.w3.org/2000/svg" width="28.657" height="28.665" viewBox="0 0 28.657 28.665">
  <path id="Path_8710" data-name="Path 8710" d="M-840.777,325.448a14.35,14.35,0,0,0-14.331,14.259,14.332,14.332,0,0,0,14.219,14.4,14.343,14.343,0,0,0,14.438-14.325A14.361,14.361,0,0,0-840.777,325.448Zm8.491,22.647c-1.536,0-3.071,0-4.608.007a.548.548,0,0,1-.492-.264q-2.211-2.972-4.432-5.937c-.079-.1-.161-.207-.255-.327l-2.4,2.591c-1.141,1.233-2.277,2.471-3.43,3.693a.848.848,0,0,1-.507.227c-.385.034-.775.011-1.257.011l6.9-7.458-6.838-9.147c.166-.008.271-.018.376-.018,1.525,0,3.049,0,4.574-.007a.573.573,0,0,1,.523.264q1.968,2.654,3.952,5.3c.106.14.212.28.339.447l1.673-1.8c1.233-1.33,2.462-2.664,3.7-3.986a.736.736,0,0,1,.449-.2c.4-.028.811-.009,1.29-.009l-6.418,6.935,7.231,9.671C-832.077,348.086-832.182,348.1-832.286,348.1Z" transform="translate(855.108 -325.448)" fill="#fff"/>
  <path id="Path_8711" data-name="Path 8711" d="M-725.437,447.172c-.808,0-1.558.009-2.307-.011-.1,0-.213-.14-.287-.239q-4.569-6.1-9.132-12.205l-1.387-1.859c.825,0,1.567-.007,2.307.009.092,0,.2.118.269.206q3.542,4.723,7.075,9.453l3.276,4.38C-725.572,446.975-725.525,447.046-725.437,447.172Z" transform="translate(746.334 -425.683)" fill="#fff"/>
</svg>
