<svg xmlns="http://www.w3.org/2000/svg" width="216.909" height="216.519" viewBox="0 0 216.909 216.519">
  <g id="montreal-mayhem-logo" transform="translate(0)">
    <g id="Group_2485" data-name="Group 2485" transform="translate(18.545)">
      <path id="Path_8742" data-name="Path 8742" d="M158.627,0c-3.133.9-2.688,6.488-9.392,11.184-17.221,12.08-17.895,26.842-17.895,26.842L145.651,182.3l-6.7,6.482s-4.251,19.909,19.681,27.738Z" transform="translate(-68.709)" fill="#929497"/>
      <path id="Path_8743" data-name="Path 8743" d="M113.97,58.64s8.052,0,10.739,1.792c6.933,10.511,29.3,52.789,15.207,104.9Z" transform="translate(-62.072 -22.405)"/>
      <path id="Path_8744" data-name="Path 8744" d="M106.033,102.037s-8.725-8.5-2.237-19.909a44.286,44.286,0,0,0,5.37-23.487s38.027,66.661,22.82,104.237l-25.947-60.84Z" transform="translate(-57.268 -22.405)" fill="#929497"/>
      <path id="Path_8745" data-name="Path 8745" d="M57.719,167.779s4.7,5.592,3.578,17.895c-14.534-.9-30.865-10.072-31.31-34S59.511,112.3,76.955,120.576,107.6,155.693,100,166.2c0,0-12.976-35.79-45.633-25.273-18.117,6.037,3.355,26.842,3.355,26.842Z" transform="translate(-29.982 -45.209)"/>
      <path id="Path_8746" data-name="Path 8746" d="M108.041,180.16c0-17-8.052-37.8-32.657-45.182s-36.464,20.354-29.3,31.094S65.541,181.056,77.621,173c-11.184-2.008-24.155-6.488-18.785-18.562S85.9,152.2,85.9,152.2l22.146,27.961Z" transform="translate(-35.344 -51.101)" fill="#58595b"/>
      <g id="Group_2483" data-name="Group 2483" transform="translate(28.853 91.254)">
        <path id="Path_8747" data-name="Path 8747" d="M91.218,147.686c-23.265,0-11.635,19.013-11.635,19.013s25.724-13.644,36.235,27.961a95.258,95.258,0,0,1,3.207,19.761l5.067-4.109s6.26,17.673-6.26,27.51-19.9-1.786-20.8-5.592c0,0-1.347,17,17.221,17,5.821,0,16.777-3.578,17.221-25.05s-17.005-76.5-40.258-76.5Z" transform="translate(-76.676 -147.68)"/>
        <path id="Path_8748" data-name="Path 8748" d="M130.429,276.55c12.525-9.837,6.26-27.51,6.26-27.51l-5.067,4.109c.686,21.114-12.463,19.613-21.992,17.815.9,3.8,8.274,15.436,20.8,5.592Z" transform="translate(-89.267 -186.408)" fill="#929497"/>
      </g>
      <path id="Path_8749" data-name="Path 8749" d="M175.5,0c3.133.9,2.682,6.488,9.392,11.184,17.221,12.08,17.895,26.842,17.895,26.842L188.476,182.3l6.711,6.482s4.251,19.909-19.687,27.738Z" transform="translate(-85.581)"/>
      <path id="Path_8750" data-name="Path 8750" d="M218.173,58.64s-8.051,0-10.733,1.792c-6.933,10.511-29.3,52.789-15.213,104.9l25.946-106.69Z" transform="translate(-90.227 -22.405)" fill="#929497"/>
      <path id="Path_8751" data-name="Path 8751" d="M223.846,102.037s8.719-8.5,2.237-19.909a44.286,44.286,0,0,1-5.37-23.487S182.693,125.3,197.9,162.877l25.953-60.84Z" transform="translate(-92.768 -22.405)"/>
      <path id="Path_8752" data-name="Path 8752" d="M248.628,167.779s-4.7,5.592-3.578,17.895c14.54-.9,30.865-10.072,31.31-34s-29.524-39.368-46.968-31.094S198.743,155.693,206.35,166.2c0,0,12.97-35.79,45.633-25.273,18.117,6.037-3.355,26.842-3.355,26.842Z" transform="translate(-96.528 -45.209)" fill="#58595b"/>
      <path id="Path_8753" data-name="Path 8753" d="M203.38,180.16c0-17,8.051-37.8,32.657-45.182s36.457,20.354,29.3,31.094S245.881,181.056,233.8,173c11.184-2.008,24.154-6.488,18.791-18.562s-27.065-2.237-27.065-2.237l-22.14,27.961Z" transform="translate(-96.234 -51.101)"/>
      <g id="Group_2484" data-name="Group 2484" transform="translate(96.176 91.254)">
        <path id="Path_8754" data-name="Path 8754" d="M225.892,147.686c23.265,0,11.635,19.013,11.635,19.013S211.8,153.056,201.293,194.66a95.26,95.26,0,0,0-3.207,19.761l-5.067-4.109s-6.266,17.673,6.26,27.51,19.909-1.786,20.805-5.592c0,0,1.341,17-17.228,17-5.815,0-16.777-3.578-17.221-25.05s17-76.5,40.258-76.5Z" transform="translate(-185.627 -147.68)" fill="#929497"/>
        <path id="Path_8755" data-name="Path 8755" d="M202.881,276.55c-12.525-9.837-6.26-27.51-6.26-27.51l5.067,4.109c-.686,21.114,12.463,19.613,22,17.815-.89,3.8-8.274,15.436-20.805,5.592Z" transform="translate(-189.228 -186.408)"/>
      </g>
      <path id="Path_8756" data-name="Path 8756" d="M120.66,230.756c0-4.69,15.176-8.5,33.887-8.5s33.887,3.806,33.887,8.5V241.5c0,4.7-15.176,8.5-33.887,8.5s-33.887-3.806-33.887-8.5Z" transform="translate(-64.628 -84.921)" fill="#58595b"/>
      <path id="Path_8757" data-name="Path 8757" d="M188.434,253.39c0,4.7-15.176,8.5-33.887,8.5s-33.887-3.806-33.887-8.5c0,0,4.239,4.381,33.887,4.381s33.887-4.381,33.887-4.381Z" transform="translate(-64.628 -96.815)"/>
      <path id="Path_8758" data-name="Path 8758" d="M120.66,230.756c0-4.69,15.176-8.5,33.887-8.5s33.887,3.806,33.887,8.5c0,0-4.239-4.381-33.887-4.381S120.66,230.756,120.66,230.756Z" transform="translate(-64.628 -84.921)"/>
    </g>
    <g id="Group_2486" data-name="Group 2486" transform="translate(11.842 45.726)">
      <path id="Path_8759" data-name="Path 8759" d="M212.306,177.4c-.593-1.322-2.157-2.082-5.926-2.774V119.263a62.979,62.979,0,0,1,2.985,7.162,2.092,2.092,0,0,0,.13.334,1.35,1.35,0,0,0,2.478-1.057l-.019-.062c-.321-1.508-.192-13.094.093-23.345a1.337,1.337,0,0,0-.383-.976,1.357,1.357,0,0,0-.964-.408,214.472,214.472,0,0,1-48.945-5.283c-19.767-4.653-36.173-12.389-45.009-21.232a1.343,1.343,0,0,0-1.9,0C102.612,86.624,70.666,100.91,20.88,100.91a1.346,1.346,0,0,0-1.347,1.347V119.51a15.092,15.092,0,0,0,.043,6.982,1.347,1.347,0,0,0,1.3,1,.9.9,0,0,0,.179-.012,1.346,1.346,0,0,0,1.174-1.335V119.9a4.939,4.939,0,0,1,3.368-3.38v57.689c-.049-.019-.1-.031-.148-.049a8.372,8.372,0,0,0-2.546-.556,2.847,2.847,0,0,0-2.249.976c-.952,1.112-1.162,3.015-.686,6.167a1.114,1.114,0,0,0,.062.247,10.241,10.241,0,0,0,9.547,6.915c27.677,0,48.216,4.752,60.581,8.737,13.106,4.227,19.946,8.466,20.212,8.626a9.864,9.864,0,0,0,10.838.019c.284-.179,7.131-4.418,20.237-8.645,12.358-3.986,32.9-8.737,60.581-8.737a10.029,10.029,0,0,0,9.491-6.748c.754-1.193,1.4-2.459.816-3.757Z" transform="translate(-19.134 -74)"/>
      <path id="Path_8760" data-name="Path 8760" d="M32.87,160.432V183.95a2.488,2.488,0,0,0,2.484,2.484c28.659,0,50.021,4.95,62.9,9.1,13.718,4.418,21.121,8.929,21.924,9.429l.117.074a2.3,2.3,0,0,0,2.558,0l.117-.074c.8-.5,8.206-5.011,21.924-9.429,12.877-4.152,34.239-9.1,62.9-9.1a2.488,2.488,0,0,0,2.484-2.484V114.484c-20.527-.5-39.874-3.46-56.286-8.645-1.02-.321-2.021-.655-3.015-.995-11.889-4.047-22.054-9.281-29.394-15.114-7.959,6.321-19.23,11.944-32.416,16.109-16.412,5.184-35.759,8.15-56.286,8.645v45.949Z" transform="translate(-24.382 -80.01)" fill="#06c"/>
      <path id="Path_8761" data-name="Path 8761" d="M162.631,111.13c-5.32.408-10.752,1.013-16.257,1.811q1.492.51,3.022.995c16.412,5.184,35.759,8.15,56.286,8.645v6.266c2.391.426,6.21,11.481,6.21,11.481-.636-1.236,0-23.883,0-23.883a215.948,215.948,0,0,1-49.254-5.314Zm43.051,80.923a2.488,2.488,0,0,1-2.484,2.484c-28.659,0-50.021,4.95-62.9,9.1-13.718,4.424-21.121,8.929-21.924,9.429l-.117.074a2.3,2.3,0,0,1-2.558,0l-.117-.074c-.8-.5-8.206-5.005-21.924-9.429-12.877-4.152-34.239-9.1-62.9-9.1a2.488,2.488,0,0,1-2.484-2.484v-2.021c-2.064.383-7.168-4.325-5.79,4.7a8.839,8.839,0,0,0,8.274,6.012c27.85,0,48.538,4.783,60.995,8.8,13.186,4.251,20.175,8.558,20.54,8.787a8.511,8.511,0,0,0,9.38,0c.365-.229,7.353-4.536,20.54-8.787,12.451-4.016,33.139-8.8,60.995-8.8a8.694,8.694,0,0,0,8.262-5.981c1.693-2.632,1.693-3.732-5.778-4.9v2.187Z" transform="translate(-20.326 -88.187)" fill="#929497"/>
      <path id="Path_8762" data-name="Path 8762" d="M27.9,115.663V109.23c20.527-.5,39.874-3.46,56.286-8.645,13.186-4.165,24.457-9.788,32.416-16.109,7.347,5.833,17.512,11.067,29.394,15.114,5.506-.8,10.937-1.4,16.257-1.811-21.93-5.166-37.465-13.4-45.652-21.59-13.39,13.39-46.406,26.9-94.913,26.9v23.883s-2.756-10.344,6.21-11.314Z" transform="translate(-19.959 -74.837)" fill="#58595b"/>
      <path id="Path_8763" data-name="Path 8763" d="M120.475,205.367a2.634,2.634,0,0,1-1.471-.445l-.117-.074c-.791-.494-8.181-4.987-21.843-9.392-12.853-4.14-34.177-9.083-62.793-9.083a2.83,2.83,0,0,1-2.83-2.83v-2.021h.692v2.021a2.139,2.139,0,0,0,2.138,2.138c28.7,0,50.107,4.956,63,9.114,13.743,4.431,21.195,8.96,22,9.467l.124.08a1.961,1.961,0,0,0,2.181,0l.124-.08c.809-.5,8.249-5.03,22-9.467,12.9-4.159,34.3-9.114,63-9.114a2.139,2.139,0,0,0,2.138-2.138v-2.187h.692v2.187a2.834,2.834,0,0,1-2.83,2.83c-28.616,0-49.94,4.937-62.793,9.083-13.675,4.412-21.046,8.9-21.844,9.392l-.117.074a2.649,2.649,0,0,1-1.464.445ZM32.118,120.508h-.692v-6.772h.334c20.459-.507,39.893-3.491,56.194-8.639,13.143-4.152,24.315-9.7,32.3-16.054l.216-.173.216.173c7.329,5.821,17.462,11.03,29.3,15.059,1.137.389,2.095.7,3.009.995,16.3,5.147,35.728,8.138,56.194,8.632h.334v6.612h-.692v-5.926c-20.4-.519-39.776-3.516-56.045-8.657-.921-.29-1.885-.606-3.028-.995-11.79-4.016-21.911-9.2-29.283-15-8.045,6.327-19.211,11.858-32.311,16-16.27,5.141-35.648,8.132-56.045,8.657v6.1Z" transform="translate(-23.828 -79.682)"/>
    </g>
    <g id="Group_2492" data-name="Group 2492" transform="translate(40.993 138.791)">
      <g id="Group_2490" data-name="Group 2490">
        <g id="Group_2487" data-name="Group 2487" transform="translate(0 12.803)">
          <path id="Path_8764" data-name="Path 8764" d="M97.132,271.8c-9.763,2.194-16.931,5.642-27.238,10.789l5.6-15.85-7.878-9.677A132.484,132.484,0,0,1,97.41,246.4Z" transform="translate(-66.811 -245.739)"/>
          <path id="Path_8765" data-name="Path 8765" d="M68.479,283.208l5.932-16.783-8.1-9.955.581-.29a133.819,133.819,0,0,1,29.907-10.7l.643-.148L97.15,271.8l-.4.087c-9.683,2.175-16.61,5.5-27.114,10.746l-1.143.575Zm-.55-26.385,7.656,9.4-5.271,14.917c9.85-4.9,16.752-8.089,25.8-10.165l.266-24.334a132.292,132.292,0,0,0-28.455,10.183Z" transform="translate(-66.31 -245.33)" fill="#a6a8ab"/>
        </g>
        <g id="Group_2488" data-name="Group 2488" transform="translate(103.823 12.809)">
          <path id="Path_8766" data-name="Path 8766" d="M235.444,271.8c9.757,2.194,16.931,5.642,27.232,10.789l-5.6-15.85,7.879-9.677A132.484,132.484,0,0,0,235.16,246.4l.278,25.4Z" transform="translate(-234.647 -245.745)"/>
          <path id="Path_8767" data-name="Path 8767" d="M263.28,283.212l-1.143-.575c-10.5-5.246-17.438-8.571-27.114-10.746l-.4-.087-.29-26.466.643.148a133.513,133.513,0,0,1,29.907,10.7l.581.29-8.1,9.955,5.932,16.783Zm-27.64-12.235c9.059,2.082,15.961,5.265,25.8,10.165l-5.271-14.917,7.656-9.4a132.955,132.955,0,0,0-28.455-10.183l.266,24.334Z" transform="translate(-234.33 -245.34)" fill="#a6a8ab"/>
        </g>
        <g id="Group_2489" data-name="Group 2489" transform="translate(15.473)">
          <path id="Path_8768" data-name="Path 8768" d="M195.148,264.425s-48.562-22.165-102.958-.08v-29.1c54.4-22.078,102.958.086,102.958.086v29.1Z" transform="translate(-91.671 -224.933)"/>
          <path id="Path_8769" data-name="Path 8769" d="M195.346,264.9l-.735-.334c-.216-.1-21.893-9.825-51.986-9.825A133.848,133.848,0,0,0,92.061,264.5l-.711.29V234.571l.321-.13a134.741,134.741,0,0,1,50.948-9.831c30.334,0,52.2,9.825,52.418,9.924l.3.136V264.9Zm-52.721-11.2a141.4,141.4,0,0,1,51.683,9.609V235.343c-2.725-1.174-23.518-9.7-51.683-9.7a133.824,133.824,0,0,0-50.237,9.621v27.979a134.829,134.829,0,0,1,50.237-9.541Z" transform="translate(-91.35 -224.61)" fill="#a6a8ab"/>
        </g>
      </g>
      <g id="Group_2491" data-name="Group 2491" transform="translate(20.836 6.612)">
        <path id="Path_8770" data-name="Path 8770" d="M190.253,259.366a2.486,2.486,0,0,1-.766-.124c-.939-.3-1.9-.606-2.849-.9a2.488,2.488,0,0,1-1.675-1.718,2.5,2.5,0,0,1-1.687.661,2.271,2.271,0,0,1-.643-.087q-1.214-.324-2.428-.63a2.481,2.481,0,0,1-1.73-1.551c-.012-.031-.025-.068-.037-.1-.068.068-.142.136-.216.2a2.5,2.5,0,0,1-1.563.556,2.542,2.542,0,0,1-.531-.056c-.97-.21-1.953-.414-2.9-.6a2.365,2.365,0,0,1-.451-.136h-.012a2.352,2.352,0,0,1-.463-.043c-3.584-.673-7.236-1.217-10.857-1.613a2.456,2.456,0,0,1-.674-.173,2.232,2.232,0,0,1-.451.043,1.7,1.7,0,0,1-.247-.012c-1.032-.105-2.089-.2-3.139-.272a2.5,2.5,0,0,1-2.292-2.478v-2.089c-.636-.037-1.273-.068-1.909-.1v1.835a2.489,2.489,0,0,1-2.484,2.484h-.068c-1.038-.025-2.095-.043-3.145-.049a2.482,2.482,0,0,1-2.472-2.484V245.16q-.473.686-.908,1.335v3.541a2.478,2.478,0,0,1-2.391,2.484c-1.032.037-2.076.086-3.1.148h-.148a2.487,2.487,0,0,1-1.532-.525,2.471,2.471,0,0,1-1.588.754c-1.118.093-2.262.2-3.386.321a1.952,1.952,0,0,1-.266.012,2.488,2.488,0,0,1-2.28-1.5l-.117-.266c-1.075.136-2.157.284-3.232.445l-.334.859a2.5,2.5,0,0,1-1.909,1.557c-1.112.185-2.249.389-3.38.612-.074.012-.142.025-.216.031s-.142.037-.216.056c-.958.185-1.934.389-2.91.6a2.543,2.543,0,0,1-.531.056,2.479,2.479,0,0,1-1.563-.556c-.068-.056-.136-.111-.2-.173-.006.019-.019.043-.025.068a2.481,2.481,0,0,1-1.73,1.551q-1.214.306-2.428.63a2.515,2.515,0,0,1-.643.087,2.486,2.486,0,0,1-1.712-.686,2.479,2.479,0,0,1-1.687,1.749c-.97.3-1.934.593-2.849.9a2.484,2.484,0,0,1-3.25-2.36V244.727a2.476,2.476,0,0,1,1.718-2.36c1.8-.587,3.627-1.137,5.438-1.65a2.484,2.484,0,0,1,2.972,1.452c.124.309.253.618.377.927.26-.766.519-1.526.779-2.292a2.466,2.466,0,0,1,1.78-1.619c1.817-.433,3.664-.828,5.5-1.186a2.434,2.434,0,0,1,2.051.519,2.479,2.479,0,0,1,.9,1.916v.3c.3-.742.6-1.489.9-2.231a2.493,2.493,0,0,1,1.922-1.52c1.576-.241,3.182-.463,4.783-.655a2.386,2.386,0,0,1,.3-.019,2.5,2.5,0,0,1,1.18.3,2.442,2.442,0,0,1,1.384-.593c1.359-.136,2.731-.253,4.066-.346h.179a2.485,2.485,0,0,1,2.033,1.057c.371.531.742,1.057,1.112,1.594.377-.6.754-1.2,1.131-1.8a2.491,2.491,0,0,1,2.039-1.162c1.261-.031,2.533-.049,3.788-.049h.253a1.233,1.233,0,0,1,.21.012c.056,0,.124-.006.192-.006,1.088,0,2.181.019,3.269.049a2.47,2.47,0,0,1,2.416,2.484V239.8c.636.031,1.273.062,1.909.1v-1.693a2.485,2.485,0,0,1,2.484-2.484c.062,0,.124,0,.185.006,1.075.08,2.169.179,3.25.284a2.46,2.46,0,0,1,.7.173,2.231,2.231,0,0,1,.451-.043,1.955,1.955,0,0,1,.266.012c3.738.408,7.5.964,11.191,1.662a2.388,2.388,0,0,1,.494.148h.043a3.025,3.025,0,0,1,.476.043c1.835.358,3.7.76,5.53,1.2a2.477,2.477,0,0,1,1.78,1.619c.26.766.519,1.532.779,2.293l.377-.927a2.484,2.484,0,0,1,2.972-1.452c1.817.513,3.64,1.063,5.413,1.644a2.482,2.482,0,0,1,1.718,2.36v12.161a2.49,2.49,0,0,1-2.484,2.484Z" transform="translate(-100.03 -235.31)" fill="#06c"/>
        <path id="Path_8771" data-name="Path 8771" d="M131.377,239.036a1.249,1.249,0,0,0-1.131-.729,1.187,1.187,0,0,0-.148.006c-1.582.192-3.176.408-4.746.649a1.245,1.245,0,0,0-.964.76c-1.106,2.719-2.206,5.456-3.294,8.175V241.18a1.242,1.242,0,0,0-1.242-1.242,1.063,1.063,0,0,0-.241.025c-1.811.352-3.646.748-5.45,1.18a1.238,1.238,0,0,0-.89.809q-.927,2.716-1.841,5.45c-.544-1.341-1.094-2.682-1.637-4.01a1.246,1.246,0,0,0-1.149-.772,1.328,1.328,0,0,0-.34.049c-1.8.507-3.615,1.057-5.394,1.637a1.241,1.241,0,0,0-.859,1.18v12.161a1.239,1.239,0,0,0,1.242,1.242,1.158,1.158,0,0,0,.383-.062c.933-.3,1.9-.606,2.873-.9a1.246,1.246,0,0,0,.884-1.2l-.037-4.566c.593,1.3,1.18,2.608,1.773,3.911a1.245,1.245,0,0,0,1.131.729,1.149,1.149,0,0,0,.321-.043c.816-.216,1.631-.433,2.447-.63a1.232,1.232,0,0,0,.865-.779q.862-2.345,1.736-4.7l-.025,3.294a1.268,1.268,0,0,0,.457.976,1.254,1.254,0,0,0,.785.278,1.288,1.288,0,0,0,.266-.025c.983-.216,1.971-.42,2.929-.606a1.244,1.244,0,0,0,.216-.062.91.91,0,0,0,.222-.025c1.131-.216,2.274-.426,3.411-.612a1.242,1.242,0,0,0,.952-.779l.593-1.526c1.625-.253,3.263-.482,4.9-.673l.488,1.118a1.241,1.241,0,0,0,1.137.748,1.05,1.05,0,0,0,.136-.006c1.125-.124,2.274-.229,3.417-.328a1.231,1.231,0,0,0,.964-.606,1.253,1.253,0,0,0,.068-1.137c-1.712-3.843-3.467-7.755-5.215-11.635ZM191.4,244.3c-1.767-.575-3.572-1.118-5.364-1.625a1.254,1.254,0,0,0-.34-.049,1.239,1.239,0,0,0-1.149.772q-.816,2-1.637,4.01c-.612-1.817-1.23-3.633-1.841-5.45a1.238,1.238,0,0,0-.89-.809c-1.817-.433-3.664-.828-5.481-1.186a1.063,1.063,0,0,0-.241-.025,1.433,1.433,0,0,0-.284.037,1.3,1.3,0,0,0-.482-.21c-3.658-.692-7.384-1.242-11.085-1.644-.043,0-.093-.006-.136-.006a1.248,1.248,0,0,0-.593.155,1.21,1.21,0,0,0-.68-.29c-1.063-.105-2.15-.2-3.219-.278h-.093a1.243,1.243,0,0,0-1.242,1.242v3.015c-1.458-.1-2.929-.173-4.393-.222v-3.145a1.244,1.244,0,0,0-1.211-1.242c-1.081-.031-2.169-.043-3.232-.049h0a1.834,1.834,0,0,0-.192.019,1.154,1.154,0,0,0-.21-.019h-.253c-1.242,0-2.5.019-3.757.049a1.25,1.25,0,0,0-1.02.581c-.711,1.125-1.415,2.255-2.126,3.392q-1.094-1.576-2.187-3.127a1.24,1.24,0,0,0-1.013-.531h-.086c-1.329.093-2.688.21-4.035.346a1.24,1.24,0,0,0-.853,2c1.823,2.323,3.658,4.7,5.462,7.057v3.881a1.244,1.244,0,0,0,1.242,1.242h.074c1.026-.062,2.076-.111,3.12-.148a1.246,1.246,0,0,0,1.2-1.242v-3.918c1.118-1.65,2.255-3.3,3.392-4.943v8.768a1.241,1.241,0,0,0,1.236,1.242c1.05,0,2.119.025,3.176.049h.031a1.225,1.225,0,0,0,.865-.352,1.244,1.244,0,0,0,.377-.89v-3.127c1.458.056,2.929.13,4.393.229v3.25a1.24,1.24,0,0,0,1.149,1.236c1.063.08,2.126.173,3.164.278h.124a1.249,1.249,0,0,0,.593-.154,1.236,1.236,0,0,0,.667.29c3.658.4,7.341.945,10.95,1.625a1.489,1.489,0,0,0,.229.019.724.724,0,0,1,.7.154c.958.185,1.946.389,2.929.606a1.291,1.291,0,0,0,.266.025,1.267,1.267,0,0,0,.785-.278,1.249,1.249,0,0,0,.457-.976l-.025-3.386c.593,1.594,1.18,3.195,1.773,4.8a1.259,1.259,0,0,0,.865.779c.816.2,1.631.414,2.447.636a1.486,1.486,0,0,0,.321.043,1.245,1.245,0,0,0,1.131-.729q.871-1.919,1.743-3.831l-.037,4.474a1.253,1.253,0,0,0,.884,1.2c.958.29,1.922.593,2.873.9a1.157,1.157,0,0,0,.383.062,1.239,1.239,0,0,0,1.242-1.242V245.475a1.241,1.241,0,0,0-.859-1.18Z" transform="translate(-100.802 -236.07)" fill="#fff"/>
        <path id="Path_8772" data-name="Path 8772" d="M104.07,247.885c1.773-.575,3.559-1.118,5.345-1.619q1.446,3.541,2.9,7.106,1.455-4.319,2.91-8.614,2.7-.64,5.4-1.168v12.161c-.989.192-1.971.4-2.96.612l.074-9.12c-.161.037-.327.068-.488.105q-1.854,4.959-3.7,9.973c-.822.2-1.65.42-2.466.643q-1.835-4.06-3.664-8.064c-.173.056-.346.105-.519.154q.037,4.542.074,9.083c-.97.29-1.934.593-2.9.908V247.885Z" transform="translate(-101.574 -238.474)"/>
        <path id="Path_8773" data-name="Path 8773" d="M143.3,252.9l-.853-1.965q-3.29.371-6.575.9c-.284.729-.569,1.464-.847,2.2q-1.724.287-3.442.618,2.614-6.581,5.246-13.069,2.345-.361,4.7-.643,2.6,5.765,5.215,11.629Q145.02,252.708,143.3,252.9Zm-1.916-4.5c-.636-1.458-1.279-2.91-1.916-4.356-.2.025-.4.056-.606.08q-.955,2.438-1.916,4.882,2.215-.334,4.43-.606Z" transform="translate(-112.085 -237.461)"/>
        <path id="Path_8774" data-name="Path 8774" d="M152.226,240.008c1.335-.13,2.663-.247,4-.34q1.631,2.317,3.256,4.678,1.557-2.512,3.121-4.987c1.322-.037,2.651-.049,3.973-.049q-2.734,3.921-5.475,7.953v4.3c-1.05.037-2.1.093-3.151.154v-4.3q-2.864-3.754-5.728-7.4Z" transform="translate(-119.971 -236.838)"/>
        <path id="Path_8775" data-name="Path 8775" d="M176.1,239.31c1.069,0,2.138.025,3.2.049v4.35q3.439.093,6.877.352v-4.344c1.063.08,2.132.173,3.195.278v12.161c-1.063-.105-2.132-.2-3.195-.278v-4.412q-3.439-.26-6.877-.352v4.412c-1.069-.031-2.132-.043-3.2-.049V239.316Z" transform="translate(-129.095 -236.838)"/>
        <path id="Path_8776" data-name="Path 8776" d="M199.84,240.65q5.515.593,10.993,1.631v2.861q-3.986-.751-8-1.273v1.755q3.809.5,7.594,1.2v2.669q-3.782-.7-7.594-1.2v1.953q4.041.528,8.058,1.285v2.923q-5.5-1.038-11.048-1.637V240.656Z" transform="translate(-138.165 -237.35)"/>
        <path id="Path_8777" data-name="Path 8777" d="M219.24,243.59q2.725.538,5.432,1.174,1.455,4.291,2.91,8.614,1.455-3.568,2.9-7.106c1.78.5,3.553,1.044,5.32,1.613v12.161q-1.446-.473-2.9-.908.037-4.542.074-9.083c-.161-.049-.321-.1-.482-.142q-1.826,4-3.664,8.064c-.822-.222-1.644-.433-2.465-.643q-1.844-5.014-3.7-9.973l-.525-.111.074,9.121c-.982-.216-1.971-.42-2.96-.612V243.6Z" transform="translate(-145.578 -238.474)"/>
      </g>
    </g>
    <g id="Group_2493" data-name="Group 2493" transform="translate(0 65.048)">
      <path id="Path_8778" data-name="Path 8778" d="M212.1,196.9a4.964,4.964,0,0,1-1-.154c-5.067-1.372-10.208-2.663-15.281-3.831a4.794,4.794,0,0,1-2.082-1.069,4.452,4.452,0,0,1-1.31.192h-.173a5.094,5.094,0,0,1-.809-.105c-2.206-.482-4.517-.964-6.884-1.44a4.973,4.973,0,0,1-3.905-4.443l-.433-4.709-.29,3.04a4.86,4.86,0,0,1-1.773,3.318,4.587,4.587,0,0,1-2.836.989h-.136a4.517,4.517,0,0,1-.655-.068c-2.373-.408-4.746-.8-7.05-1.155a4.721,4.721,0,0,1-1.755-.655,4.584,4.584,0,0,1-1.193.161h-.117a3.934,3.934,0,0,1-.531-.043c-6.062-.884-12.2-1.625-18.247-2.212a4.679,4.679,0,0,1-2.867-1.366,4.582,4.582,0,0,1-2.657.853,3.26,3.26,0,0,1-.383-.012c-2.367-.2-4.752-.371-7.075-.513a4.664,4.664,0,0,1-2.935-1.3,4.576,4.576,0,0,1-2.83.97h-.2c-2.354-.117-4.739-.2-7.112-.278a4.867,4.867,0,0,1-4.61-4.9V130.345c-.3,0-.593-.012-.9-.012v47.691a5.024,5.024,0,0,1-1.359,3.436,4.622,4.622,0,0,1-3.355,1.446h-.9c-2.089,0-4.177.019-6.2.049a4.659,4.659,0,0,1-3.4-1.421,5,5,0,0,1-1.384-3.454V130.444c-.3.006-.6.019-.9.025v47.876a4.834,4.834,0,0,1-4.554,4.906c-2.756.117-5.561.266-8.342.451-.093,0-.179.006-.26.006a4.627,4.627,0,0,1-3.386-1.452,4.731,4.731,0,0,1-3.436,1.965c-2.36.2-4.739.42-7.081.655-.142.012-.26.019-.383.025h-.08a4.634,4.634,0,0,1-4.072-2.459,10.146,10.146,0,0,1-6.47,3.714c-3.578.47-7.168.989-10.678,1.545a7.948,7.948,0,0,1-1.149.105h-.247a8.554,8.554,0,0,1-5.7-2.163,4.984,4.984,0,0,1-3.887,3.961c-2.323.439-4.69.9-7.044,1.39a4.4,4.4,0,0,1-.772.093h-.161A4.54,4.54,0,0,1,25.91,190a4.813,4.813,0,0,1-1.662-3.677v-7.081c-.08.019-.161.043-.241.062-1.946.433-3.862.871-5.7,1.31a4.893,4.893,0,0,1-.89.124h-.185a3.356,3.356,0,0,1-.5-.025v9.25A5.055,5.055,0,0,1,13,194.85c-2.391.606-4.832,1.242-7.242,1.9a4.566,4.566,0,0,1-1,.154h-.21a4.509,4.509,0,0,1-2.818-.989A4.759,4.759,0,0,1-.03,192.168V131.791a5.094,5.094,0,0,1,3.658-4.882c2.367-.643,4.777-1.273,7.149-1.878a4.418,4.418,0,0,1,.939-.136h.2a4.577,4.577,0,0,1,4.375,3.318q1.872,6.229,3.738,12.482c1.483-5.444,2.954-10.82,4.4-16.084a4.978,4.978,0,0,1,3.72-3.565c2.367-.488,4.789-.97,7.186-1.421a4.622,4.622,0,0,1,.711-.074h.142a4.543,4.543,0,0,1,2.991,1.125,4.716,4.716,0,0,1,.884,1.038,10.327,10.327,0,0,1,6.476-4.035c3.59-.575,7.254-1.106,10.894-1.582a8.542,8.542,0,0,1,.97-.074h.2a8.5,8.5,0,0,1,5.926,2.379,4.876,4.876,0,0,1,4.14-3.615c2.935-.3,5.907-.568,8.836-.8.1-.006.2-.012.309-.012a4.676,4.676,0,0,1,3.238,1.285,4.72,4.72,0,0,1,3.368-1.761c2.4-.148,4.832-.278,7.236-.377h.173a4.66,4.66,0,0,1,1.848.377,4.659,4.659,0,0,1,2-.525c4.227-.136,8.515-.21,12.748-.21,2.447,0,4.906.025,7.359.068a4.543,4.543,0,0,1,2,.5,4.581,4.581,0,0,1,1.891-.408h.087c4.974.142,9.979.389,14.923.717a9.709,9.709,0,0,1,6.989,3.887,4.83,4.83,0,0,1,1.125-1.662,4.175,4.175,0,0,1,.4-.34l-.173-.47a5.044,5.044,0,0,1,.167-3.874,4.7,4.7,0,0,1,2.91-2.515c3.85-1.131,7.767-2.218,11.654-3.244a4.643,4.643,0,0,1,1.162-.148h.105A4.853,4.853,0,0,1,163.4,108.5l2,5.506a5.1,5.1,0,0,1,.124,3.065,5,5,0,0,1,3.09,4.641v7.415l.643-6.507a4.863,4.863,0,0,1,1.767-3.306,4.56,4.56,0,0,1,2.842-.995H174a5.55,5.55,0,0,1,.636.062c4.245.723,8.552,1.532,12.8,2.4a5,5,0,0,1,3.893,4.449l.68,7.384v-4.968a4.8,4.8,0,0,1,1.7-3.708,4.525,4.525,0,0,1,2.9-1.057h.173a4.969,4.969,0,0,1,.853.117c2.373.55,4.789,1.125,7.168,1.724a5.056,5.056,0,0,1,3.738,4.894V178.29c1.557.4,3.127.822,4.684,1.242a5.094,5.094,0,0,1,3.658,4.882v7.761a4.759,4.759,0,0,1-1.761,3.745,4.535,4.535,0,0,1-2.818.989h-.2ZM157.9,168.5c2.237.284,4.5.593,6.735.915l3.819-38.707a4.836,4.836,0,0,1-1.415,2.367,4.555,4.555,0,0,1-3.077,1.193h-.111a3.94,3.94,0,0,1-.538-.043c-1.817-.26-3.633-.507-5.419-.742V140.3q1.678.213,3.361.439a4.928,4.928,0,0,1,4.183,4.925v7.761a4.885,4.885,0,0,1-1.557,3.6,4.566,4.566,0,0,1-3.1,1.211h-.105a4.55,4.55,0,0,1-.494-.037c-.76-.105-1.526-.2-2.286-.3V168.5Z" transform="translate(0.03 -105.27)"/>
      <path id="Path_8779" data-name="Path 8779" d="M213.006,196.375a3.412,3.412,0,0,1-.7-.111c-5.079-1.378-10.239-2.669-15.331-3.843a3.5,3.5,0,0,1-2.045-1.384,3.143,3.143,0,0,1-1.78.47,2.926,2.926,0,0,1-.568-.074c-2.255-.494-4.579-.976-6.908-1.446a3.6,3.6,0,0,1-2.805-3.219q-.426-4.653-.859-9.312c-.618-.117-1.236-.235-1.854-.346l-.76,7.99a3.452,3.452,0,0,1-1.261,2.367,3.181,3.181,0,0,1-2.07.686,2.8,2.8,0,0,1-.457-.043c-2.379-.414-4.764-.8-7.081-1.162a3.376,3.376,0,0,1-1.743-.847,3.218,3.218,0,0,1-1.5.334,2.744,2.744,0,0,1-.383-.031c-6.062-.884-12.216-1.631-18.3-2.218a3.454,3.454,0,0,1-2.83-2.2,3.517,3.517,0,0,1-.587.76,3.208,3.208,0,0,1-2.286.915,1.345,1.345,0,0,1-.222-.012c-2.379-.2-4.77-.371-7.106-.519a3.393,3.393,0,0,1-2.923-2.181,3.492,3.492,0,0,1-.636.89,3.214,3.214,0,0,1-2.317.964h-.117c-2.36-.111-4.752-.2-7.125-.272a3.479,3.479,0,0,1-3.269-3.522V129.757a3.087,3.087,0,0,1-.636.062h-.049c-.976-.019-1.971-.031-2.972-.043v49.094a3.6,3.6,0,0,1-.982,2.478,3.217,3.217,0,0,1-2.367,1.02h-.9c-2.1,0-4.2.019-6.229.049H103a3.25,3.25,0,0,1-2.348-1,3.61,3.61,0,0,1-.995-2.49V129.874c-.976.025-1.953.056-2.935.087h-.087A3.087,3.087,0,0,1,96,129.9v49.3a3.458,3.458,0,0,1-3.232,3.528c-2.774.117-5.592.272-8.373.451-.062,0-.117.006-.173.006a3.321,3.321,0,0,1-3.256-2.669c-.185-.828-.371-1.656-.556-2.49v2.138a3.509,3.509,0,0,1-3.127,3.541c-2.354.2-4.746.42-7.106.655l-.272.019a3.214,3.214,0,0,1-2.268-.89,3.523,3.523,0,0,1-1.075-2.558v-2.089a9.3,9.3,0,0,1-7.427,6.81c-3.565.463-7.168.989-10.715,1.551a8.584,8.584,0,0,1-.97.093h0a7.251,7.251,0,0,1-7.193-5.308v3.578a3.621,3.621,0,0,1-2.849,3.559c-2.311.433-4.69.9-7.069,1.4a3.878,3.878,0,0,1-.538.068,3.147,3.147,0,0,1-2.163-.76,3.45,3.45,0,0,1-1.18-2.626v-9.565a3.433,3.433,0,0,1-1.922,1.193c-1.953.433-3.874.877-5.716,1.316a3.539,3.539,0,0,1-.618.087,3.1,3.1,0,0,1-2.014-.624v11.228a3.668,3.668,0,0,1-2.688,3.553c-2.4.606-4.844,1.242-7.267,1.9a3.35,3.35,0,0,1-.7.111,3.147,3.147,0,0,1-2.1-.68,3.38,3.38,0,0,1-1.242-2.669V132.674a3.706,3.706,0,0,1,2.639-3.553c2.348-.636,4.746-1.267,7.125-1.872a3.419,3.419,0,0,1,.661-.1,3.182,3.182,0,0,1,3.188,2.33q2.558,8.537,5.123,17.1c1.916-7.038,3.813-13.984,5.666-20.744a3.578,3.578,0,0,1,2.669-2.577c2.385-.494,4.8-.97,7.162-1.415a3.27,3.27,0,0,1,.494-.056,3.145,3.145,0,0,1,2.181.785,3.473,3.473,0,0,1,1.162,2.62v1.693a9.61,9.61,0,0,1,7.329-6.989c3.6-.575,7.248-1.106,10.857-1.576a7.354,7.354,0,0,1,.822-.062,7.119,7.119,0,0,1,5.5,2.373,8.1,8.1,0,0,1,1.8,3.263v-3.331a3.545,3.545,0,0,1,3.077-3.553c2.917-.3,5.876-.568,8.805-.8.068,0,.142-.006.21-.012a3.319,3.319,0,0,1,3.25,2.639c.08.352.167.711.247,1.063v-.636a3.484,3.484,0,0,1,3.182-3.541c2.385-.148,4.814-.272,7.211-.377h.111a3.221,3.221,0,0,1,1.9.612,3.26,3.26,0,0,1,1.99-.76c4.208-.136,8.484-.21,12.7-.21,2.435,0,4.9.025,7.335.068a3.233,3.233,0,0,1,1.984.735,3.183,3.183,0,0,1,1.94-.643h.087c4.906.142,9.893.383,14.818.717,4.375.3,7.94,4.375,7.94,9.071h.148v-4.672a3.563,3.563,0,0,1,1.069-2.558,3.171,3.171,0,0,1,1.143-.711c-.192-.525-.383-1.05-.581-1.576a3.693,3.693,0,0,1,.117-2.812,3.322,3.322,0,0,1,2.052-1.78c3.831-1.125,7.743-2.212,11.617-3.232a3.22,3.22,0,0,1,.877-.105,3.458,3.458,0,0,1,3.12,2.323q1,2.753,2,5.506a3.658,3.658,0,0,1-.142,2.842,3.207,3.207,0,0,1-.482.723l.791.111a3.554,3.554,0,0,1,2.966,3.559v7.761a3.506,3.506,0,0,1-1.118,2.589,3.19,3.19,0,0,1-2.225.834,2.586,2.586,0,0,1-.377-.031c-2.323-.334-4.665-.649-6.995-.939v9.6c1.508.185,3.034.383,4.554.593a3.54,3.54,0,0,1,2.985,3.559v7.761a3.514,3.514,0,0,1-1.106,2.577,3.193,3.193,0,0,1-2.237.847,3.377,3.377,0,0,1-.352-.025c-1.273-.173-2.558-.34-3.843-.5v13.4c2.768.346,5.555.723,8.311,1.118a3.378,3.378,0,0,1,1.026.327q2.391-24.21,4.777-48.42a3.468,3.468,0,0,1,1.254-2.36,3.153,3.153,0,0,1,2.07-.692,2.713,2.713,0,0,1,.445.043c4.239.723,8.527,1.526,12.748,2.385a3.6,3.6,0,0,1,2.793,3.219q1.715,18.6,3.436,37.211V128.5a3.412,3.412,0,0,1,1.2-2.645,3.138,3.138,0,0,1,2.138-.729,3.324,3.324,0,0,1,.6.08c2.385.55,4.789,1.125,7.143,1.718a3.661,3.661,0,0,1,2.694,3.553v49.743c1.891.488,3.806.995,5.7,1.508a3.7,3.7,0,0,1,2.639,3.547v7.761a3.38,3.38,0,0,1-1.242,2.669,3.114,3.114,0,0,1-2.1.68Z" transform="translate(-0.818 -106.122)" fill="#fff"/>
      <path id="Path_8780" data-name="Path 8780" d="M87.605,151.391q-3.42-14.793-6.84-29.537-4.375.343-8.744.791v60.377q3.578-.362,7.156-.661V149.926q3.578,15.915,7.156,31.9,4.217-.269,8.435-.451V121q-3.578.158-7.162.377ZM60.9,123.943q-5.394.7-10.789,1.563c-2.533.4-4.752,3.2-4.752,5.963v50.113a4.144,4.144,0,0,0,4.752,4.3q5.385-.862,10.789-1.563a5.816,5.816,0,0,0,4.764-5.679V128.528c0-2.762-2.064-4.937-4.764-4.579ZM58.526,176.88q-3.012.417-6.025.877V132.9q3.012-.463,6.025-.877Zm105.393-58.22q-1-2.753-2-5.5-5.774,1.52-11.549,3.207,1,2.716,2,5.444,5.774-1.659,11.549-3.151ZM23.15,160.95q-4.217-14.126-8.428-28.152-3.541.9-7.081,1.854v60.377q3.652-.992,7.316-1.916V160.505q2.679,9.158,5.357,18.352,2.873-.686,5.759-1.322,2.92-10.483,5.846-20.923v32.6q3.559-.732,7.118-1.4V127.434q-3.559.667-7.118,1.409-4.384,16-8.762,32.107Zm183.6,24.148V132.482q-3.55-.881-7.094-1.7V191.16q7.73,1.78,15.429,3.874v-7.761q-4.162-1.131-8.336-2.169Zm-29.858-58.882q-2.929,29.688-5.864,59.425,3.568.556,7.131,1.174.556-5.811,1.106-11.623,3.958.7,7.909,1.477.556,6.015,1.106,12.037,3.476.7,6.952,1.458-2.846-30.809-5.685-61.582-6.321-1.288-12.661-2.367Zm3.17,41.351q1.585-16.23,3.164-32.459,1.585,16.814,3.164,33.64-3.161-.621-6.327-1.186Zm-23.944-12.154q3.772.436,7.539.952V148.6q-3.772-.51-7.539-.952V131.006q5.357.621,10.715,1.39v-7.761q-8.926-1.288-17.864-2.157v60.377q9.222.9,18.42,2.237v-7.761q-5.626-.825-11.271-1.471V155.42Zm-16.455-3.281c1.434-.327,2.466-1.878,2.466-4.035V127.051a5.457,5.457,0,0,0-4.77-5.524q-7.359-.491-14.719-.711v60.377q3.578.1,7.162.278V155.852q3.022.148,6.049.334V181.8c2.385.148,4.77.328,7.162.519v-24.84c0-2.157-1.193-4.671-3.343-5.351Zm-4.69-3.763q-2.586-.158-5.172-.278V128.855c1.724.08,3.448.179,5.172.284v19.236Zm-36.216-27.51v7.761c2.119-.068,4.245-.124,6.365-.154v52.616c2.391-.037,4.777-.056,7.168-.049V128.416c2.126,0,4.245.031,6.371.068v-7.761q-9.955-.185-19.9.136Z" transform="translate(-2.901 -108.285)"/>
    </g>
    <g id="Group_2501" data-name="Group 2501" transform="translate(45.368 11.314)">
      <g id="Group_2494" data-name="Group 2494" transform="translate(45.516)">
        <path id="Path_8781" data-name="Path 8781" d="M157.422,40.444l-8-8.039,11.246-1.464,4.968-9.689.2-.4L170.707,31.1l11.2,1.8-8.237,7.792,1.755,11.2-9.961-5.425-10.115,5.129,2.082-11.147h0Z" transform="translate(-147.956 -19.28)" fill="#06c"/>
        <path id="Path_8782" data-name="Path 8782" d="M164.939,19.88l4.869,10.245,11.2,1.8-8.237,7.792,1.755,11.2-9.961-5.425-10.115,5.129,2.082-11.147-8-8.039,11.246-1.464,4.968-9.689.2-.4m.019-1.563-.636,1.248-.2.408-4.8,9.361-10.888,1.415-1.384.179.989.989,7.743,7.78-2.014,10.8-.26,1.372,1.248-.63,9.794-4.962,9.64,5.252,1.23.667-.216-1.384-1.693-10.845,7.977-7.545,1.013-.958-1.378-.222-10.838-1.743-4.709-9.918-.606-1.267h0Z" transform="translate(-147.05 -18.31)"/>
      </g>
      <g id="Group_2497" data-name="Group 2497" transform="translate(17.833 16.455)">
        <g id="Group_2495" data-name="Group 2495">
          <path id="Path_8783" data-name="Path 8783" d="M110.387,59.907l-5.617-3.794,6.426-2.15,1.8-6.253.074-.26L117.1,52.9l6.772-.235-3.936,5.518,2.311,6.371-6.463-2.039-5.345,4.171-.062-6.779h0Z" transform="translate(-103.213 -45.899)" fill="#06c"/>
          <path id="Path_8784" data-name="Path 8784" d="M112.112,46.491l4.029,5.45,6.772-.235-3.936,5.518,2.311,6.371-6.463-2.039-5.345,4.171-.062-6.779L103.8,55.154,110.227,53l1.8-6.253.074-.26m-.278-1.539-.383,1.353-.074.26-1.7,5.9L103.579,54.5l-1.329.445,1.156.785,5.314,3.59.056,6.414.012,1.4,1.1-.859,5.061-3.949,6.117,1.928,1.335.42-.476-1.316-2.187-6.031,3.726-5.221.809-1.137-1.4.049-6.408.216-3.813-5.16-.834-1.131h0Z" transform="translate(-102.25 -44.94)"/>
        </g>
        <g id="Group_2496" data-name="Group 2496" transform="translate(67.069 0.099)">
          <path id="Path_8785" data-name="Path 8785" d="M216.8,58.179l-3.813-5.6,6.766.383,3.986-5.141.167-.216,1.724,6.556,6.377,2.292-5.7,3.67-.21,6.772L220.856,62.6l-6.507,1.891,2.453-6.321h0Z" transform="translate(-211.631 -46.055)" fill="#06c"/>
          <path id="Path_8786" data-name="Path 8786" d="M223.074,46.645,224.8,53.2l6.377,2.292-5.7,3.67-.21,6.772-5.246-4.288-6.507,1.891,2.453-6.321-3.813-5.6,6.766.383,3.986-5.141.167-.216m.309-1.532-.859,1.112-.167.216-3.763,4.851-6.408-.365-1.4-.08L211.575,52l3.609,5.3-2.323,5.981-.507,1.3,1.341-.389,6.161-1.792,4.968,4.06,1.081.884.043-1.4.2-6.414,5.394-3.473,1.174-.754-1.316-.476-6.037-2.169-1.631-6.2-.358-1.359h0Z" transform="translate(-210.79 -45.1)"/>
        </g>
      </g>
      <g id="Group_2500" data-name="Group 2500" transform="translate(0 34.554)">
        <g id="Group_2498" data-name="Group 2498" transform="translate(106.387)">
          <path id="Path_8787" data-name="Path 8787" d="M250.858,85.309,247.75,80.73l5.524.315,3.256-4.2.142-.179,1.409,5.351,5.2,1.872-4.653,3-.173,5.53-4.282-3.5-5.314,1.545,2.008-5.16h0Z" transform="translate(-246.397 -75.162)" fill="#06c"/>
          <path id="Path_8788" data-name="Path 8788" d="M255.824,75.744l1.409,5.351,5.2,1.872-4.653,3-.173,5.53-4.282-3.5-5.314,1.545,2.008-5.16L246.913,79.8l5.524.315,3.256-4.2.142-.179m.315-1.508-.859,1.081-.142.173L252.116,79.4l-5.16-.29-1.4-.08.785,1.156,2.91,4.276-1.872,4.82-.507,1.3,1.341-.389,4.968-1.446,4,3.269,1.081.884.043-1.4.161-5.166,4.35-2.8L264,82.788l-1.316-.476-4.863-1.749-1.316-5-.352-1.335h0Z" transform="translate(-245.56 -74.23)"/>
        </g>
        <g id="Group_2499" data-name="Group 2499" transform="translate(0 0.037)">
          <path id="Path_8789" data-name="Path 8789" d="M80.475,86.941l-4.585-3.1,5.246-1.755,1.471-5.1.062-.216,3.294,4.449,5.53-.192-3.213,4.5,1.891,5.2-5.277-1.662-4.363,3.4-.049-5.53h0Z" transform="translate(-74.345 -75.238)" fill="#06c"/>
          <path id="Path_8790" data-name="Path 8790" d="M81.713,75.822l3.294,4.449,5.53-.192-3.213,4.5,1.891,5.2-5.277-1.662-4.363,3.4L79.526,86l-4.585-3.1,5.246-1.755,1.471-5.1.062-.216m-.284-1.539-.383,1.353-.062.216-1.366,4.752-4.906,1.637-1.329.445,1.155.785,4.282,2.9.043,5.172.012,1.4,1.1-.859L84.061,88.9l4.931,1.557,1.335.42-.476-1.316-1.767-4.857,3-4.208.809-1.137-1.4.049-5.166.179-3.077-4.159L81.423,74.3h0Z" transform="translate(-73.39 -74.29)"/>
        </g>
      </g>
    </g>
    <g id="Group_2502" data-name="Group 2502" transform="translate(29.864 51.967)">
      <path id="Path_8791" data-name="Path 8791" d="M203.4,106.036a1.6,1.6,0,0,1-.3-.025c-1.131-.179-2.255-.352-3.386-.525a1.912,1.912,0,0,1-1.4-.982l-.278-.519a1.833,1.833,0,0,1-.426.525,1.909,1.909,0,0,1-1.242.463,1.253,1.253,0,0,1-.266-.019c-1.02-.148-2.052-.29-3.034-.426a1.906,1.906,0,0,1-1.044-.5,1.918,1.918,0,0,1-.89.222c-.043,0-.2-.012-.241-.012-2.793-.371-4.832-.624-7.582-.945a1.935,1.935,0,0,1-1.057-.476,1.918,1.918,0,0,1-.927.241c-.037,0-.173-.006-.2-.012-2.793-.309-4.838-.525-7.594-.791a1.92,1.92,0,0,1-1.217-.606,1.912,1.912,0,0,1-1.131.377,1.617,1.617,0,0,1-.173-.006c-1.044-.1-2.082-.185-3.121-.272a1.9,1.9,0,0,1-1.724-1.619,1.962,1.962,0,0,1-.519.822,1.916,1.916,0,0,1-1.291.507,1.566,1.566,0,0,1-.173-.006c-1.013-.08-2.07-.154-3.09-.229a1.907,1.907,0,0,1-1.767-1.9v-.383a7.559,7.559,0,0,1-5.2,1.946c-.167,0-.34,0-.507-.012a8.172,8.172,0,0,1-7.946-8.292,7.41,7.41,0,0,1,7.681-7.743c.161,0,.321,0,.482.012a8.209,8.209,0,0,1,5.487,2.453,1.908,1.908,0,0,1,1.9-1.854.875.875,0,0,1,.179.012c.982.068,2.052.148,3.1.229a1.918,1.918,0,0,1,1.736,1.619,1.9,1.9,0,0,1,1.811-1.329h.124c1.088.093,2.132.185,3.176.278a1.9,1.9,0,0,1,1.23.6,1.906,1.906,0,0,1,1.131-.371,1.621,1.621,0,0,1,.173.006c2.793.272,4.7.47,7.5.779a1.9,1.9,0,0,1,1.137.544,1.929,1.929,0,0,1,1.007-.29c.049,0,.2.012.241.019,2.75.321,4.653.556,7.458.927a1.877,1.877,0,0,1,1.125.568,1.93,1.93,0,0,1,.976-.266c.049,0,.222.012.272.019,1.712.235,3.485.488,5.228.748a6.819,6.819,0,0,1,5.808,5.654,5.945,5.945,0,0,1-1.149,4.77l1.57,2.8a1.886,1.886,0,0,1,.241.927v.445a1.906,1.906,0,0,1-1.9,1.9ZM153.513,91.428c-.562,0-.859.433-.859,1.285,0,.519.253,1.514,1.2,1.57h.117c.494,0,.544-.173.587-.352a1.917,1.917,0,0,1,.624-.982,1.894,1.894,0,0,1-.63-.877c-.142-.414-.309-.6-.927-.636h-.111ZM55.3,105.307a6.8,6.8,0,0,1-7-7.149,9,9,0,0,1,7.736-8.941,9.211,9.211,0,0,1,1.23-.087,6.241,6.241,0,0,1,6.3,4.437c.686-1.576,1.366-3.145,2.052-4.715a1.912,1.912,0,0,1,1.514-1.131l1.322-.161c.043,0,.185-.012.222-.012a1.915,1.915,0,0,1,1.712,1.069q1.455,2.975,2.9,5.957V88.821A1.9,1.9,0,0,1,75,86.93l1.112-.117c.037,0,.161-.012.2-.012a1.9,1.9,0,0,1,1.254.47q1.446,1.27,2.9,2.54V88.166a1.9,1.9,0,0,1,1.73-1.9l3.139-.278h.161a1.9,1.9,0,0,1,1.9,1.9V92.85l2.855-6.4a1.908,1.908,0,0,1,1.607-1.125s1.427-.093,1.452-.093a1.918,1.918,0,0,1,1.718,1.081q1.464,3.049,2.923,6.111V86.887a1.9,1.9,0,0,1,1.8-1.9q2.271-.13,4.542-.229h.346a7.4,7.4,0,0,1,4.752,1.545,1.9,1.9,0,0,1,1.841-1.817c1.959-.062,3.911-.111,5.87-.148h0a1.933,1.933,0,0,1,1.372.544,1.913,1.913,0,0,1,.568,1.353v2.669a1.916,1.916,0,0,1-1.4,1.835V93.6q1.928-4.208,3.868-8.4a1.9,1.9,0,0,1,1.712-1.106h1.335a1.893,1.893,0,0,1,1.724,1.094q1.464,3.142,2.923,6.29v-5.37a1.9,1.9,0,0,1,1.9-1.9l1.137.012a1.857,1.857,0,0,1,1.316.55c.945.933,1.885,1.866,2.83,2.8V86.281a1.922,1.922,0,0,1,.575-1.366,1.9,1.9,0,0,1,1.329-.538c.006,0,2.132.056,3.195.087a1.893,1.893,0,0,1,1.848,1.9V98.355a1.922,1.922,0,0,1-.575,1.366,1.9,1.9,0,0,1-1.329.538l-1.149-.031a1.885,1.885,0,0,1-1.291-.556q-1.4-1.409-2.805-2.805v1.31a1.939,1.939,0,0,1-.568,1.359,1.884,1.884,0,0,1-1.335.544l-3.188-.037a1.73,1.73,0,0,1-.562-.093,1.851,1.851,0,0,1-.55.08c-.136,0-2.039-.012-3-.012a1.909,1.909,0,0,1-1.724-1.1l-.192-.4c-.766,0-1.539.006-2.3.012l-.2.42a1.9,1.9,0,0,1-1.705,1.1l-2.947.043a1.664,1.664,0,0,1-.315-.019,1.473,1.473,0,0,1-.284.025c-2.027.037-4.047.093-6.068.154h0a1.933,1.933,0,0,1-1.378-.531,1.9,1.9,0,0,1-.544-1.007,8.025,8.025,0,0,1-4.832,1.8q-2.252.1-4.5.229h-.012a2.492,2.492,0,0,1-.544-.056,1.987,1.987,0,0,1-.575.124l-3.1.185a1.918,1.918,0,0,1-1.718-1.081l-.142-.3c-.766.049-1.532.105-2.3.161l-.235.525a1.9,1.9,0,0,1-1.594,1.112l-3.139.241a1.842,1.842,0,0,1-.371-.037,1.78,1.78,0,0,1-.568.136l-1.094.093s-.136.006-.167.006a1.915,1.915,0,0,1-1.267-.482c-.958-.853-1.909-1.7-2.867-2.546V100.5a1.894,1.894,0,0,1-1.712,1.891c-1.057.105-2.113.21-3.145.321-.037,0-.167.012-.2.012a1.886,1.886,0,0,1-.371-.037,2.067,2.067,0,0,1-.55.148c-.995.105-1.984.216-2.978.334-.037,0-.179.012-.216.012a1.911,1.911,0,0,1-1.705-1.063L69.3,101.9l-2.286.278-.266.606a1.9,1.9,0,0,1-1.508,1.118c-.982.124-1.977.253-2.966.389-.043,0-.2.019-.253.019a1.9,1.9,0,0,1-1.248-.47,1.919,1.919,0,0,1-.192-.2,9.126,9.126,0,0,1-3.961,1.557,9,9,0,0,1-1.285.1Zm1.557-9.559a1.391,1.391,0,0,0-.272.025c-.84.124-1.335.828-1.335,1.891a1.3,1.3,0,0,0,.241.834.458.458,0,0,0,.4.167.653.653,0,0,0,.154-.012,1.123,1.123,0,0,0,1.069-.877,1.9,1.9,0,0,1,.618-1.007,1.922,1.922,0,0,1-.612-.834.538.538,0,0,0-.087-.173h0A1.315,1.315,0,0,0,56.858,95.748ZM104.8,93.764a1.664,1.664,0,0,0,.519-1.3c-.006-.352-.093-.9-.519-1.075v2.367Z" transform="translate(-48.3 -84.1)"/>
      <path id="Path_8792" data-name="Path 8792" d="M203.914,105.635q-1.7-.269-3.392-.525a.879.879,0,0,1-.636-.451l-1.835-3.442-.161-.025v2.521a.859.859,0,0,1-.3.655.874.874,0,0,1-.568.21.827.827,0,0,1-.124-.006c-1.02-.148-2.058-.29-3.04-.426a.866.866,0,0,1-.748-.859V91.318a.86.86,0,0,1,.865-.865.747.747,0,0,1,.117.006c1.724.235,3.5.488,5.234.748a5.783,5.783,0,0,1,4.937,4.8,4.728,4.728,0,0,1-1.409,4.43l1.946,3.473a.838.838,0,0,1,.111.42v.445a.878.878,0,0,1-.3.661.863.863,0,0,1-.562.2.507.507,0,0,1-.136-.012Zm-4.579-8.694c.235,0,.266-.371.272-.389.019-.222-.043-.816-.538-.89-.389-.068-.785-.124-1.174-.179v1.248l1.446.21ZM55.953,104.912a5.739,5.739,0,0,1-5.963-6.117,7.977,7.977,0,0,1,7.928-7.99,5.193,5.193,0,0,1,5.5,4.573.864.864,0,0,1-.742.982c-1.038.136-1.953.266-2.991.408-.037,0-.08.006-.117.006a.858.858,0,0,1-.809-.568,1.164,1.164,0,0,0-1.242-.865,2.6,2.6,0,0,0-.426.037,2.7,2.7,0,0,0-2.218,2.917,2.326,2.326,0,0,0,.482,1.5,1.5,1.5,0,0,0,1.2.538,2.389,2.389,0,0,0,.3-.019,2.192,2.192,0,0,0,1.934-1.656.849.849,0,0,1,.723-.649c1.026-.142,1.959-.272,3-.408.037,0,.074-.006.111-.006a.855.855,0,0,1,.612.253.865.865,0,0,1,.253.667q1.872-4.31,3.745-8.614a.87.87,0,0,1,.686-.513l1.316-.161h.1a.872.872,0,0,1,.779.482q2.438,4.987,4.875,10V89.458a.859.859,0,0,1,.772-.859l1.112-.117h.093a.848.848,0,0,1,.568.216q2.308,2.021,4.616,4.06V88.815a.861.861,0,0,1,.785-.859l3.133-.278h.074a.863.863,0,0,1,.865.865v9.837q2.419-5.441,4.838-10.851a.87.87,0,0,1,.729-.513s1.359-.093,1.378-.093a.858.858,0,0,1,.779.494q2.447,5.116,4.894,10.251V87.543a.867.867,0,0,1,.816-.865c1.514-.08,3.022-.161,4.529-.229h.309a6.273,6.273,0,0,1,6.451,6.439,7.7,7.7,0,0,1-.445,2.744.846.846,0,0,1,.476-.161l.686-.019V90.564l-.544.019a.865.865,0,0,1-.865-.865V87.048a.867.867,0,0,1,.84-.865q2.929-.093,5.858-.148h.019a.865.865,0,0,1,.865.865v2.669a.868.868,0,0,1-.847.865l-.556.012v4.888l.661-.012a.85.85,0,0,1,.606.247.861.861,0,0,1,.192.278q2.2-4.783,4.387-9.541a.864.864,0,0,1,.779-.5l1.329-.006a.873.873,0,0,1,.785.5q2.447,5.265,4.9,10.56V86.782a.855.855,0,0,1,.865-.859l1.125.012a.873.873,0,0,1,.6.247q2.3,2.271,4.6,4.554V86.956a.865.865,0,0,1,.865-.865c.006,0,2.113.056,3.164.08a.863.863,0,0,1,.84.865V99.024a.854.854,0,0,1-.26.618.871.871,0,0,1-.606.241l-1.125-.031a.839.839,0,0,1-.587-.253q-2.289-2.289-4.573-4.566v3.806a.865.865,0,0,1-.865.865s-2.138-.031-3.182-.037a.828.828,0,0,1-.562-.216.872.872,0,0,1-.562.2s-2-.012-3-.012a.863.863,0,0,1-.785-.5l-.47-1.007c-1.211,0-2.416.012-3.627.025l-.476,1.02a.866.866,0,0,1-.772.5c-1,.012-3.009.043-3.009.043a.749.749,0,0,1-.266-.043,1.054,1.054,0,0,1-.284.056c-2.027.037-4.054.093-6.074.154h-.025a.865.865,0,0,1-.865-.865V96.478a6.671,6.671,0,0,1-5.883,3.677c-1.508.068-3.009.142-4.517.229h-.049a.844.844,0,0,1-.525-.179.836.836,0,0,1-.55.241c-.995.056-3.028.185-3.046.185a.864.864,0,0,1-.779-.488l-.451-.933c-1.2.08-2.416.167-3.621.253l-.494,1.088a.863.863,0,0,1-.723.507c-.995.074-3.034.241-3.059.241a.871.871,0,0,1-.488-.148.879.879,0,0,1-.544.253l-1.094.093h-.074a.9.9,0,0,1-.575-.216q-2.3-2.048-4.591-4.072v3.967a.86.86,0,0,1-.779.859c-1.057.105-2.113.21-3.151.321h-.093a.9.9,0,0,1-.494-.154.868.868,0,0,1-.538.272c-.995.105-1.99.222-2.985.334h-.1a.872.872,0,0,1-.779-.482l-.426-.877c-1.2.142-2.4.284-3.609.439l-.5,1.143a.863.863,0,0,1-.68.507l-2.978.389c-.037,0-.08.006-.117.006a.848.848,0,0,1-.568-.216.878.878,0,0,1-.3-.649v-.445a.867.867,0,0,1,.037-.253,8.121,8.121,0,0,1-5.864,2.558Zm48.464-9.275.55-.025a2.257,2.257,0,0,0,2.039-2.527,1.938,1.938,0,0,0-1.854-2.144l-.735.031v4.659Zm87.263,8.212c-2.787-.371-4.832-.624-7.594-.945a.868.868,0,0,1-.766-.859V90.076a.861.861,0,0,1,.865-.865h.1c2.768.321,4.665.562,7.464.927A.867.867,0,0,1,192.5,91v2.737a.847.847,0,0,1-.3.649.881.881,0,0,1-.556.216.867.867,0,0,1,.488.779V98.1a.871.871,0,0,1-.865.865.671.671,0,0,1-.111-.006c-1.026-.136-2.051-.266-3.077-.4v.358c1.329.167,2.3.29,3.819.488a.866.866,0,0,1,.754.859v2.719a.871.871,0,0,1-.865.865.671.671,0,0,1-.111-.006Zm-9.788-1.2c-2.793-.309-4.844-.525-7.607-.791a.86.86,0,0,1-.779-.859V89.032a.885.885,0,0,1,.284-.643.855.855,0,0,1,.581-.222h.08c2.774.272,4.671.47,7.477.779a.868.868,0,0,1,.772.859v2.737a.849.849,0,0,1-.29.643.87.87,0,0,1-.575.222h0a.859.859,0,0,1,.507.785V96.91a.849.849,0,0,1-.29.643.864.864,0,0,1-.575.216h-.093c-1.032-.117-2.07-.229-3.1-.334V97.8c1.322.136,2.292.241,3.806.414a.863.863,0,0,1,.766.859v2.719a.849.849,0,0,1-.29.643.87.87,0,0,1-.575.222h-.1Zm-10.134-1.032c-1.038-.1-2.082-.185-3.12-.272a.868.868,0,0,1-.791-.865v-4.01c-.655-.056-1.31-.105-1.965-.161v3.868a.863.863,0,0,1-.865.865h-.068c-1.044-.08-2.1-.161-3.127-.229a.865.865,0,0,1-.8-.865V87.981a.859.859,0,0,1,.272-.63.875.875,0,0,1,.593-.235h.062c1.032.074,2.095.148,3.139.229a.864.864,0,0,1,.8.865v3.541c.655.049,1.31.105,1.965.161v-3.4a.856.856,0,0,1,.278-.636.865.865,0,0,1,.587-.229h.074q1.566.13,3.133.278a.861.861,0,0,1,.785.859v11.969a.862.862,0,0,1-.865.859h-.08Zm-16.974-1.137c-.148,0-.3,0-.451-.012a7.162,7.162,0,0,1-6.97-7.267A6.406,6.406,0,0,1,154,86.5c.142,0,.284,0,.42.012a6.63,6.63,0,0,1,6.445,5.629.867.867,0,0,1-.859.989c-.019,0-2.021-.13-3.065-.192a.865.865,0,0,1-.766-.581,1.828,1.828,0,0,0-1.848-1.329h-.148c-1.415,0-1.922,1.193-1.922,2.317a2.449,2.449,0,0,0,2.175,2.608h.154a1.48,1.48,0,0,0,1.625-1.131.866.866,0,0,1,.84-.649c.019,0,2.027.124,3.071.192a.875.875,0,0,1,.612.315.859.859,0,0,1,.192.661c-.5,3.788-3.5,5.135-6.142,5.135Z" transform="translate(-48.946 -84.749)" fill="#fff"/>
      <path id="Path_8793" data-name="Path 8793" d="M57.485,101.7c-1.8.247-2.96-1.118-2.96-2.88a3.566,3.566,0,0,1,2.96-3.776,2.123,2.123,0,0,1,2.6,1.39c1.038-.148,1.959-.272,3-.408-.457-3.139-3.133-4.128-5.6-3.763a7.083,7.083,0,0,0-6.105,7.044c.019,4.066,3.077,5.629,6.105,5.178a6.345,6.345,0,0,0,5.654-5.506c-1.038.136-1.977.266-3,.408a3.038,3.038,0,0,1-2.657,2.311ZM68.54,90.761q-2.688,6.164-5.37,12.365v.445l2.985-.389c.235-.531.463-1.063.7-1.594q2.354-.3,4.709-.569c.235.476.47.952.7,1.421l2.985-.334v-.445q-2.7-5.543-5.394-11.061c-.439.049-.877.105-1.31.161Zm-.7,8.089c.451-1.106.9-2.206,1.347-3.312.463.995.921,1.984,1.384,2.978-.908.105-1.817.216-2.731.327Zm15.689-3.67Q80.5,92.5,77.481,89.853c-.371.037-.742.08-1.112.117v12.019c1.038-.111,2.1-.216,3.158-.327V95.779q3.012,2.651,6.037,5.339l1.094-.093V89.043c-1.044.087-2.089.179-3.127.278v5.864Zm9.621-6.8q-2.7,6.034-5.388,12.093v.445c1-.08,2-.161,3-.235l.7-1.557q2.364-.176,4.727-.327c.235.488.47.97.7,1.458,1-.062,2-.124,3-.179v-.445Q97.186,93.953,94.48,88.3l-1.316.093Zm-.7,8.051L93.8,93.189q.7,1.52,1.384,3.053C94.27,96.3,93.362,96.366,92.447,96.434Zm13.081-8.626c-1.508.068-3.015.148-4.523.229v11.969c1.508-.08,3.015-.161,4.523-.229C113.345,99.424,113.345,87.529,105.528,87.807Zm0,9.182c-.488.025-.97.043-1.458.068v-6.4c.488-.025.97-.049,1.458-.068C109.347,90.427,109.347,96.823,105.528,96.99Zm11.345-6.9c.47-.012.939-.019,1.4-.031V87.387c-1.946.037-3.9.087-5.846.148V90.2c.47-.012.939-.031,1.4-.043V96.78c-.507.012-1.02.031-1.526.049v2.682c2.027-.068,4.06-.117,6.086-.154V96.675c-.507.012-1.02.019-1.526.031V90.087Zm7.5-2.935q-2.7,5.858-5.4,11.747v.445c1-.019,2-.031,3-.043.235-.507.47-1.007.7-1.514,1.576-.019,3.158-.025,4.733-.031l.7,1.5c1,0,2,0,3,.012v-.445Q128.41,92.967,125.7,87.14c-.439,0-.877,0-1.322.006Zm-.7,8.008c.451-1.05.9-2.107,1.353-3.158.463,1.044.927,2.095,1.39,3.139Q125.036,95.142,123.664,95.161Zm15.757-1.866q-3.04-3.031-6.074-6.019c-.371,0-.742-.006-1.112-.012V99.282c1.044.012,2.113.019,3.17.037V93.437q3.031,2.994,6.056,6.025c.365.012.729.019,1.1.031V87.511c-1.044-.031-2.095-.062-3.139-.087v5.864ZM154.9,97.336a3.3,3.3,0,0,1-2.978-3.473c0-1.984,1.186-3.275,2.978-3.176a2.688,2.688,0,0,1,2.62,1.909c1.044.062,1.971.124,3.015.192A5.741,5.741,0,0,0,154.9,87.9a5.583,5.583,0,0,0-6.148,5.821,6.262,6.262,0,0,0,6.148,6.4c2.552.136,5.24-1.02,5.685-4.375-1.044-.068-1.984-.13-3.015-.192a2.4,2.4,0,0,1-2.669,1.78Zm14.33-3.955c-1.23-.105-2.465-.2-3.7-.3V88.74c-1.044-.08-2.107-.161-3.133-.229v11.969c1.026.074,2.089.148,3.133.229v-4.8c1.23.093,2.465.192,3.7.3v4.8c1.044.087,2.089.179,3.127.272V89.309c-1.044-.093-2.082-.185-3.127-.272ZM177.93,97c1.353.136,2.706.284,4.066.433V94.71c-1.353-.148-2.706-.3-4.066-.433V92.584c1.761.179,2.651.278,4.424.476V90.322c-2.8-.309-4.7-.507-7.464-.779v11.969c2.768.266,4.82.482,7.619.791V99.585c-1.792-.2-2.818-.309-4.579-.488Zm9.813,1.106q2.03.25,4.054.519V95.9q-2.03-.269-4.054-.519V93.69c1.755.216,2.645.327,4.412.562V91.515c-2.793-.365-4.69-.606-7.452-.927v11.969c2.762.327,4.807.581,7.607.945v-2.719c-1.786-.235-2.811-.365-4.566-.581Zm14.5,2.583c3.009-1.582,2.163-7.384-2.515-8.107-1.736-.26-3.5-.507-5.228-.748V103.8c.989.136,2.027.284,3.046.426V100.7c.525.074,1.057.154,1.582.229.68,1.273,1.359,2.552,2.039,3.825,1.131.173,2.268.346,3.4.525v-.445c-.779-1.39-1.551-2.774-2.33-4.159Zm-2.515-2.379c-.723-.105-1.452-.216-2.175-.315V95c.717.105,1.464.2,2.175.315C201.467,95.593,201.38,98.553,199.73,98.306Z" transform="translate(-49.477 -85.261)"/>
    </g>
  </g>
</svg>
