<svg xmlns="http://www.w3.org/2000/svg" width="216.891" height="134.002" viewBox="0 0 216.891 134.002">
  <g id="winterfest-logo" transform="translate(0)">
    <path id="Path_8724" data-name="Path 8724" d="M38.226,42.346l-.056-.056h.111Zm-.933.933V42.247l.42.019.309.284-.729.735Zm0-1.4.08.074h-.08Zm0-.568V37.137l4.338-4.344v6.136l-2.96,2.954-.828.043-.556-.618Zm-2.132-4.573.124-.63.562.031-.692.686v-.087Zm-.309-1.6.025.488-.636.124.612-.618Zm-5.815-1.526.068.08h-.074v-.08Zm-1.322.08.735-.729.284.315.019.42H27.716Zm.989-.989v.111l-.056-.056Zm2.126-5.141.538-.358.377.42h-.976l.068-.056ZM28.7,21.022v.111l-.062-.056Zm-.995-.877h1.038l-.019.426-.284.309Zm1.4,0-.068.087v-.087Zm5.055-2.132h.087l.63.124-.031.562-.692-.686Zm3.689-6.1.828.037,2.96,2.954v6.142L37.3,16.7V12.525l.556-.612Zm-.556-.025h.08l-.08.08Zm0-1.322.729.735-.309.284-.42.019Zm.989.989h-.111l.056-.056Zm5.141,2.126.358.531-.414.377v-.976l.056.062ZM49.911,11.5l.056.062h-.105Zm.933-.933V11.6l-.42-.019-.309-.284Zm0,1.4-.08-.074h.08Zm0,.562V16.7l-4.338,4.344V14.9l2.954-2.954.828-.037ZM52.976,17.1l-.124.636L52.29,17.7l.692-.692V17.1Zm.309,1.6-.025-.488.643-.124-.618.618ZM59.1,20.225l-.074-.087H59.1Zm1.322-.087-.735.735-.278-.309-.019-.426h1.038Zm-.989.989v-.111l.056.056Zm-2.126,5.141-.538.365-.377-.42h.982l-.068.056Zm2.119,6.544V32.7l.056.056Zm.995.877H59.384l.019-.42.278-.315.735.729Zm-1.4,0,.074-.08v.08Zm-5.048,2.138h-.087l-.63-.13.025-.562.692.692Zm-3.689,6.1-.828-.043-2.954-2.954V32.793l4.338,4.344v4.177l-.556.618Zm.556.025h-.08l.08-.074Zm0,1.316-.729-.735.309-.284.42-.019v1.032Zm-.982-.989h.105l-.056.056Zm-5.141-2.126-.358-.538.414-.377v.976Zm-.989-.587-.358.544v-.871Zm9.176-2.83-.618-.612.494-.025.124.636Zm6.13-4.443.043.828-.618.556H54.286l-4.344-4.344h6.136l2.954,2.954Zm-1.767-4.684H56.4l.327-.365.538.365ZM56.084,24.47H49.942l4.344-4.344h4.177l.618.562-.043.828ZM44.77,13.705v.865l-.358-.327.358-.544Zm-9.535,3.368.618.618-.494.025ZM29.1,21.516l-.037-.828.612-.562h4.177L38.2,24.47H32.053L29.1,21.516ZM30.873,26.2h.865l-.327.365-.538-.365Zm1.186,3.133H38.2l-4.338,4.344H29.681l-.612-.556.037-.828,2.954-2.954Zm11.611,8.5-.3.062V31.05l.142-.142.3-1.52-.834.161-.476-.7-.859,1.285v.2l-4.838,4.838-.173-.253-.538.8-.742.031.049-.241-.179.031.031-.667.8-.538-.253-.167,4.838-4.838h.2l1.285-.859-.7-.47.161-.834-1.52.3-.142.142h-6.84l.062-.3-.952.185-.55-.494.21-.136L31.7,26.75,32.2,26.3l.952.185-.062-.3h6.84l.142.142,1.52.3-.161-.828.7-.47L40.84,24.47h-.2L35.8,19.631l.253-.167-.8-.544-.037-.742.241.049-.037-.179.667.031.538.8.173-.253,4.838,4.838v.2l.859,1.285.476-.7.834.161-.3-1.52-.142-.142V15.9l.3.056-.185-.945.494-.55.142.2.1-.148.445.488-.185.945.3-.056v6.84l-.136.142-.3,1.52.828-.161.476.7.865-1.285v-.2l4.838-4.838.167.253.538-.8.742-.037-.049.241.179-.037-.031.667-.8.544.253.167L47.5,24.457h-.2l-1.285.865.7.47-.167.828,1.52-.3.142-.142h6.834l-.056.3.945-.185.55.494-.21.142.154.1-.494.445L55,27.287l.056.3H48.218l-.142-.142-1.52-.3.167.834-.7.47,1.285.859h.2l4.838,4.838-.253.167.8.538.037.742-.241-.043.037.179-.667-.031-.538-.8-.167.253-4.838-4.838v-.2l-.865-1.285-.476.7-.828-.161.3,1.52.136.142v6.84l-.3-.062.185.952-.494.544-.136-.2-.105.148-.445-.488.185-.952ZM41.4,48.488l1.705-1.705V52.6l.927,1.223.921-1.223V46.7l1.792,1.792.2,4.14.185-3.751,1.687,1.687.711.093-.1-.711-1.594-1.594,3.986-.2-4.393-.21L45.4,45.918l-.451-.087V41.679l.686.9.575-.76.105.093-.1-.105.278-.371V40.8l2.187,2.187.031.649-.779.859.785-.711.154,3.263.173-3.565.068-.056,1.718,1.718.463.068.2.266.167-.216.266.037-.043-.327.278-.371V42.161h.087l2.645,2.391L52.7,42.136l1.057-.056L52.6,42.025l-.439-.482v-3.1l.451.451.463.062V39.1l.012-.142.945.136-.13-.982L56.77,40.98l-.2.309V44.15l-2.96,3.256,2.96-2.682V46.98l.433.575.439-.575V44.6l2.787,2.527-2.787-3.071v-2.41l4.109,4.115,1.52.2-.21-1.514L58.68,40.27h2.533l3.065,2.787L61.751,40.27h2.385l.575-.439-.575-.433H61.88l2.682-2.96L61.306,39.4H58.445l-.383.26-2.935-2.941,1.125.154-.13-.945h.142l-.148-.012-.068-.457-.451-.451h3.1l.482.439.056,1.156.049-1.063L61.7,37.73l-2.4-2.639v-.087h2.441l.365-.284.327.049L62.4,34.5l.21-.167-.266-.2-.068-.463-1.718-1.718.062-.068,3.559-.173-3.263-.154.717-.785-.859.779-.649-.031-2.194-2.194h.643l.371-.278.111.1-.1-.105.766-.575-.791-.6h4.06l.068.365,2.027,2.027.21,4.393.192-3.986,1.594,1.594.717.1-.1-.711-1.687-1.687,3.757-.185-4.14-.2-1.705-1.705h5.821l1.223-.927-1.223-.927h-5.9l1.792-1.792,4.14-.2-3.757-.185,1.687-1.687.1-.717-.717.1L65.5,23.129,65.3,19.143l-.21,4.393-2.027,2.027-.087.451H58.828l.908-.686-.766-.575.1-.105-.111.1-.371-.278H57.95l2.187-2.187.649-.031.859.779-.717-.785,3.263-.161-3.559-.173-.062-.062,1.718-1.718.068-.463.266-.2-.21-.161.037-.266-.327.049-.365-.284H59.322v-.087l2.391-2.639-2.422,2.194-.049-1.057-.056,1.156-.482.439h-3.1l.451-.451.068-.457h.148l-.142-.012.13-.945-.982.136,2.867-2.867.309.21h2.861l3.256,2.954-2.682-2.954h2.255l.575-.439-.575-.433H61.763L64.29,10.77l-3.065,2.787h-2.41l4.115-4.122.21-1.52-1.52.21L57.45,12.3V9.769L60.237,6.7,57.45,9.226V6.84l-.439-.581-.433.581V9.1l-2.96-2.682,2.96,3.256v2.867l.253.377L53.9,15.856l.154-1.125-.945.13v-.142l-.012.142-.463.062-.451.451v-3.1l.439-.482,1.156-.056-1.057-.049L54.91,9.275l-2.645,2.391h-.087V9.226L51.9,8.855l.043-.327-.266.037-.167-.216-.2.266-.463.062L49.133,10.4l-.068-.056-.173-3.565-.154,3.256-.785-.711.779.859-.031.649L46.513,13.02v-.643l-.278-.371.1-.105-.105.1-.575-.76-.6.791V7.971l.365-.068,2.027-2.027,4.393-.21-3.986-.2,1.594-1.594.1-.717-.711.1L47.149,4.943l-.185-3.757-.2,4.14L45.061,7.032V1.223L44.134,0l-.927,1.223v5.9L41.415,5.339l-.2-4.14-.179,3.757L39.345,3.269l-.717-.1.1.717,1.594,1.594-3.986.2,4.393.21,2.027,2.027L43.207,8v4.159l-.692-.9-.575.76-.111-.1.1.105-.278.371v.636l-2.187-2.181-.031-.649.779-.859-.785.711L39.264,6.8l-.173,3.559-.062.062L37.306,8.694l-.463-.062-.2-.266-.161.216-.266-.037.043.327-.278.371v2.435H35.9L33.258,9.287,35.452,11.7l-1.057.049,1.156.056.433.482v3.1l-.451-.451-.463-.062v-.142l-.012.142-.945-.13.136.982L31.38,12.859l.21-.309V9.683l2.96-3.256L31.59,9.108V6.853l-.433-.581-.439.581V9.238L27.932,6.711l2.787,3.071v2.41L26.6,8.076l-1.514-.21.2,1.52,4.177,4.177H26.937l-3.071-2.787,2.521,2.787H24.008L23.433,14l.575.439h2.255l-2.682,2.954,3.256-2.954H29.7l.383-.26,2.941,2.935-1.131-.154.13.945H31.88l.148.012.068.457.451.451h-3.1l-.482-.439-.056-1.156-.049,1.057-2.416-2.194,2.4,2.639v.087H26.412l-.377.284-.327-.049.037.266-.21.161.26.2.062.463,1.718,1.718-.056.062-3.565.173,3.263.161-.711.785.859-.779.649.031,2.194,2.187h-.643l-.371.278-.111-.1.1.105-.76.575.791.6H25.157l-.074-.358-2.027-2.027-.21-4.393-.192,3.986-1.594-1.594-.717-.1.1.717,1.687,1.687-3.757.185,4.14.2,1.705,1.7H18.4l-1.223.933L18.4,27.8h5.907l-1.792,1.792-4.14.2,3.757.185-1.687,1.687-.1.711.717-.1,1.594-1.594.192,3.986.21-4.393,2.027-2.027.087-.451h4.159l-.9.686.76.575-.1.105.111-.1.371.278h.643l-2.194,2.194-.649.031-.859-.779.711.785-3.263.154,3.565.173.056.068-1.718,1.718-.062.463-.26.2.21.167-.037.266.327-.049.377.284h2.435V35.1l-2.391,2.639,2.416-2.194.049,1.057.056-1.156.482-.439h3.1l-.451.451-.068.457H31.9l.142.012-.13.945.982-.136-2.867,2.873-.309-.21H26.857L23.6,36.445l2.682,2.96H24.027l-.575.433.575.433h2.379l-2.521,2.787,3.071-2.787h2.41L25.25,44.385l-.21,1.52,1.52-.21,4.177-4.177v2.533L27.95,47.123,30.737,44.6V46.98l.439.575.433-.575V44.725l2.96,2.682-2.96-3.256V41.289l-.253-.383,2.935-2.941-.154,1.125.945-.136V39.1l.012-.142.463-.062.451-.451v3.1l-.433.482-1.156.056,1.057.056-2.194,2.416,2.639-2.391h.087v2.435l.278.371-.043.327.266-.037.161.216.2-.266.463-.068,1.724-1.718.062.056.173,3.565.161-3.263.785.711-.779-.859.037-.655,2.187-2.187v.643l.278.371-.1.105.111-.093.575.76.6-.791v4.06l-.365.074-2.027,2.027-4.393.21,3.986.2L38.752,49.94l-.1.711.717-.093,1.687-1.687.179,3.751.2-4.14Z" transform="translate(-6.582)" fill="#006"/>
    <path id="Path_8725" data-name="Path 8725" d="M112.311,20.37l-3.127-.649h-.031l-.117-.117h2.391l.562.562.321.21Zm-3.436.031,2.694,1.761-.352-.068h-.884L108.641,20.4h.229Zm-.544.612-.019-.019v-.167l1.693,1.693v.791l.08.371-1.749-2.676Zm-.7.266.661,3.151-.2-.3-.624-.624V21.118l.161.161h0Zm-.816-.945V20.1l.117-.117v.229Zm.117,3.238-.556.556-.21.321.649-3.133v-.025l.117-.117v2.391Zm-.8-2.558-1.767,2.694.074-.352v-.884l1.693-1.693v.229Zm-2.91,1.131-.377.08,2.676-1.749.019-.019h.167l-1.693,1.693h-.791Zm2.039-2.373-3.151.655.3-.2.624-.624h2.391l-.161.161Zm-3.176-1.464,3.127.649h.025l.117.117h-2.391l-.562-.562-.321-.21Zm3.436-.031-2.694-1.761.352.074h.884l1.693,1.693h-.229Zm.544-.612.019.019v.167L104.4,16.156v-.791l-.08-.371,1.749,2.669Zm.7-.26-.655-3.151.2.3.624.624v2.391l-.161-.161h0Zm.816.945v.229l-.117.117v-.229Zm-.117-3.238.556-.562.21-.321-.655,3.127v.031l-.117.117V15.112Zm.8,2.558,1.767-2.694-.074.352v.884L108.264,17.9v-.229h0Zm2.91-1.125.371-.08-2.669,1.749-.019.019h-.167l1.693-1.693h.791Zm-3.324,2.533.161-.161h.167l-.161.161Zm0,.538h.229l.117.117h-.229Zm-.383.377.161.161v.167l-.161-.161Zm-1.088-.377h.167l-.161.161h-.167Zm.167-.538h-.229l-.117-.117h.229Zm.377-.383-.161-.161v-.167l.161.161Zm2.212.216,3.151-.655-.3.2-.624.624h-2.4l.167-.161h0Zm6.1,1.23,1.712,1.118L115,19.314l1.946-1.946-1.712,1.125-.593.587H112.07l1.965-1.965-1.712,1.125h-2.509l1.78-1.78,1.971-.414h-2.688l1.817-1.817h.742l2-.414h-2.756V11.058l-.414,2v.834l-1.817,1.817V12.931l-.42,2.008-1.773,1.773V14.191l1.106-1.687-1.9,1.9V11.837l.525-.525L109.11,9.6l-1.946,1.946L105.217,9.6l1.118,1.712.587.587v2.571L104.958,12.5l1.125,1.712v2.509l-1.78-1.78-.414-1.977v2.688l-1.817-1.817V13.1l-.42-2v2.756H98.9l2,.414h.828l1.823,1.817h-2.781l2.008.414,1.773,1.773h-2.515l-1.687-1.106,1.9,1.9H99.687l-.525-.525L97.45,17.417,99.4,19.363,97.45,21.31l1.712-1.118.587-.587h2.571l-1.965,1.965,1.718-1.125h2.509l-1.78,1.78-1.977.408h2.688L101.7,24.449h-.742l-2,.414h2.756v2.756l.414-2.008v-.834l1.817-1.817V25.74l.414-2.008,1.773-1.773v2.515L105.02,26.16l1.9-1.9v2.571l-.525.525-1.118,1.712,1.946-1.946,1.946,1.946-1.118-1.712-.587-.593V24.189l1.965,1.965-1.125-1.718V21.928l1.78,1.78.414,1.977V22.99l1.817,1.817v.742l.414,2V24.8h2.756l-2-.42h-.834l-1.817-1.823h2.781l-2.008-.414-1.773-1.773h2.515l1.687,1.106-1.9-1.9H114.7l.525.525Z" transform="translate(-37.251 -3.668)" fill="#0cf"/>
    <path id="Path_8726" data-name="Path 8726" d="M303.9,186.615l-4.554-.945H299.3l-.167-.173h3.479l.816.816.463.3Zm-5.005.043,3.924,2.571-.513-.105h-1.285l-2.465-2.465h.334Zm-.791.89-.031-.025v-.241l2.459,2.459V190.9l.117.544-2.552-3.893Zm-1.02.383.958,4.591-.284-.433-.908-.908V187.7l.235.235h0Zm-1.193-1.372v-.334l.173-.173v.34Zm.173,4.715-.809.816-.3.463L295.9,188v-.037l.173-.173v3.485Zm-1.162-3.726-2.571,3.924.105-.507V189.68l2.466-2.465v.334Zm-4.239,1.644-.544.111,3.893-2.552.025-.031h.241l-2.466,2.465h-1.149Zm2.966-3.454-4.591.958.433-.284.908-.908h3.485l-.235.235Zm-4.622-2.138,4.554.945h.037l.173.173h-3.479l-.816-.816-.463-.3Zm5.005-.043-3.924-2.571.513.105h1.285l2.465,2.466h-.334Zm.8-.89.031.031v.241l-2.466-2.459v-1.155l-.111-.544,2.552,3.893Zm1.02-.383-.958-4.591.284.439.908.908v3.485l-.235-.235h0Zm1.193,1.372v.334l-.167.167v-.334l.167-.173Zm-.167-4.715.816-.816.309-.463-.952,4.554v.043l-.167.167v-3.485Zm1.162,3.726,2.571-3.924-.105.513v1.285l-2.466,2.465v-.334h0Zm4.233-1.644.544-.117-3.893,2.546-.025.025h-.241l2.465-2.459h1.149Zm-4.845,3.689.235-.235h.241l-.235.235Zm0,.785h.334l.173.173h-.334l-.167-.173Zm-.556.55.235.235v.241l-.235-.235Zm-1.582-.55h.241l-.241.235h-.241l.235-.235Zm.241-.785h-.334l-.173-.167h.334Zm.556-.556-.235-.235v-.241l.235.235Zm3.219.315,4.591-.952-.433.284-.908.9h-3.485l.241-.235h0Zm8.88,1.786,2.49,1.631-2.836-2.83,2.836-2.836-2.49,1.631-.859.859h-3.745l2.867-2.861-2.5,1.637h-3.652l2.6-2.6,2.873-.6h-3.918l2.651-2.645h1.081l2.917-.606h-4.01v-4.01l-.606,2.917v1.211l-2.645,2.651v-4.047l-.612,2.923-2.583,2.583V177.6l1.607-2.453-2.768,2.768V174.17l.76-.76,1.631-2.49-2.836,2.836-2.836-2.836,1.631,2.49.859.859v3.745l-2.867-2.861,1.637,2.5V181.3l-2.589-2.589-.6-2.873v3.918L289,177.105v-1.081l-.606-2.917v4.01h-4.01l2.917.606h1.211l2.651,2.651h-4.054l2.923.606,2.583,2.583H288.95l-2.459-1.607,2.774,2.768H285.52l-.76-.766-2.49-1.631,2.836,2.836-2.836,2.83,2.49-1.631.859-.859h3.745L286.5,188.37l2.5-1.637h3.652l-2.6,2.6-2.873.6h3.918l-2.645,2.651H287.38l-2.917.606h4.01v4.01l.606-2.923V193.06l2.651-2.645v4.047l.606-2.923,2.589-2.583v3.664l-1.613,2.459,2.768-2.774v3.745l-.766.766-1.631,2.49,2.836-2.83,2.83,2.83-1.631-2.49-.853-.859v-3.745l2.861,2.861-1.638-2.5v-3.652l2.6,2.6.6,2.873v-3.918l2.651,2.645V194.2l.606,2.917v-4.01h4.01l-2.917-.606h-1.211l-2.651-2.651h4.047l-2.923-.606-2.577-2.583h3.664l2.459,1.613-2.768-2.768h3.745l.766.766Z" transform="translate(-107.867 -65.305)" fill="#006"/>
    <path id="Path_8727" data-name="Path 8727" d="M248.258,188.323l-.012-.031.043.019Zm-.5.21.161-.389.154.074.074.154-.389.161Zm.216-.525.019.043-.031-.012Zm.087-.216.649-1.582,2.317-.97-.958,2.323-1.576.655-.321-.111-.117-.321Zm-.093-2.064.142-.222.21.1-.365.154Zm.13-.655-.068.192-.259-.056Zm-1.959-1.483.012.043-.031-.012Zm-.513-.173.389-.161.056.161-.056.161Zm.531-.222-.019.043-.012-.031Zm1.607-1.613.26-.056.08.216-.371-.154.037-.012Zm.216-2.805-.019.043-.012-.031Zm-.241-.488.389.161-.074.154-.154.074Zm.531.216-.037.025V178.5l.037.012Zm2.243-.019.031.012.216.148-.1.21-.154-.365Zm2.342-1.736.309.142.661,1.576-.958,2.323-.964-2.317.649-1.582.309-.148Zm-.2-.1.031.019-.043.012Zm.2-.5.161.389-.161.056-.161-.056Zm.216.531-.043-.019.031-.012.012.031Zm1.613,1.607.056.26-.216.08.148-.371.012.031Zm2.793.179.012.031-.043-.019Zm.494-.21-.161.389-.155-.074-.074-.154.389-.161Zm-.216.531-.019-.037.031.012-.012.031Zm-.086.216-.649,1.582-2.317.97.958-2.323,1.576-.661.321.111.117.321Zm.1,2.064-.148.222-.21-.1.371-.154Zm-.13.655.068-.192.26.049-.328.136Zm1.965,1.483-.012-.043.025.012Zm.513.173-.4.167-.056-.161.056-.161.389.161Zm-.531.222.019-.043.012.031Zm-1.6,1.613-.26.056-.08-.216.371.154-.037.012Zm-.216,2.805.019-.043.012.031Zm.241.488-.389-.161.074-.154.154-.074.161.389Zm-.531-.216.043-.019-.012.031-.031-.012Zm-2.243.025-.031-.012-.216-.148.1-.21.154.371Zm-2.348,1.736-.309-.148-.661-1.576.958-2.323.964,2.317-.649,1.582-.309.148Zm.21.1-.031-.012.043-.012-.012.031Zm-.2.5-.161-.389.161-.056.161.056Zm-.216-.525.043.019-.031.012-.012-.031Zm-1.619-1.6-.056-.259.216-.08-.154.371-.012-.031Zm-.278-.377-.222.148.136-.327Zm3.911.358-.136-.327.192.068-.049.26Zm3.009-.729-.111.321-.321.117-1.582-.649-.964-2.317,2.323.952.661,1.576Zm.056-2.045-.327-.136.179-.087Zm.037-1.372-2.323-.958,2.317-.97,1.582.649.142.309-.142.309Zm-2.608-5.833-.136.327-.087-.179.216-.148Zm-4.128-.21.136.327-.192-.068Zm-3.015.729.117-.321.315-.117,1.582.649.97,2.317-2.323-.958-.661-1.576Zm-.056,2.045.328.136-.179.087Zm-.037,1.372,2.323.952-2.317.97-1.582-.649-.142-.309.142-.309,1.576-.661Zm3.071,5.017-.124-.025,1.063-2.589.074-.031.352-.531-.34-.068-.068-.34-.525.352-.031.074-2.583,1.081-.025-.124-.328.222-.284-.105.056-.086-.074-.012.117-.247.389-.08-.068-.1,2.583-1.081.074.031.618-.124-.192-.29.192-.29-.624-.124-.074.031-2.589-1.063.068-.105-.389-.074-.13-.272.1-.019-.043-.062.253-.093.334.216.025-.117,2.589,1.063.031.074.531.346.068-.34.34-.068-.352-.525-.074-.031-1.075-2.583.124-.025-.216-.327.105-.284.086.056.012-.074.247.117.08.383.105-.068,1.075,2.583-.031.074.124.618.284-.192.29.192.124-.624-.031-.074,1.063-2.589.105.068.08-.389.272-.13.019.1.062-.043.093.253-.216.328.117.025-1.063,2.589-.074.031-.346.531.34.068.068.34.525-.352.031-.074,2.583-1.081.025.117.328-.216.284.1-.056.086.074.019-.117.247-.389.08.068.105-2.583,1.081-.074-.031-.618.124.192.29-.192.29.624.124.074-.031,2.589,1.063-.068.105.389.08.13.272-.1.019.043.062-.253.093-.328-.216-.025.124-2.589-1.063-.031-.074-.531-.352-.068.34-.34.068.352.525.074.031,1.075,2.583-.117.025.216.327-.1.284-.087-.056-.012.074-.247-.117-.08-.389-.1.068-1.081-2.583.031-.074-.13-.618-.29.192-.29-.192-.124.624.025.074-1.063,2.589-.1-.068-.08.389-.272.13-.019-.1-.062.037-.093-.253.216-.327Zm-2.515,3.683.908-.383-.9,2.206.161.606.538-.321.921-2.237.4.958-.569,1.594.655-1.39.377.9.253.148.074-.284-.352-.853,1.539.55-1.631-.766-.451-1.081-.154-.105.649-1.57.117.451.34-.2.025.056-.019-.056.161-.1.1-.241.488,1.168-.093.247-.426.2.408-.148-.445,1.261.618-1.322.037-.012.383.915.167.1.031.13.093-.056.1.056.031-.13.161-.1.377-.921.037.012.63,1.316-.451-1.254.408.142-.433-.2-.093-.247.482-1.174.1.241.167.1-.025.056.025-.056.34.2.105-.4.643,1.532-.13.087-.445,1.081-1.625.772,1.539-.556-.352.853.074.284.253-.148.371-.9.661,1.39-.575-1.594.377-.908.915,2.194.544.315.155-.606-.933-2.231.958.4.729,1.532-.525-1.446.9.371.284-.074-.148-.253-.853-.352,1.477-.7-1.693.612-1.081-.445-.185.037-.655-1.569.4.235.1-.377.056.018-.056-.025.049-.185-.1-.241,1.168.482.111.241-.161.445.185-.4.575,1.2-.494-1.372.012-.031.921.377.185-.049.117.068.025-.105.105-.031-.068-.117.049-.185-.383-.921.031-.019,1.372.488-1.211-.568.4-.185-.445.161-.241-.111-.488-1.168.241.1.185-.049.025.056-.019-.056.377-.1-.2-.352,1.532.63-.031.148.451,1.081-.606,1.693.692-1.477.352.847.253.148.074-.284-.377-.9,1.452.513-1.539-.723-.377-.908,2.2.9.606-.161-.321-.544-2.231-.921.958-.4,1.6.569-1.39-.655.9-.377.148-.253-.284-.074-.853.358.55-1.539-.766,1.631-1.081.451-.105.154-1.57-.649.451-.117-.2-.34.056-.025-.056.019-.093-.161-.241-.1,1.168-.488.247.093.2.426-.148-.408,1.261.445-1.322-.618-.012-.037.921-.383.1-.167.13-.031-.056-.093.056-.1-.13-.031-.1-.167-.921-.377.012-.031,1.316-.624-1.254.451.148-.408-.2.426-.247.093-1.174-.482.241-.1.1-.167.056.019-.056-.025.2-.34-.389-.1,1.532-.643.086.13,1.081.445.772,1.625-.556-1.532.853.352.284-.074-.148-.253-.9-.371,1.39-.661-1.594.575-.908-.377,2.194-.921.315-.544-.606-.154-2.225.933.4-.958,1.532-.729-1.446.525.371-.9-.074-.29-.253.154-.352.853-.7-1.477.612,1.693-.445,1.081.037.185-1.57.655.235-.4-.377-.1.019-.056-.025.056L258,180.16l-.241.1.482-1.174.241-.117.445.161-.389-.179,1.2-.575-1.372.494-.031-.012.377-.921-.049-.185.068-.117-.105-.025-.031-.105-.117.068-.185-.049-.921.383-.019-.031.488-1.372-.569,1.211-.185-.389.161.445-.111.241-1.168.488.1-.241-.049-.185.056-.025-.056.019-.1-.377-.352.2.63-1.539.148.031,1.081-.451,1.693.606-1.477-.692.853-.352.148-.253-.284-.074-.9.377.513-1.452-.723,1.532-.908.377.9-2.2-.161-.606-.544.321-.921,2.231-.4-.958.568-1.6-.655,1.39-.377-.9-.253-.148-.074.284.352.853-1.539-.544,1.631.766.451,1.081.161.105-.649,1.57-.117-.451-.34.2-.025-.056.019.056-.161.1-.1.241-.488-1.168.087-.253.426-.2-.408.148.445-1.261-.618,1.322-.031.012-.383-.921-.167-.1-.037-.13-.093.056-.093-.056-.037.13-.161.1-.377.921-.031-.012L251.526,175l.451,1.254-.408-.148.426.2.093.253-.482,1.168-.1-.241-.161-.1.019-.056-.025.056-.334-.2-.105.4-.643-1.532.124-.087.445-1.081,1.625-.772-1.539.556.352-.853-.074-.284-.253.148-.371.9-.661-1.39.575,1.594-.377.915-.921-2.194-.544-.315-.154.606.933,2.231-.958-.4-.729-1.532.525,1.446-.9-.371-.284.074.148.253.853.352-1.477.7,1.693-.612,1.081.445.185-.037.655,1.57-.4-.235-.1.377-.056-.019.056.025-.049.185.1.241-1.174-.482-.117-.241.161-.445-.185.389-.575-1.2.494,1.372-.012.031-.921-.377-.185.049-.117-.068-.031.105-.105.025.068.117-.049.185.383.915-.031.019-1.378-.488,1.211.568-.389.185.445-.161.241.111.488,1.168-.241-.1-.185.049-.025-.056.018.056-.377.1.2.346-1.532-.63.031-.148-.451-1.081.606-1.693-.692,1.477-.352-.853-.253-.148-.074.284.377.9-1.452-.513,1.532.723.383.908-2.2-.9-.606.161.321.538,2.231.921-.958.4-1.594-.569,1.4.655-.9.377-.148.253.284.074.847-.352-.544,1.539.76-1.631,1.081-.451.1-.154,1.57.649-.451.117.2.334-.056.025.056-.019.093.161.241.1-1.168.488-.247-.086-.2-.426.148.408-1.261-.445,1.322.618.012.037-.921.383-.093.167-.13.037.056.093-.056.093.13.031.1.167.921.377-.012.031-1.316.624,1.254-.451-.142.408.2-.433.247-.093,1.174.482-.241.1-.093.161-.056-.019.056.025-.2.34.4.1-1.532.643-.086-.124-1.081-.445-.772-1.625.556,1.539-.853-.352-.284.074.148.253.9.371-1.39.661,1.594-.575.915.377-2.194.915-.315.544.606.154,2.231-.933-.4.958-1.532.729,1.446-.525-.371.9.074.284.253-.148.352-.853.7,1.477-.612-1.693.445-1.081-.037-.185,1.57-.655-.235.4.377.1-.019.056.025-.056.185.049.241-.1-.482,1.168-.241.117-.445-.161.389.185-1.2.575,1.372-.494.031.012-.377.921.049.185-.068.117.105.025.031.105.117-.068.185.049.921-.383.012.031-.488,1.372.568-1.211.185.389-.161-.445.117-.241,1.168-.488-.1.241.049.185-.056.025.056-.019.1.377.352-.21-.63,1.532-.148-.031-1.081.451-1.693-.606,1.477.692-.853.352-.148.253.284.074.9-.377-.513,1.452.723-1.532Z" transform="translate(-92.745 -66.172)" fill="#0cf"/>
    <path id="Path_8728" data-name="Path 8728" d="M210.571,57.275h0a10.591,10.591,0,0,0-7.625-7.953c-31.8-8.5-61.811-12.643-91.724-12.643A324.887,324.887,0,0,0,21.8,49.36,10.672,10.672,0,0,0,14.06,59.592V118a10.646,10.646,0,0,0,10.634,10.634c28.109,0,48.964,4.826,61.514,8.867,13.236,4.264,20.206,8.571,20.466,8.731a10.433,10.433,0,0,0,5.753,1.724,10.613,10.613,0,0,0,5.7-1.656c.284-.179,28.888-17.666,82.078-17.666A10.646,10.646,0,0,0,210.837,118V59.592a10.783,10.783,0,0,0-.26-2.317ZM198.429,89.481a2.119,2.119,0,0,0-.025.284v26.453c-51.022.352-80.311,15.732-85.953,18.995-5.561-3.287-34.295-18.649-85.977-18.995V90.266a8.767,8.767,0,0,0-1.508-4.412,8.312,8.312,0,0,0,1.5-4.22c0-.056.006-.111.006-.161V60.952a311.874,311.874,0,0,1,84.735-11.846c9.763,0,19.73.476,29.629,1.415A359.867,359.867,0,0,1,198.4,60.97V82.1a2.013,2.013,0,0,0,.019.272,8.576,8.576,0,0,0,1.409,3.615,8.143,8.143,0,0,0-1.409,3.5Z" transform="translate(-5.39 -14.015)"/>
    <g id="Group_2481" data-name="Group 2481" transform="translate(17.105 31.1)">
      <path id="Path_8729" data-name="Path 8729" d="M117.772,144.655a2.024,2.024,0,0,1-1.1-.328c-.13-.087-7.576-4.82-21.856-9.491-13.236-4.332-35.221-9.491-64.8-9.491A2.017,2.017,0,0,1,28,123.325V64.919a2.024,2.024,0,0,1,1.471-1.946A316.288,316.288,0,0,1,116.548,50.62c29.16,0,58.431,4.041,89.5,12.346a2.023,2.023,0,0,1,1.5,1.953v58.406a2.017,2.017,0,0,1-2.021,2.021c-55.909,0-86.373,18.8-86.676,18.995a1.99,1.99,0,0,1-1.075.309Z" transform="translate(-27.821 -50.441)" fill="#0cf"/>
      <path id="Path_8730" data-name="Path 8730" d="M117.661,144.717a2.19,2.19,0,0,1-1.193-.352c-.074-.049-7.563-4.807-21.819-9.473-13.224-4.325-35.191-9.485-64.74-9.485a2.2,2.2,0,0,1-2.2-2.194V64.808a2.21,2.21,0,0,1,1.6-2.113A316.387,316.387,0,0,1,116.437,50.33c29.178,0,58.461,4.041,89.543,12.352a2.208,2.208,0,0,1,1.631,2.126v58.406a2.2,2.2,0,0,1-2.2,2.194c-55.842,0-86.28,18.779-86.583,18.97a2.2,2.2,0,0,1-1.174.34Zm-1.223-94.035A316.133,316.133,0,0,0,29.409,63.028,1.852,1.852,0,0,0,28.062,64.8v58.406a1.849,1.849,0,0,0,1.848,1.848c29.592,0,51.6,5.166,64.851,9.5,14.3,4.678,21.825,9.46,21.9,9.51a1.879,1.879,0,0,0,1.99.012c.3-.192,30.828-19.02,86.768-19.02a1.849,1.849,0,0,0,1.848-1.848V64.8a1.851,1.851,0,0,0-1.372-1.786c-31.057-8.3-60.315-12.34-89.456-12.34Z" transform="translate(-27.71 -50.33)"/>
    </g>
    <path id="Path_8731" data-name="Path 8731" d="M137.974,122.265l-.087-.093h.173Zm-1.52,1.526v-1.681l.686.031.507.457-1.186,1.193Zm0-2.274.13.117h-.13Zm0-.921v-6.8l7.069-7.075v10l-4.82,4.807-1.347.074-.908-1.007Zm-3.473-7.452.2-1.032.921.049-1.125,1.118v-.142Zm-.5-2.608.043.8-1.038.2,1-1.007Zm-9.467-2.484.111.13H123Zm-2.163.13,1.193-1.193.457.513.031.68h-1.687Zm1.613-1.607v.179l-.093-.087Zm3.467-8.373.877-.587.612.68h-1.594l.111-.1Zm-3.46-10.659v.173l-.1-.087.1-.093Zm-1.619-1.434h1.687l-.031.692-.457.507-1.193-1.2Zm2.274,0-.111.136L123,86.111Zm8.231-3.473h.142l1.026.2-.043.915-1.125-1.118Zm6.012-9.936,1.347.068,4.82,4.814v10l-7.069-7.075v-6.8l.908-1Zm-.908-.043.13.012-.13.117Zm0-2.15,1.186,1.193-.507.463-.686.031V70.508Zm1.607,1.613h-.173l.087-.093Zm8.379,3.46.581.865-.674.618V75.476Zm10.566-3.559.093.1h-.179Zm1.52-1.52v1.687l-.686-.031-.507-.463Zm0,2.28-.13-.117.13-.012Zm0,.921v6.8l-7.069,7.075v-10l4.814-4.814,1.353-.068.908,1ZM162,81.149l-.2,1.038-.915-.049,1.125-1.125v.136Zm.5,2.614-.037-.8,1.044-.2-1,1.007Zm9.473,2.49-.117-.136h.124v.136Zm2.157-.136-1.2,1.2-.457-.507-.031-.692Zm-1.613,1.613v-.173l.087.093-.087.087Zm-3.46,8.373-.877.587-.612-.68h1.594l-.111.093Zm3.454,10.659v-.179l.093.093Zm1.619,1.434h-1.687l.031-.68.457-.513,1.2,1.193Zm-2.28,0,.117-.13v.13Zm-8.231,3.485h-.142l-1.026-.21.043-.915,1.125,1.131Zm-6.012,9.936-1.353-.074-4.814-4.807v-10l7.069,7.075v6.8l-.908,1.007Zm.908.043h-.13l.13-.124Zm0,2.15-1.193-1.193.507-.457.686-.031Zm-1.607-1.613h.179l-.093.087Zm-8.379-3.454-.587-.871.674-.618v1.594l-.093-.1Zm-1.607-.958-.587.884v-1.415l.587.538Zm14.948-4.6-1-1,.8-.043.2,1.038Zm9.992-7.242.068,1.353-1.007.908h-6.8l-7.075-7.075h10Zm-2.88-7.631h-1.415l.531-.6ZM167.06,93.2h-10l7.075-7.075h6.8l1.007.915-.068,1.347L167.053,93.2ZM148.627,75.662v1.415l-.587-.531.587-.877Zm-15.535,5.481,1,1.007-.8.037-.2-1.044ZM123.1,88.385l-.062-1.347,1-.915h6.8l7.075,7.075h-10l-4.814-4.814Zm2.886,7.631H127.4l-.538.593Zm1.928,5.11h10l-7.069,7.075h-6.8l-1-.908.062-1.353Zm18.908,13.841-.482.1V103.925l.229-.235.488-2.478-1.359.266-.772-1.143-1.4,2.095v.327l-7.878,7.878-.278-.408-.877,1.31-1.2.056.08-.4-.29.056.049-1.088,1.3-.877-.408-.272,7.885-7.885h.327l2.095-1.4-1.143-.766.26-1.359-2.478.482-.235.235H129.583l.1-.488-1.551.3-.9-.8.34-.229-.253-.167.8-.729,1.551.3-.1-.482h11.147l.235.229,2.478.482-.26-1.353,1.143-.766L142.225,93.2H141.9l-7.885-7.885.408-.272-1.3-.877-.056-1.2.4.08-.062-.29,1.088.056.877,1.3.278-.408,7.878,7.885v.327l1.4,2.089.772-1.143,1.359.266-.488-2.478-.229-.235V79.27l.482.093-.3-1.545.809-.89.229.334.161-.241.729.8-.3,1.545.482-.093V90.411l-.222.235-.482,2.478,1.347-.266L150.036,94l1.409-2.089v-.327l7.878-7.885.272.408.877-1.3,1.2-.062-.08.4.29-.056-.049,1.081-1.3.877.408.272L153.057,93.2h-.328l-2.095,1.409,1.143.766-.272,1.353,2.478-.482.235-.229h11.135l-.093.482,1.545-.3.9.809-.34.229.247.167-.8.723-1.545-.3.093.488H154.219l-.235-.235-2.478-.482.272,1.359-1.143.766,2.095,1.4h.327l7.885,7.885-.408.272,1.3.877.056,1.2-.4-.074.062.29-1.088-.056-.877-1.31-.272.408-7.878-7.878v-.327l-1.409-2.095-.772,1.143-1.347-.266.488,2.478.216.235V115.06l-.482-.1.3,1.545-.809.89-.222-.334-.167.241-.729-.8.3-1.545Zm-3.7,17.364,2.781-2.781v9.485l1.508,1.99,1.5-1.99v-9.621l2.923,2.917.327,6.742.3-6.117,2.744,2.744,1.162.154-.161-1.156-2.6-2.6,6.494-.315-7.162-.346-3.3-3.3-.735-.142v-6.766l1.118,1.471.939-1.242.173.154-.161-.173.457-.6V119.8l3.565,3.565.049,1.057-1.261,1.4,1.279-1.162.253,5.314.284-5.8.111-.093,2.8,2.8.754.111.321.426.266-.352.433.062-.074-.538.457-.606v-3.967h.142l4.3,3.9-3.572-3.936,1.718-.087-1.885-.093-.711-.785v-5.042l.735.742.754.105v.235l.019-.235,1.539.216-.216-1.607,4.671,4.671-.34.507v4.659l-4.82,5.308,4.82-4.369v3.677l.711.933.711-.933V126l4.536,4.115-4.536-5V121.19l6.7,6.7,2.472.334-.34-2.472-6.8-6.8h4.128l5,4.542-4.115-4.542h3.887l.939-.711-.939-.7h-3.67l4.369-4.82-5.308,4.82h-4.659l-.624.42-4.783-4.789,1.829.253-.21-1.545h.235l-.241-.025-.105-.748-.735-.735h5.042l.785.711.093,1.885.08-1.73,3.942,3.578-3.9-4.3v-.142H176.3l.6-.463.538.08-.062-.433.346-.266-.426-.327-.105-.754-2.8-2.8.093-.111,5.8-.284-5.314-.253,1.162-1.279-1.4,1.267-1.05-.049-3.565-3.572h1.044l.6-.451.179.161-.161-.173,1.242-.939-1.285-.976h6.606l.117.593,3.3,3.3.346,7.162.315-6.494,2.6,2.6,1.162.161-.161-1.162-2.75-2.744,6.124-.3-6.748-.328-2.774-2.774h9.479l1.99-1.508-1.99-1.514h-9.615l2.91-2.917,6.748-.327-6.124-.3,2.75-2.744.161-1.168-1.162.161-2.6,2.6-.315-6.5-.346,7.156-3.3,3.3-.148.735h-6.766l1.477-1.118-1.242-.939.161-.173-.179.161-.6-.451h-1.038l3.565-3.565,1.05-.049,1.4,1.267-1.162-1.273,5.314-.266-5.8-.278-.093-.105,2.8-2.8.105-.754.426-.321-.346-.266.062-.433-.538.074-.6-.463h-3.967v-.142l3.893-4.3L172.287,83.1l-.08-1.724-.093,1.878-.785.711h-5.042l.735-.735.105-.748.235-.012h-.229l.21-1.551-1.607.222,4.678-4.671.507.34h4.659l5.308,4.814-4.369-4.814h3.67l.939-.711-.939-.7H176.3l4.115-4.542-5,4.542H171.5l6.7-6.711.34-2.478-2.478.346-6.8,6.8V69.229l4.536-5-4.536,4.115V64.465l-.711-.939-.711.939v3.67l-4.82-4.369,4.82,5.308V73.74l.414.618-4.783,4.789.247-1.835-1.539.216-.012-.235v.241l-.76.1-.735.741V73.332l.711-.785,1.885-.093-1.724-.08,3.572-3.936-4.3,3.9h-.142V68.364l-.457-.606.074-.538-.433.062-.266-.346-.321.433-.754.105-2.8,2.805-.111-.093-.284-5.8-.253,5.308-1.279-1.162,1.261,1.4L155,70.99l-3.565,3.565V73.511l-.457-.606.161-.173-.173.161-.939-1.242-.976,1.285V66.325l.593-.117,3.3-3.294,7.162-.346-6.494-.315,2.6-2.6.161-1.162-1.162.161L152.464,61.4l-.3-6.117-.328,6.748L149.06,64.8V55.326l-1.508-2-1.508,2v9.615l-2.917-2.91-.334-6.748-.3,6.117-2.75-2.744-1.162-.161.161,1.162,2.6,2.6-6.494.315,7.156.346,3.3,3.294.742.142v6.772l-1.125-1.477-.939,1.242-.173-.161.167.173-.457.606v1.038l-3.565-3.559-.049-1.057,1.267-1.4-1.279,1.162-.26-5.308-.284,5.8-.105.1-2.805-2.805-.754-.105-.327-.433-.266.346-.433-.062.068.538-.457.606v3.967h-.142l-4.3-3.9,3.572,3.936-1.724.08,1.885.093.711.785v5.042l-.735-.741-.748-.1v-.241l-.019.235-1.539-.216.216,1.607-4.671-4.678.34-.5V69.069l4.82-5.308-4.82,4.369v-3.67l-.711-.939-.711.939v3.881l-4.536-4.115,4.536,5v3.93l-6.7-6.7-2.466-.34.334,2.478,6.8,6.8h-4.128l-5-4.542,4.109,4.542h-3.881l-.939.7.939.711h3.67l-4.375,4.814,5.308-4.814h4.665l.624-.42,4.789,4.783L127.6,80.92l.21,1.545h-.229l.241.019.105.748.735.735H123.62l-.785-.711-.093-1.878-.08,1.724-3.936-3.572,3.9,4.3v.142h-3.967l-.612.463-.531-.074.062.433-.346.266.426.321.105.754,2.805,2.8-.093.105-5.8.278,5.314.266-1.156,1.273,1.4-1.267,1.057.049,3.572,3.565h-1.044l-.6.451-.179-.161.161.173-1.242.939,1.285.976h-6.606L116.514,95l-3.3-3.3-.346-7.156-.315,6.5-2.6-2.6-1.168-.161.161,1.168,2.744,2.744-6.117.3,6.742.328,2.774,2.774H105.62l-1.99,1.514,1.99,1.508h9.621l-2.917,2.917-6.742.327,6.117.3-2.744,2.744-.161,1.162,1.168-.161,2.6-2.6.315,6.494.346-7.162,3.3-3.3.142-.729h6.772l-1.477,1.112,1.242.939-.161.173.179-.161.6.451h1.044L121.29,104.7l-1.057.049-1.4-1.267,1.156,1.279-5.314.253,5.8.284.093.111-2.805,2.8-.105.754-.426.327.346.266-.062.433.531-.08.612.463h3.961v.142l-3.893,4.3,3.936-3.572.08,1.724.093-1.885.785-.711h5.042l-.735.735-.105.748-.241.012h.229l-.21,1.551,1.6-.222-4.671,4.678-.507-.334h-4.665l-5.308-4.82,4.375,4.82h-3.67l-.939.711.939.711h3.881L114.53,123.5l5-4.536h3.924l-6.7,6.7-.34,2.478,2.478-.346,6.8-6.8v4.122l-4.536,5,4.536-4.115V129.9l.711.933.711-.933V126.22l4.82,4.369-4.82-5.308v-4.659L126.7,120l4.783-4.789-.253,1.835,1.539-.216.012.235v-.235l.76-.105.735-.741v5.042l-.711.785-1.885.093,1.724.087-3.572,3.936,4.3-3.9h.142v3.967l.457.606-.068.538.433-.062.266.352.327-.426.754-.111,2.805-2.8.105.093.284,5.8.26-5.314,1.279,1.162-1.267-1.4.056-1.063,3.565-3.559v1.038l.457.6-.167.173.173-.155.939,1.242.976-1.291v6.612l-.593.117-3.3,3.3-7.156.346,6.494.315-2.6,2.6-.161,1.156,1.162-.154,2.75-2.744.3,6.117.334-6.742Z" transform="translate(-39.613 -20.376)" fill="#c2dff5"/>
    <path id="Path_8732" data-name="Path 8732" d="M209.923,64.934c-17.771-6.97-41.518-10.3-67.811-8.923A361.179,361.179,0,0,1,201.29,66.862v22.5a6.658,6.658,0,0,0,1.977,3.9,6.582,6.582,0,0,0-1.977,3.769v28.239c-57.139,0-87.751,19.3-87.751,19.3s-29.8-19.3-87.751-19.3V98.6A61.047,61.047,0,0,0,16.94,109.72v15.553a8.842,8.842,0,0,0,8.849,8.842c28.338,0,49.39,4.869,62.064,8.954,13.415,4.325,20.527,8.706,20.9,8.941a8.671,8.671,0,0,0,4.77,1.434,8.827,8.827,0,0,0,4.739-1.384c.284-.179,29.073-17.944,83.036-17.944a8.846,8.846,0,0,0,8.849-8.842V66.868a9.036,9.036,0,0,0-.216-1.928Z" transform="translate(-6.49 -21.284)" fill="#c2dff5"/>
    <path id="Path_8733" data-name="Path 8733" d="M203.591,52.161C171.941,43.7,142.083,39.58,112.33,39.58A323.232,323.232,0,0,0,23.4,52.192a8.841,8.841,0,0,0-6.439,8.515v42.853a60.314,60.314,0,0,1,8.849-11.116v-.915a6.845,6.845,0,0,0-2.051-4.566,6.608,6.608,0,0,0,2.051-4.375V60.713c38.855-10.974,76.968-14.589,116.324-10.851,26.286-1.378,50.033,1.946,67.811,8.923a8.838,8.838,0,0,0-6.34-6.618Z" transform="translate(-6.498 -15.123)" fill="#006"/>
    <path id="Path_8734" data-name="Path 8734" d="M30,124.589c.97,0,1.928,0,2.88.019V99.872a6.845,6.845,0,0,0-2.051-4.566,6.608,6.608,0,0,0,2.051-4.375V69.056C71.736,58.082,109.849,54.467,149.2,58.206a358.127,358.127,0,0,1,56.3,10.1V66.189a360.645,360.645,0,0,0-59.178-10.851C106.97,51.6,68.856,55.215,30,66.189V88.064a6.6,6.6,0,0,1-2.051,4.375A6.845,6.845,0,0,1,30,97.005v27.584Z" transform="translate(-10.697 -20.599)" fill="#c2dff5"/>
    <path id="Path_8735" data-name="Path 8735" d="M116.973,144.376a.772.772,0,0,1-.414-.124l-.192-.124c-.074-.049-7.532-4.82-21.918-9.541C81.127,130.214,58.993,125,29.222,125H28.87a.766.766,0,0,1-.766-.766V96.3a5.748,5.748,0,0,0-1.724-3.775l-.247-.247a.768.768,0,0,1,0-1.081l.247-.247a5.488,5.488,0,0,0,1.73-3.689V65.221a.76.76,0,0,1,.556-.735l.253-.074a315.144,315.144,0,0,1,86.83-12.321c9.85,0,19.909.482,29.907,1.434a363.7,363.7,0,0,1,59.364,10.888l.26.068a.773.773,0,0,1,.568.742V87.9A5.62,5.62,0,0,0,207.5,91.1l.247.247a.768.768,0,0,1,0,1.081l-.247.247a5.4,5.4,0,0,0-1.65,3.071v28.492a.762.762,0,0,1-.766.766h-.352c-29.351,0-51.51,5.215-64.925,9.59-14.416,4.7-22.152,9.5-22.233,9.547l-.185.117a.745.745,0,0,1-.408.117Zm-86.632-21.6c29.537.13,51.541,5.339,64.838,9.708,12.346,4.054,19.705,8.157,21.8,9.411a118.545,118.545,0,0,1,22.1-9.411c13.384-4.369,35.407-9.578,64.536-9.708V95.622a.342.342,0,0,1,.012-.111,7.558,7.558,0,0,1,1.588-3.627,7.793,7.793,0,0,1-1.582-3.726c0-.019-.012-.093-.012-.111V66.339a361.216,361.216,0,0,0-58.171-10.6c-9.911-.945-19.9-1.421-29.691-1.421A312.9,312.9,0,0,0,30.347,66.327V87.355a7.735,7.735,0,0,1-1.675,4.381,7.952,7.952,0,0,1,1.668,4.474v26.564Z" transform="translate(-9.918 -19.903)"/>
    <path id="Path_8736" data-name="Path 8736" d="M214.516,80.076c-5.79-1.39-11.691-2.682-17.537-3.843a3.368,3.368,0,0,0-.612-.062,3.127,3.127,0,0,0-1.977.711,3.394,3.394,0,0,0-.266.247,7.825,7.825,0,0,0-4.134-2.231c-3.188-.581-6.42-1.137-9.6-1.644a7.894,7.894,0,0,0-1.193-.1,6.291,6.291,0,0,0-4.325,1.65,3.124,3.124,0,0,0-2.663-2.787c-5.289-.748-10.665-1.415-15.979-1.977a2.883,2.883,0,0,0-.321-.019,3.14,3.14,0,0,0-1.285.278,3.116,3.116,0,0,0-1.532-.587c-5.314-.525-10.709-.964-16.023-1.3-.068,0-.136-.006-.2-.006a3.114,3.114,0,0,0-3.1,2.873,7.4,7.4,0,0,0-5.734-3.343c-4.375-.192-8.818-.315-13.248-.377a3.077,3.077,0,0,0-1.946.686,3.128,3.128,0,0,0-1.977-.723c-.8,0-1.594-.006-2.4-.006-4.536,0-9.133.068-13.662.2a3.157,3.157,0,0,0-1.347.352A3.058,3.058,0,0,0,92.2,67.81h-.111c-5.926.216-11.92.55-17.827.995a3.133,3.133,0,0,0-1.477.513,3.077,3.077,0,0,0-1.291-.284,1.74,1.74,0,0,0-.253.012c-2.1.173-4.251.365-6.408.575a3.1,3.1,0,0,0-2.8,2.805,3.138,3.138,0,0,0-2.972-2.194,2.089,2.089,0,0,0-.34.019c-2.6.284-5.221.6-7.811.927a3.081,3.081,0,0,0-1.749.834,3.146,3.146,0,0,0-1.477-.383,3.2,3.2,0,0,0-.42.031c-2.089.284-4.239.593-6.377.915a3.087,3.087,0,0,0-1.619.76A3.083,3.083,0,0,0,38,73.057a3.246,3.246,0,0,0-.488.037c-2.194.346-4.406.711-6.575,1.088a3.117,3.117,0,0,0-2.571,2.8l-.735,8.465-.772-7.125a3.113,3.113,0,0,0-3.1-2.781,3.035,3.035,0,0,0-.581.056c-2.169.414-4.369.853-6.544,1.3a3.1,3.1,0,0,0-2.466,2.731L13.3,88.066l-.6-6.742a3.118,3.118,0,0,0-3.782-2.762c-2.138.482-4.332.989-6.507,1.514A3.131,3.131,0,0,0,.042,83.394q2.6,27.732,5.215,55.489a3.115,3.115,0,0,0,3.1,2.824,2.941,2.941,0,0,0,.692-.08c3.1-.7,6.272-1.39,9.411-2.039a3.1,3.1,0,0,0,2.354-2.138,3.121,3.121,0,0,0,2.991,1.075c3.139-.606,6.321-1.18,9.46-1.718a3.117,3.117,0,0,0,2.577-2.787q1.2-13.152,2.4-26.286v24.624a3.112,3.112,0,0,0,3.114,3.114,2.871,2.871,0,0,0,.463-.037c2.082-.315,4.2-.618,6.29-.9a3.083,3.083,0,0,0,1.718-.828,3.146,3.146,0,0,0,1.483.377,2.834,2.834,0,0,0,.4-.025c2.07-.266,4.19-.519,6.3-.76a3.111,3.111,0,0,0,2.762-3.1v-.945l.2.921a3.127,3.127,0,0,0,3.046,2.465,2.587,2.587,0,0,0,.309-.019c2.466-.241,4.968-.47,7.44-.674a3.129,3.129,0,0,0,2.855-3.1V82.3h.13c.766-.062,1.545-.117,2.317-.167v46.091a3.119,3.119,0,0,0,3.114,3.114,1.8,1.8,0,0,0,.192-.006c2.095-.13,4.22-.247,6.334-.352a3.106,3.106,0,0,0,2.96-3.108V81.429c.711-.031,1.427-.056,2.132-.08v46.2a3.143,3.143,0,0,0,.945,2.237,3.093,3.093,0,0,0,2.169.877H95c4.461-.136,9-.2,13.464-.2.958,0,1.916,0,2.886.012a3.1,3.1,0,0,0,1.7-.507,3.048,3.048,0,0,0,1.7.538c2.089.031,4.22.074,6.334.136h.093a3.088,3.088,0,0,0,2.169-.884,2.992,2.992,0,0,0,.463-.581,3.1,3.1,0,0,0,2.626,1.644c2.095.087,4.227.185,6.34.3h.161a3.073,3.073,0,0,0,1.829-.6,3.08,3.08,0,0,0,1.916.822c2.089.136,4.22.284,6.321.445.08.006.161.012.247.012a3.106,3.106,0,0,0,3.108-3.114V105.565c1.106.093,2.218.192,3.318.3.1.006.192.012.29.012a3.122,3.122,0,0,0,2.1-.816,3.183,3.183,0,0,0,.742-1.026v25.811a3.109,3.109,0,0,0,2.787,3.1c5.394.569,10.857,1.248,16.233,2.014a3.606,3.606,0,0,0,.451.031,3.088,3.088,0,0,0,2.614-1.427,7.814,7.814,0,0,0,4.523,2.546c3.127.5,6.315,1.044,9.473,1.625a6.808,6.808,0,0,0,1.217.111c3.794,0,6.655-3.083,6.655-7.168V107.419c0-4.2-2.966-8.021-6.754-8.713-1.613-.3-3.25-.581-4.875-.865v-1.4a3.124,3.124,0,0,0,1.675.877c2.089.371,4.2.76,6.26,1.156a3.1,3.1,0,0,0,.587.056,3.109,3.109,0,0,0,3.114-3.108V89.815c.7.142,1.4.278,2.095.426v46.888a3.132,3.132,0,0,0,2.465,3.046c2.064.439,4.159.9,6.229,1.366a3.194,3.194,0,0,0,.686.074,3.108,3.108,0,0,0,3.108-3.114V93l1.724.408a3.222,3.222,0,0,0,.729.087,3.133,3.133,0,0,0,1.928-.667,3.092,3.092,0,0,0,1.186-2.447V83.085a3.107,3.107,0,0,0-2.385-3.028ZM108.45,116.941c-1.335,0-2.694,0-4.06.019V103.983c1.217-.012,2.428-.019,3.627-.019a3.112,3.112,0,0,0,3.108-3.114V93.559A3.122,3.122,0,0,0,108,90.445c-1.2,0-2.416.006-3.621.019V81.052q2.039-.019,4.072-.019h2.391a3.3,3.3,0,0,0,.822-.111V116.96a2.518,2.518,0,0,0-.309-.019c-.97,0-1.946-.006-2.917-.006Zm41.8-24.569c-1.291-.117-2.6-.235-3.887-.346V82.641c2.045.173,4.1.358,6.124.562.105.006.21.012.309.012h.012V94.2a3.1,3.1,0,0,0-2.552-1.823Zm33.979,21.72a3.136,3.136,0,0,0-1.712-.884c-2.119-.352-4.264-.686-6.371-1.007a2.912,2.912,0,0,0-.457-.037,3.112,3.112,0,0,0-3.108,3.114v6.2c-2.391-.34-4.8-.667-7.193-.964V107.592c1.057.136,2.119.278,3.164.414a3.11,3.11,0,0,0,3.522-3.083V97.631a3.122,3.122,0,0,0-2.694-3.083c-1.322-.179-2.663-.352-4-.525V84.661c1.99.253,3.992.525,5.963.8a3.41,3.41,0,0,0,.439.031,3.06,3.06,0,0,0,.791-.117v16.616a8.6,8.6,0,0,0,6.834,8.509c1.594.253,3.213.525,4.82.8v2.787Z" transform="translate(-0.029 -25.798)" fill="#0cf"/>
    <path id="Path_8737" data-name="Path 8737" d="M38.99,75.72a1.427,1.427,0,0,0-.229.019c-2.175.346-4.381.711-6.55,1.088a1.47,1.47,0,0,0-1.217,1.329Q29.9,90.742,28.8,103.341L26.224,79.527a1.487,1.487,0,0,0-.587-1.026,1.453,1.453,0,0,0-.877-.29,1.411,1.411,0,0,0-.278.025c-2.169.414-4.363.853-6.519,1.3a1.477,1.477,0,0,0-1.168,1.291q-1.307,12.689-2.614,25.39L12.061,82.493a1.468,1.468,0,0,0-.6-1.063,1.483,1.483,0,0,0-.871-.284,1.425,1.425,0,0,0-.321.037c-2.138.482-4.319.989-6.488,1.508a1.478,1.478,0,0,0-1.125,1.57q2.6,27.732,5.215,55.489a1.451,1.451,0,0,0,.606,1.057,1.5,1.5,0,0,0,.865.278,1.479,1.479,0,0,0,.327-.037c3.114-.711,6.29-1.4,9.448-2.045a1.477,1.477,0,0,0,1.174-1.291q.64-6.173,1.267-12.334l1.18,11.271a1.487,1.487,0,0,0,.587,1.032,1.452,1.452,0,0,0,.877.29,1.411,1.411,0,0,0,.278-.025c3.133-.606,6.334-1.18,9.5-1.724A1.476,1.476,0,0,0,35.2,134.9q2.632-28.807,5.265-57.572A1.474,1.474,0,0,0,39,75.72ZM48.679,74.3a1.064,1.064,0,0,0-.2.012c-2.095.284-4.233.593-6.352.908a1.475,1.475,0,0,0-1.254,1.458v56.713a1.478,1.478,0,0,0,1.477,1.477.9.9,0,0,0,.222-.019c2.089-.315,4.214-.618,6.315-.9a1.477,1.477,0,0,0,1.279-1.458V75.776A1.479,1.479,0,0,0,48.691,74.3Zm23.815-2.6H72.37c-2.107.173-4.251.365-6.383.568a1.481,1.481,0,0,0-1.335,1.471V88.382q-1.585-7.174-3.158-14.33a1.473,1.473,0,0,0-1.44-1.156.705.705,0,0,0-.161.012c-2.583.284-5.2.593-7.786.927A1.474,1.474,0,0,0,50.823,75.3v56.713A1.481,1.481,0,0,0,52.3,133.49a.936.936,0,0,0,.185-.012c2.076-.266,4.208-.519,6.328-.76a1.468,1.468,0,0,0,1.31-1.464V114.767q1.715,8.055,3.436,16.122A1.478,1.478,0,0,0,65,132.056a1.193,1.193,0,0,0,.148-.006c2.478-.247,4.993-.476,7.471-.674a1.474,1.474,0,0,0,1.353-1.471V73.193a1.474,1.474,0,0,0-1.477-1.471Zm39.862,47.914c-.97-.006-1.94-.006-2.9-.006-1.9,0-3.806.012-5.7.037V103.4c1.749-.025,3.51-.037,5.265-.037a1.472,1.472,0,0,0,1.471-1.477V94.592a1.477,1.477,0,0,0-1.477-1.477h0c-1.749,0-3.516.012-5.259.037V80.466c1.9-.025,3.813-.037,5.71-.037.8,0,1.588,0,2.379.006h.006A1.453,1.453,0,0,0,112.887,80a1.478,1.478,0,0,0,.433-1.044V71.667a1.478,1.478,0,0,0-1.464-1.477h-2.391c-4.523,0-9.1.068-13.619.2a1.471,1.471,0,0,0-1.322.927,1.453,1.453,0,0,0-.3-.426,1.481,1.481,0,0,0-1.026-.414h-.056c-5.9.21-11.876.544-17.765.989a1.476,1.476,0,0,0-1.366,1.471v7.291a1.492,1.492,0,0,0,.47,1.081,1.471,1.471,0,0,0,1,.4h.111c1.353-.105,2.719-.2,4.078-.29v47.846a1.475,1.475,0,0,0,1.471,1.477h.093c2.095-.13,4.233-.253,6.352-.352a1.475,1.475,0,0,0,1.4-1.477V80.9c1.415-.062,2.836-.124,4.245-.173a1.471,1.471,0,0,0,1.162-.643v48.5a1.443,1.443,0,0,0,.451,1.057,1.47,1.47,0,0,0,1.026.414h.043c4.486-.136,9.034-.2,13.514-.2.958,0,1.922,0,2.88.012h.006a1.466,1.466,0,0,0,1.471-1.471V121.1a1.478,1.478,0,0,0-1.464-1.477Zm22.27-22.7V77.148c0-3.473-2.54-6.4-5.66-6.538-4.363-.185-8.787-.315-13.156-.377h-.019a1.484,1.484,0,0,0-1.038.426,1.462,1.462,0,0,0-.439,1.05v56.713a1.484,1.484,0,0,0,1.452,1.477c2.113.031,4.251.074,6.358.136h.043a1.466,1.466,0,0,0,1.471-1.471V106.023c.809.025,1.619.056,2.435.08V128.75a1.471,1.471,0,0,0,1.415,1.471c2.1.087,4.239.185,6.358.3h.08a1.465,1.465,0,0,0,1.471-1.471V105.72a7.482,7.482,0,0,0-1.9-5.011,6.321,6.321,0,0,0,1.125-3.776ZM125.3,95.821l-1.656-.056V80.651l1.656.056Zm28.634-23.444c-5.289-.519-10.665-.958-15.967-1.291h-.093a1.475,1.475,0,0,0-1.477,1.477v56.713a1.475,1.475,0,0,0,1.384,1.471c2.082.13,4.22.278,6.352.445h.117a1.494,1.494,0,0,0,1-.389,1.474,1.474,0,0,0,.476-1.081v-24.9c1.7.136,3.411.284,5.1.445.043,0,.093.006.136.006a1.485,1.485,0,0,0,.995-.383,1.461,1.461,0,0,0,.482-1.088V96.513a1.482,1.482,0,0,0-1.341-1.471c-1.786-.167-3.59-.321-5.376-.463V81.906c2.632.216,5.289.451,7.922.711h.148a1.483,1.483,0,0,0,1.477-1.477V73.848a1.47,1.47,0,0,0-1.329-1.464Zm19.545,51.776c-2.9-.414-5.839-.8-8.737-1.162V106.765c1.675.21,3.361.426,5.024.649a1.063,1.063,0,0,0,.2.012,1.49,1.49,0,0,0,.97-.365,1.473,1.473,0,0,0,.507-1.112V98.658a1.468,1.468,0,0,0-1.279-1.458c-1.792-.241-3.609-.476-5.419-.7V83.834c2.608.321,5.234.674,7.829,1.044.068.006.136.012.21.012a1.468,1.468,0,0,0,1.471-1.471V76.128a1.472,1.472,0,0,0-1.267-1.458c-5.277-.748-10.628-1.409-15.918-1.971-.049,0-.105-.006-.154-.006a1.472,1.472,0,0,0-1.477,1.471v56.713a1.473,1.473,0,0,0,1.322,1.464c5.407.575,10.894,1.254,16.3,2.027a1.2,1.2,0,0,0,.21.012,1.456,1.456,0,0,0,.964-.358,1.473,1.473,0,0,0,.507-1.112v-7.291a1.467,1.467,0,0,0-1.267-1.458ZM215.14,82.7c-5.771-1.384-11.648-2.676-17.475-3.831a1.482,1.482,0,0,0-.284-.031,1.5,1.5,0,0,0-.939.334,1.473,1.473,0,0,0-.538,1.137v2.465a6.826,6.826,0,0,0-5.2-5.24c-3.17-.581-6.389-1.131-9.572-1.644a6.054,6.054,0,0,0-.933-.074c-2.941,0-4.993,2.36-4.993,5.734V103.02c0,3.318,2.447,6.408,5.456,6.89,2.058.328,4.134.674,6.2,1.038v15.318l-2.379-.408v-8.552a1.48,1.48,0,0,0-1.236-1.458c-2.113-.346-4.245-.686-6.346-1a1.353,1.353,0,0,0-.222-.019,1.478,1.478,0,0,0-1.477,1.477v12.315c0,3.318,2.453,6.408,5.456,6.89,3.139.5,6.334,1.05,9.5,1.631a5.226,5.226,0,0,0,.927.087c2.861,0,5.018-2.379,5.018-5.53V108.445c0-3.429-2.379-6.544-5.413-7.1-2.058-.377-4.146-.742-6.222-1.088V86.719c.8.136,1.594.272,2.379.408V95.29a1.472,1.472,0,0,0,1.217,1.452c2.089.371,4.2.76,6.284,1.162a1.409,1.409,0,0,0,.278.025,1.482,1.482,0,0,0,1.477-1.477V88.344a1.466,1.466,0,0,0,.976.686c1.458.29,2.935.593,4.4.9v48.222a1.469,1.469,0,0,0,1.168,1.44c2.082.445,4.19.9,6.253,1.372a1.476,1.476,0,0,0,1.248-.284,1.462,1.462,0,0,0,.55-1.149V91.959c1.248.29,2.5.581,3.745.884a1.328,1.328,0,0,0,.346.043,1.5,1.5,0,0,0,.915-.315,1.476,1.476,0,0,0,.562-1.156V84.124a1.48,1.48,0,0,0-1.131-1.434Z" transform="translate(-1.03 -26.818)" fill="#fff"/>
    <path id="Path_8738" data-name="Path 8738" d="M103.191,122.041v-19.2c2.243-.037,4.492-.056,6.735-.056V95.5c-2.243,0-4.492.019-6.735.056V79.918q4.783-.074,9.572-.049V72.577q-7.98-.037-15.955.2v56.713q8.221-.241,16.449-.192V122q-5.033-.028-10.066.049Zm-36.148-19.2Q64,89.041,60.968,75.277q-3.884.426-7.761.921V132.91c2.113-.272,4.233-.525,6.346-.766V101.681q3.179,14.867,6.352,29.784,3.745-.371,7.5-.68V74.072c-2.119.173-4.245.365-6.365.568v28.2ZM76.41,81.135c1.885-.142,3.775-.272,5.66-.4v49.421q3.188-.2,6.377-.352V80.387q2.836-.139,5.666-.241V72.855q-8.861.315-17.7.989v7.291Zm-46.536,38.28q-2.1-19.427-4.2-38.83-3.253.621-6.5,1.291-2.095,20.317-4.183,40.659Q13.246,103.025,11.5,83.526q-3.235.732-6.463,1.5,2.6,27.732,5.215,55.5,4.727-1.075,9.479-2.051Q21.1,125.227,22.459,112q1.325,12.7,2.657,25.4,4.755-.918,9.528-1.73,2.632-28.8,5.265-57.572c-2.175.346-4.356.7-6.525,1.081q-1.752,20.113-3.5,40.233Zm13.384,14.88q3.161-.473,6.334-.908V76.674q-3.17.426-6.334.908ZM191.349,79.887q-4.764-.862-9.535-1.631c-2.527-.408-4.214,1.372-4.214,4.2V103.93c0,2.428,1.761,5.042,4.214,5.438q3.717.593,7.44,1.254v18.309c-1.78-.315-3.553-.618-5.333-.915v-9.8q-3.161-.519-6.321-1V129.53a5.607,5.607,0,0,0,4.214,5.438q4.773.76,9.535,1.631c2.311.42,4.2-1.4,4.2-3.992V109.355c0-2.6-1.817-5.215-4.2-5.648q-3.708-.677-7.434-1.291V85.887q2.669.445,5.333.915v9.4q3.151.556,6.3,1.168V85.46a5.521,5.521,0,0,0-4.2-5.567ZM164.179,106c2.231.266,4.468.55,6.692.853V99.561q-3.346-.454-6.692-.853V83.069q4.764.575,9.51,1.242V77.02q-7.916-1.122-15.862-1.959v56.713q8.194.862,16.356,2.033v-7.291q-5-.714-10-1.316Zm34.109-24.791V88.5q2.8.556,5.586,1.143v49.421q3.142.667,6.272,1.372V91.015q2.781.63,5.561,1.3V85.022q-8.676-2.085-17.419-3.819Zm-59.5,48.958c2.126.136,4.245.284,6.371.445v-26.49c2.237.173,4.48.365,6.717.568V97.4c-2.237-.21-4.48-.4-6.717-.568V81.2q4.773.371,9.541.84V74.746q-7.943-.788-15.911-1.285v56.713Zm-6.921-28.492c1.273-.346,2.194-1.835,2.194-3.862V78.045c0-2.589-1.841-4.962-4.251-5.061q-6.553-.287-13.112-.377V129.32q3.188.046,6.383.136V105.395q2.7.074,5.382.185v24.062q3.188.13,6.377.3V106.612c0-2.027-1.063-4.356-2.978-4.931Zm-4.183-3.423c-1.532-.056-3.071-.111-4.61-.154V80.035c1.539.043,3.071.093,4.61.154V98.258Z" transform="translate(-1.944 -27.728)"/>
    <g id="Group_2482" data-name="Group 2482" transform="translate(32.133 14.163)">
      <path id="Path_8739" data-name="Path 8739" d="M198.934,43.676a1.41,1.41,0,0,1-.278-.025c-1.069-.173-2.138-.334-3.207-.494a1.821,1.821,0,0,1-1.322-.933l-.26-.488a1.724,1.724,0,0,1-.4.494,1.8,1.8,0,0,1-1.18.439,1.166,1.166,0,0,1-.253-.019c-.964-.136-1.946-.278-2.873-.4a1.754,1.754,0,0,1-.989-.476,1.808,1.808,0,0,1-.847.21c-.043,0-.185-.012-.229-.012-2.645-.346-4.579-.587-7.186-.9a1.82,1.82,0,0,1-1-.451,1.8,1.8,0,0,1-.877.229c-.037,0-.161-.006-.2-.012-2.645-.3-4.579-.5-7.193-.748a1.8,1.8,0,0,1-1.149-.568,1.82,1.82,0,0,1-1.075.352,1.4,1.4,0,0,1-.161-.006c-.989-.093-1.971-.179-2.954-.26a1.789,1.789,0,0,1-1.631-1.532,1.826,1.826,0,0,1-.494.779,1.789,1.789,0,0,1-1.223.476,1.506,1.506,0,0,1-.167-.006c-.958-.074-1.959-.148-2.929-.216a1.807,1.807,0,0,1-1.675-1.8v-.358a7.167,7.167,0,0,1-4.919,1.841c-.161,0-.321,0-.482-.012a7.736,7.736,0,0,1-7.526-7.86,7.015,7.015,0,0,1,7.273-7.335c.148,0,.3,0,.457.012a7.79,7.79,0,0,1,5.2,2.323,1.817,1.817,0,0,1,.568-1.267,1.781,1.781,0,0,1,1.23-.482,1.618,1.618,0,0,1,.173.006c.933.068,1.94.136,2.935.216a1.814,1.814,0,0,1,1.644,1.532,1.807,1.807,0,0,1,1.718-1.261h.117c1.032.087,2.021.173,3.009.266a1.83,1.83,0,0,1,1.168.568,1.807,1.807,0,0,1,1.075-.352,1.4,1.4,0,0,1,.161.006c2.645.26,4.449.445,7.106.742a1.79,1.79,0,0,1,1.075.519,1.8,1.8,0,0,1,.958-.272,1.426,1.426,0,0,1,.229.019c2.608.3,4.406.531,7.063.877a1.8,1.8,0,0,1,1.063.538,1.8,1.8,0,0,1,.921-.253c.049,0,.21.012.26.019,1.625.222,3.306.463,4.956.7a6.465,6.465,0,0,1,5.506,5.351,5.605,5.605,0,0,1-1.088,4.517l1.483,2.651a1.84,1.84,0,0,1,.229.877v.42a1.8,1.8,0,0,1-1.8,1.8ZM151.682,29.834c-.531,0-.816.408-.816,1.217,0,.488.235,1.434,1.137,1.489h.111c.47,0,.513-.161.556-.334a1.824,1.824,0,0,1,.587-.933,1.774,1.774,0,0,1-.593-.834c-.136-.389-.29-.568-.877-.6h-.105ZM58.66,42.984a6.434,6.434,0,0,1-6.63-6.772,8.524,8.524,0,0,1,7.322-8.466,8.234,8.234,0,0,1,1.162-.087,5.917,5.917,0,0,1,5.969,4.2l1.946-4.468a1.806,1.806,0,0,1,1.434-1.069l1.248-.148c.037,0,.173-.012.216-.012a1.8,1.8,0,0,1,1.619,1.013Q74.318,30,75.7,32.819v-5.45a1.792,1.792,0,0,1,1.613-1.792l1.05-.111c.037,0,.154-.012.185-.012a1.811,1.811,0,0,1,1.186.445q1.372,1.2,2.744,2.4V26.745a1.787,1.787,0,0,1,1.637-1.792c.989-.093,1.977-.179,2.972-.26h.148a1.808,1.808,0,0,1,1.217.47,1.826,1.826,0,0,1,.587,1.329v4.7q1.353-3.031,2.7-6.056a1.786,1.786,0,0,1,1.52-1.063s1.353-.093,1.372-.093A1.8,1.8,0,0,1,96.255,25q1.381,2.892,2.768,5.79V25.546a1.8,1.8,0,0,1,1.705-1.8q2.15-.12,4.3-.216h.327a6.986,6.986,0,0,1,4.5,1.464,1.8,1.8,0,0,1,1.743-1.718q2.781-.083,5.555-.142h0a1.8,1.8,0,0,1,1.835,1.8v2.527a1.811,1.811,0,0,1-1.329,1.736v2.713q1.826-3.986,3.664-7.953a1.808,1.808,0,0,1,1.625-1.044h1.261a1.8,1.8,0,0,1,1.638,1.032q1.381,2.975,2.768,5.957V24.823a1.8,1.8,0,0,1,1.8-1.8l1.075.012a1.8,1.8,0,0,1,1.248.519c.9.884,1.786,1.767,2.682,2.651V24.978a1.82,1.82,0,0,1,.544-1.291,1.8,1.8,0,0,1,1.261-.513c.006,0,2.021.049,3.022.08a1.794,1.794,0,0,1,1.749,1.8V36.4a1.8,1.8,0,0,1-1.8,1.8l-1.094-.031a1.786,1.786,0,0,1-1.223-.525q-1.325-1.335-2.657-2.657v1.242a1.815,1.815,0,0,1-.538,1.285,1.776,1.776,0,0,1-1.261.519L130.4,38a1.739,1.739,0,0,1-.531-.087,1.864,1.864,0,0,1-.525.08c-.13,0-1.928-.006-2.842-.006a1.8,1.8,0,0,1-1.631-1.038l-.179-.383c-.729,0-1.452.006-2.181.012l-.185.4a1.808,1.808,0,0,1-1.613,1.044l-2.793.043a1.467,1.467,0,0,1-.3-.019,1.31,1.31,0,0,1-.272.025c-1.922.037-3.831.087-5.747.148h0a1.809,1.809,0,0,1-1.3-.507,1.858,1.858,0,0,1-.519-.952,7.556,7.556,0,0,1-4.579,1.705q-2.132.093-4.264.216h-.012a2.25,2.25,0,0,1-.513-.056,1.781,1.781,0,0,1-.544.117l-2.941.173A1.8,1.8,0,0,1,95.3,37.9l-.136-.284c-.723.049-1.452.1-2.175.154l-.222.5a1.811,1.811,0,0,1-1.508,1.057l-2.972.229a1.7,1.7,0,0,1-.352-.037,1.8,1.8,0,0,1-.538.13l-1.038.087-.154.006a1.792,1.792,0,0,1-1.2-.457q-1.363-1.2-2.713-2.41v1.582a1.8,1.8,0,0,1-1.625,1.792c-1,.1-2,.2-2.978.3-.037,0-.154.012-.192.012a1.7,1.7,0,0,1-.352-.037,1.7,1.7,0,0,1-.519.136l-2.818.315c-.037,0-.167.012-.2.012a1.821,1.821,0,0,1-1.619-1.007l-.1-.2-2.163.26-.253.575a1.815,1.815,0,0,1-1.427,1.063c-.933.117-1.872.241-2.812.371-.043,0-.2.019-.241.019a1.835,1.835,0,0,1-1.186-.445,1.748,1.748,0,0,1-.185-.185,8.674,8.674,0,0,1-3.751,1.477A8.014,8.014,0,0,1,58.654,43Zm1.477-9.053a1.971,1.971,0,0,0-.26.019c-.791.117-1.267.785-1.267,1.792a1.219,1.219,0,0,0,.229.791.441.441,0,0,0,.383.161.6.6,0,0,0,.148-.012,1.054,1.054,0,0,0,1.007-.834,1.8,1.8,0,0,1,.587-.952,1.8,1.8,0,0,1-.575-.791.633.633,0,0,0-.08-.167h0a1.167,1.167,0,0,0-.173-.012Zm45.411-1.878a1.561,1.561,0,0,0,.488-1.23c-.006-.334-.086-.853-.488-1.013Z" transform="translate(-52.03 -22.92)"/>
      <path id="Path_8740" data-name="Path 8740" d="M199.408,43.285c-1.069-.173-2.144-.334-3.213-.494a.8.8,0,0,1-.6-.426l-1.736-3.256-.148-.019v2.385a.822.822,0,0,1-.284.618.814.814,0,0,1-.538.2.788.788,0,0,1-.117-.006c-.964-.136-1.946-.278-2.88-.4a.819.819,0,0,1-.711-.809V29.74a.838.838,0,0,1,.278-.618.82.82,0,0,1,.538-.2.671.671,0,0,1,.111.006c1.631.222,3.312.463,4.956.7a5.482,5.482,0,0,1,4.678,4.542,4.481,4.481,0,0,1-1.335,4.2l1.841,3.287a.829.829,0,0,1,.105.4v.42a.825.825,0,0,1-.284.624.809.809,0,0,1-.531.2.463.463,0,0,1-.13-.012Zm-4.338-8.231c.222,0,.253-.352.253-.371.019-.21-.043-.772-.507-.847q-.556-.093-1.112-.167v1.186ZM59.258,42.605a5.435,5.435,0,0,1-5.648-5.79,7.543,7.543,0,0,1,6.482-7.489,7.1,7.1,0,0,1,1.026-.074,4.915,4.915,0,0,1,5.209,4.332.821.821,0,0,1-.7.933c-.982.13-1.848.247-2.836.389-.037,0-.074.006-.111.006a.812.812,0,0,1-.766-.538,1.1,1.1,0,0,0-1.174-.822,3.087,3.087,0,0,0-.4.031,2.555,2.555,0,0,0-2.1,2.762,2.208,2.208,0,0,0,.457,1.427,1.429,1.429,0,0,0,1.137.507,2.269,2.269,0,0,0,.284-.019,2.073,2.073,0,0,0,1.829-1.57.826.826,0,0,1,.686-.618c.97-.136,1.854-.26,2.842-.389.037,0,.074-.006.105-.006a.825.825,0,0,1,.822.871q1.77-4.088,3.547-8.157A.83.83,0,0,1,70.6,27.9l1.248-.148h.093a.813.813,0,0,1,.735.457q2.308,4.727,4.622,9.473V27.973a.818.818,0,0,1,.735-.816l1.05-.111h.087a.82.82,0,0,1,.538.2q2.187,1.909,4.375,3.843V27.355a.815.815,0,0,1,.742-.816q1.483-.139,2.966-.26h.068a.817.817,0,0,1,.556.216.833.833,0,0,1,.266.606V36.42q2.289-5.153,4.585-10.276a.811.811,0,0,1,.692-.482s1.285-.087,1.3-.087a.828.828,0,0,1,.741.463q2.317,4.838,4.634,9.708v-9.6a.815.815,0,0,1,.772-.816c1.434-.08,2.861-.148,4.295-.216h.3a5.947,5.947,0,0,1,6.111,6.1,7.283,7.283,0,0,1-.42,2.6.825.825,0,0,1,.451-.154l.655-.019V29.011l-.513.019a.82.82,0,0,1-.568-.229.808.808,0,0,1-.247-.587V25.686a.824.824,0,0,1,.791-.822q2.771-.083,5.549-.142h.019a.823.823,0,0,1,.822.822v2.527a.826.826,0,0,1-.8.822l-.531.012v4.628l.624-.012a.8.8,0,0,1,.575.235.815.815,0,0,1,.179.26q2.076-4.523,4.159-9.034a.807.807,0,0,1,.735-.476l1.254-.006a.809.809,0,0,1,.742.476q2.317,4.987,4.641,10V25.433a.823.823,0,0,1,.241-.581.8.8,0,0,1,.575-.235l1.063.012a.826.826,0,0,1,.568.235q2.178,2.15,4.356,4.313V25.594a.808.808,0,0,1,.247-.587.83.83,0,0,1,.575-.235c.006,0,2,.049,3,.08a.82.82,0,0,1,.8.822V37.025a.808.808,0,0,1-.247.587.82.82,0,0,1-.568.229l-1.063-.031a.792.792,0,0,1-.556-.241q-2.169-2.169-4.332-4.325v3.609a.784.784,0,0,1-.247.581.83.83,0,0,1-.575.235l-3.015-.037a.811.811,0,0,1-.531-.2.825.825,0,0,1-.531.192s-1.9-.006-2.842-.006a.827.827,0,0,1-.742-.47l-.445-.952c-1.143,0-2.292.012-3.436.019l-.445.964a.828.828,0,0,1-.735.476c-.945.012-2.849.043-2.855.043a.867.867,0,0,1-.253-.037.752.752,0,0,1-.266.049q-2.883.056-5.753.148h-.025a.82.82,0,0,1-.568-.229.808.808,0,0,1-.247-.587v-2.41a6.319,6.319,0,0,1-5.574,3.479c-1.427.062-2.849.136-4.276.216h-.043a.819.819,0,0,1-.5-.173.837.837,0,0,1-.525.229c-.945.056-2.867.173-2.886.173a.828.828,0,0,1-.741-.463l-.426-.884q-1.715.111-3.429.241L92.5,38.477a.825.825,0,0,1-.686.482c-.945.074-2.873.229-2.9.229a.787.787,0,0,1-.457-.142.832.832,0,0,1-.513.241l-1.032.087h-.074a.836.836,0,0,1-.544-.2q-2.178-1.937-4.35-3.856v3.757a.823.823,0,0,1-.735.816c-1,.1-2,.2-2.985.3h-.087a.814.814,0,0,1-.47-.148.815.815,0,0,1-.513.253l-2.824.315h-.093a.814.814,0,0,1-.735-.457l-.408-.828c-1.137.136-2.28.272-3.417.414L69.2,40.819a.813.813,0,0,1-.649.482q-1.409.176-2.818.371c-.037,0-.074.006-.111.006a.819.819,0,0,1-.816-.822v-.42a.786.786,0,0,1,.037-.241,7.439,7.439,0,0,1-4.48,2.342,7,7,0,0,1-1.075.08Zm45.9-8.781.525-.025a2.141,2.141,0,0,0,1.934-2.391,1.836,1.836,0,0,0-1.755-2.027l-.7.031v4.412ZM187.81,41.6c-2.645-.346-4.579-.587-7.193-.9a.817.817,0,0,1-.723-.816V28.554a.819.819,0,0,1,.272-.612.8.8,0,0,1,.544-.2h.093c2.62.309,4.418.531,7.069.877a.819.819,0,0,1,.711.809v2.6a.848.848,0,0,1-.278.618.833.833,0,0,1-.525.2.819.819,0,0,1,.463.742V36.16a.819.819,0,0,1-.816.822.566.566,0,0,1-.105-.006c-.97-.13-1.946-.253-2.917-.371v.34c1.261.161,2.181.272,3.615.463a.82.82,0,0,1,.711.816v2.571a.819.819,0,0,1-.816.822.565.565,0,0,1-.105-.006Zm-9.269-1.131c-2.651-.3-4.585-.5-7.2-.748a.823.823,0,0,1-.742-.816V27.571a.81.81,0,0,1,.816-.816h.08c2.626.253,4.424.445,7.081.735a.822.822,0,0,1,.729.816v2.6a.819.819,0,0,1-.272.612.81.81,0,0,1-.544.21h0a.82.82,0,0,1,.482.748v2.577a.819.819,0,0,1-.272.612.81.81,0,0,1-.544.21h-.093c-.983-.111-1.959-.216-2.941-.315V35.9c1.254.13,2.175.229,3.609.389a.822.822,0,0,1,.729.816v2.577a.819.819,0,0,1-.272.612.81.81,0,0,1-.544.21h-.093Zm-9.6-.976c-.982-.093-1.971-.179-2.96-.26a.815.815,0,0,1-.748-.816V34.628c-.624-.049-1.242-.105-1.86-.148v3.664a.811.811,0,0,1-.816.816H162.5c-.989-.074-1.99-.148-2.96-.216a.821.821,0,0,1-.76-.816V26.595a.813.813,0,0,1,.26-.6.824.824,0,0,1,.556-.222h.056c.976.068,1.984.142,2.972.216a.816.816,0,0,1,.754.816V30.16l1.86.148V27.083a.82.82,0,0,1,.266-.606.848.848,0,0,1,.556-.216h.068c.989.08,1.977.173,2.966.26a.82.82,0,0,1,.748.816V38.675a.821.821,0,0,1-.816.822h-.074Zm-16.078-1.081c-.142,0-.284,0-.426-.012a6.786,6.786,0,0,1-6.6-6.877,6.069,6.069,0,0,1,6.29-6.346c.13,0,.266,0,.4.012a6.288,6.288,0,0,1,6.105,5.333.815.815,0,0,1-.809.933c-.019,0-1.916-.124-2.9-.179a.811.811,0,0,1-.723-.55,1.735,1.735,0,0,0-1.755-1.261h-.136c-1.341,0-1.823,1.131-1.823,2.194a2.319,2.319,0,0,0,2.058,2.472h.148a1.4,1.4,0,0,0,1.539-1.069.813.813,0,0,1,.791-.612c.019,0,1.916.117,2.91.185a.847.847,0,0,1,.581.3.815.815,0,0,1,.179.624c-.476,3.584-3.318,4.863-5.815,4.863Z" transform="translate(-52.634 -23.524)" fill="#fff"/>
      <path id="Path_8741" data-name="Path 8741" d="M60.72,39.563a2.473,2.473,0,0,1-2.805-2.725,3.37,3.37,0,0,1,2.805-3.572,2.012,2.012,0,0,1,2.465,1.316c.982-.136,1.854-.26,2.836-.389-.439-2.972-2.972-3.905-5.308-3.565A6.708,6.708,0,0,0,54.93,37.3c.019,3.85,2.91,5.333,5.784,4.906a6.012,6.012,0,0,0,5.351-5.215c-.982.13-1.872.253-2.836.389a2.881,2.881,0,0,1-2.515,2.187ZM71.188,29.207q-2.549,5.839-5.085,11.71v.42l2.824-.371c.222-.5.439-1.007.661-1.508q2.225-.278,4.461-.538c.222.451.445.9.661,1.347l2.83-.315v-.42q-2.558-5.255-5.11-10.48l-1.242.148Zm-.661,7.662q.64-1.566,1.273-3.133c.439.939.871,1.878,1.31,2.824-.859.1-1.724.2-2.583.315ZM85.387,33.4q-2.864-2.54-5.728-5.042l-1.05.111V39.848c.982-.105,1.99-.21,2.991-.309V33.965q2.855,2.512,5.716,5.055c.346-.031.692-.062,1.038-.087V27.582l-2.966.26V33.4ZM94.5,26.958q-2.558,5.71-5.1,11.45v.42q1.418-.12,2.836-.222c.222-.494.445-.982.667-1.477,1.489-.111,2.985-.216,4.474-.315.222.463.445.921.667,1.384.945-.062,1.891-.117,2.836-.173V37.6q-2.567-5.385-5.123-10.739c-.414.031-.834.056-1.248.087Zm-.667,7.625c.426-1.026.853-2.045,1.279-3.071L96.43,34.4C95.564,34.459,94.7,34.521,93.834,34.583Zm12.389-8.169c-1.427.068-2.855.136-4.282.216V37.963c1.427-.08,2.855-.148,4.282-.216,7.4-.334,7.4-11.6,0-11.333Zm0,8.694c-.457.019-.921.043-1.378.068V29.121c.457-.025.921-.043,1.378-.068C109.845,28.9,109.845,34.954,106.224,35.108Zm10.746-6.538c.445-.012.89-.019,1.329-.031V26.012c-1.848.037-3.689.087-5.537.142v2.527c.445-.012.89-.025,1.329-.043V34.9c-.482.012-.964.031-1.446.043v2.54q2.883-.093,5.765-.148V34.8c-.482.012-.964.019-1.446.031V28.564Zm7.1-2.781q-2.558,5.552-5.116,11.129v.42c.945-.019,1.9-.031,2.842-.043.222-.476.445-.958.667-1.434q2.243-.028,4.48-.025l.667,1.427c.945,0,1.9,0,2.842.012v-.42q-2.567-5.543-5.135-11.067c-.414,0-.834,0-1.248.006Zm-.667,7.582c.426-.995.853-2,1.285-2.991.439.989.877,1.984,1.316,2.972q-1.3,0-2.6.019ZM138.325,31.6q-2.873-2.873-5.753-5.7c-.352,0-.7-.006-1.057-.012V37.271c.989.006,2,.019,3,.037V31.734q2.864,2.836,5.734,5.71c.346.012.692.019,1.038.031V26.124c-.989-.031-1.984-.056-2.972-.08V31.6Zm14.657,3.831a3.135,3.135,0,0,1-2.824-3.287c0-1.878,1.118-3.1,2.824-3.009a2.555,2.555,0,0,1,2.484,1.811l2.855.179a5.446,5.446,0,0,0-5.339-4.634,5.3,5.3,0,0,0-5.827,5.512,5.941,5.941,0,0,0,5.827,6.068c2.416.13,4.962-.964,5.382-4.14-.989-.068-1.878-.124-2.855-.179a2.263,2.263,0,0,1-2.533,1.687Zm13.57-3.751q-1.752-.148-3.5-.284V27.285c-.989-.074-2-.148-2.966-.216V38.4c.97.068,1.977.142,2.966.216V34.07q1.752.139,3.5.284V38.9c.989.087,1.977.167,2.966.26V27.829c-.989-.087-1.977-.179-2.966-.26v4.115Zm8.243,3.429c1.285.13,2.564.266,3.85.414V32.952c-1.285-.142-2.564-.278-3.85-.414V30.931c1.668.173,2.509.26,4.189.451V28.793c-2.651-.3-4.449-.482-7.069-.735V39.39c2.62.253,4.56.457,7.217.754V37.568c-1.693-.192-2.669-.29-4.332-.463v-1.99Zm9.294,1.05c1.279.154,2.564.321,3.843.488V34.076c-1.279-.167-2.558-.334-3.843-.488V31.982c1.662.2,2.5.315,4.183.531V29.924c-2.645-.346-4.437-.568-7.057-.877V40.379c2.62.309,4.554.55,7.2.9V38.7c-1.693-.222-2.663-.346-4.325-.55v-1.99Zm13.736,2.447c2.849-1.5,2.045-6.995-2.385-7.681-1.644-.241-3.318-.482-4.95-.7V41.559c.933.13,1.922.266,2.886.408V38.63c.5.074,1,.142,1.5.216.643,1.2,1.291,2.416,1.934,3.621,1.075.161,2.144.327,3.219.5v-.42Q198.927,40.574,197.824,38.612Zm-2.385-2.255c-.686-.1-1.378-.2-2.064-.3V33.217c.68.1,1.39.185,2.064.3C197.083,33.78,197,36.585,195.439,36.356Z" transform="translate(-53.138 -24.017)"/>
    </g>
  </g>
</svg>
